<svg xmlns="http://www.w3.org/2000/svg" width="60" height="60" viewBox="0 0 60 60">
  <g id="Grupo_1772" data-name="Grupo 1772" transform="translate(-289 -258)">
    <g id="Grupo_1768" data-name="Grupo 1768" transform="translate(261 10)">
      <rect id="Rectángulo_354" data-name="Rectángulo 354" width="60" height="60" rx="7" transform="translate(28 248)" fill="#f7f7f7"/>
      <text id="Código_QR" data-name="Código
QR" transform="translate(58 291)" fill="#414141" font-size="10" font-family="Rubik-Regular, Rubik"><tspan x="-16.24" y="0">Código</tspan><tspan x="-6.66" y="10">QR</tspan></text>
    </g>
    <g id="Grupo_1747" data-name="Grupo 1747" transform="translate(290 -143.245)">
      <g id="Grupo_1692" data-name="Grupo 1692" transform="translate(21 412)">
        <path id="Trazado_4535" data-name="Trazado 4535" d="M69.5,71.446H65.946A1.948,1.948,0,0,1,64,69.5V65.946A1.948,1.948,0,0,1,65.946,64H69.5a1.948,1.948,0,0,1,1.946,1.946V69.5A1.948,1.948,0,0,1,69.5,71.446Zm-3.554-6.092a.593.593,0,0,0-.592.592V69.5a.593.593,0,0,0,.592.592H69.5a.593.593,0,0,0,.592-.592V65.946a.593.593,0,0,0-.592-.592Z" transform="translate(-64 -64)" fill="#414141"/>
        <path id="Trazado_4536" data-name="Trazado 4536" d="M69.5,279.446H65.946A1.948,1.948,0,0,1,64,277.5v-3.554A1.948,1.948,0,0,1,65.946,272H69.5a1.948,1.948,0,0,1,1.946,1.946V277.5A1.948,1.948,0,0,1,69.5,279.446Zm-3.554-6.092a.593.593,0,0,0-.592.592V277.5a.593.593,0,0,0,.592.592H69.5a.593.593,0,0,0,.592-.592v-3.554a.593.593,0,0,0-.592-.592Z" transform="translate(-64 -263.201)" fill="#414141"/>
        <path id="Trazado_4537" data-name="Trazado 4537" d="M277.5,71.446h-3.554A1.948,1.948,0,0,1,272,69.5V65.946A1.948,1.948,0,0,1,273.946,64H277.5a1.948,1.948,0,0,1,1.946,1.946V69.5A1.948,1.948,0,0,1,277.5,71.446Zm-3.554-6.092a.593.593,0,0,0-.592.592V69.5a.593.593,0,0,0,.592.592H277.5a.593.593,0,0,0,.592-.592V65.946a.593.593,0,0,0-.592-.592Z" transform="translate(-263.201 -64)" fill="#414141"/>
        <path id="Trazado_4538" data-name="Trazado 4538" d="M278.346,275.384h-1.608V273.1a1.1,1.1,0,0,0-1.1-1.1H273.1a1.1,1.1,0,0,0-1.1,1.1v2.538a1.1,1.1,0,0,0,1.1,1.1h2.284v1.608a1.1,1.1,0,0,0,1.1,1.1h1.861a1.1,1.1,0,0,0,1.1-1.1v-1.861A1.1,1.1,0,0,0,278.346,275.384Zm-4.992-2.031h2.031v2.031h-2.031Zm4.738,4.738h-1.354v-1.354h1.354Z" transform="translate(-263.201 -263.201)" fill="#09b59a"/>
        <path id="Trazado_4539" data-name="Trazado 4539" d="M129.354,130.031h-.677a.677.677,0,0,1-.677-.677v-.677a.677.677,0,0,1,.677-.677h.677a.677.677,0,0,1,.677.677v.677A.677.677,0,0,1,129.354,130.031Z" transform="translate(-125.292 -125.292)" fill="#414141"/>
        <path id="Trazado_4540" data-name="Trazado 4540" d="M337.354,130.031h-.677a.677.677,0,0,1-.677-.677v-.677a.677.677,0,0,1,.677-.677h.677a.677.677,0,0,1,.677.677v.677A.677.677,0,0,1,337.354,130.031Z" transform="translate(-324.493 -125.292)" fill="#414141"/>
        <path id="Trazado_4541" data-name="Trazado 4541" d="M129.354,338.031h-.677a.677.677,0,0,1-.677-.677v-.677a.677.677,0,0,1,.677-.677h.677a.677.677,0,0,1,.677.677v.677A.677.677,0,0,1,129.354,338.031Z" transform="translate(-125.292 -324.493)" fill="#414141"/>
      </g>
    </g>
  </g>
</svg>
