<?xml version="1.0" encoding="utf-8"?>
<!-- Generator: Adobe Illustrator 26.5.0, SVG Export Plug-In . SVG Version: 6.00 Build 0)  -->
<svg version="1.1" id="_1" xmlns="http://www.w3.org/2000/svg" xmlns:xlink="http://www.w3.org/1999/xlink" x="0px" y="0px"
	 viewBox="0 0 65 65" style="enable-background:new 0 0 65 65;" xml:space="preserve">
<style type="text/css">
	.st0{fill:#CEB8EF;}
	.st1{fill:#F5DC60;}
	.st2{fill:#EDC02D;}
	.st3{fill:#7E9F34;}
	.st4{fill:#8F80A4;}
	.st5{fill:#B8E151;}
	.st6{fill:#D4EAFD;}
	.st7{fill:#F8E794;}
	.st8{fill:#EBB830;}
	.st9{fill:#99C23F;}
	.st10{fill:#B1DAFD;}
	.st11{fill:#85AD30;}
</style>
<g>
	<path class="st6" d="M48.09,21.37V39.5h-24.5c-0.55,0-1,0.45-1,1s0.45,1,1,1h14.68v1.64c-0.55,0-1,0.45-1,1v11.09
		c0,2.09-1.7,3.81-3.81,3.81H9.42c-2.09,0-3.81-1.71-3.81-3.81V9.75c0-2.09,1.71-3.79,3.81-3.79h1.15v2.5c0,1.44,1.18,2.6,2.6,2.6
		H29.7c1.42,0,2.6-1.16,2.6-2.6v-2.5h1.15c2.11,0,3.81,1.7,3.81,3.79v7.35c0,0.55,0.45,1,1,1v1.26H23.58c-0.55,0-1,0.45-1,1
		s0.45,1,1,1H48.09z M45.61,34.31v-7.73c0-0.55-0.45-1-1-1c-0.7,0-1.26-0.57-1.26-1.26c0-0.55-0.45-1-1-1h-6.67c-0.55,0-1,0.45-1,1
		s0.45,1,1,1h5.83c0.32,0.99,1.12,1.79,2.11,2.11v6.05c-0.99,0.32-1.79,1.1-2.11,2.11h-5.83c-0.55,0-1,0.45-1,1s0.45,1,1,1h6.67
		c0.55,0,1-0.45,1-1c0-0.7,0.57-1.26,1.26-1.26C45.16,35.31,45.61,34.86,45.61,34.31z M41.08,30.44c0-0.55-0.44-1-1-1h-3.73
		c-0.55,0-1,0.45-1,1s0.45,1,1,1h3.73C40.64,31.45,41.08,30.99,41.08,30.44z M32.64,30.44c0-2.43-0.64-4.74-1.82-6.67
		c-0.29-0.47-0.92-0.61-1.38-0.32c-0.48,0.29-0.62,0.9-0.33,1.38c1,1.61,1.53,3.55,1.53,5.61c0,2.05-0.52,4-1.53,5.61
		c-0.29,0.47-0.15,1.09,0.33,1.38c0.16,0.1,0.35,0.15,0.52,0.15c0.33,0,0.67-0.17,0.86-0.48C32,35.17,32.64,32.87,32.64,30.44z
		 M31.78,56.03c0-0.55-0.45-1-1-1H10.74c-0.55,0-1,0.45-1,1s0.45,1,1,1h20.04C31.33,57.04,31.78,56.59,31.78,56.03z M26.74,32.45
		c0-1.66-1.42-3.01-3.15-3.01c-0.64,0-1.15-0.45-1.15-1s0.51-1,1.15-1c0.62,0,1.15,0.45,1.15,1s0.45,1,1,1s1-0.45,1-1
		c0-1.32-0.92-2.44-2.15-2.83c-0.01-0.55-0.47-0.99-1-0.99c-0.55,0-0.99,0.44-1,0.99c-1.25,0.39-2.15,1.51-2.15,2.83
		c0,1.66,1.41,3.01,3.15,3.01c0.62,0,1.15,0.45,1.15,1s-0.52,1-1.15,1c-0.64,0-1.15-0.45-1.15-1s-0.45-1-1-1s-1,0.45-1,1
		c0,1.32,0.9,2.43,2.15,2.83v0.09c0,0.55,0.45,1,1,1s1-0.45,1-1v-0.09C25.82,34.87,26.74,33.77,26.74,32.45z"/>
	<path class="st3" d="M15.89,40.57h31.64c0.65,0,1.18-0.53,1.18-1.18V21.83c0-0.65-0.53-1.18-1.18-1.18H15.89
		c-0.65,0-1.18,0.53-1.18,1.18v17.56C14.72,40.04,15.24,40.57,15.89,40.57z"/>
	<path d="M62.68,29.44c0.55,0,1,0.45,1,1s-0.45,1-1,1h-8.97c-0.55,0-1-0.45-1-1s0.45-1,1-1H62.68z"/>
	<path d="M58.18,22.3c0.55,0,1,0.45,1,1s-0.45,1-1,1h-5.07c-0.55,0-1-0.45-1-1s0.45-1,1-1H58.18z"/>
	<path d="M58.18,36.56c0.55,0,1,0.45,1,1s-0.45,1-1,1h-5.07c-0.55,0-1-0.45-1-1s0.45-1,1-1H58.18z"/>
	<path d="M50.09,20.37V40.5c0,0.55-0.45,1-1,1H38.26H23.58c-0.55,0-1-0.45-1-1s0.45-1,1-1h24.5V21.37h-24.5c-0.55,0-1-0.45-1-1
		s0.45-1,1-1h14.68h10.83C49.64,19.37,50.09,19.82,50.09,20.37z"/>
	<path d="M45.61,26.58v7.73c0,0.55-0.45,1-1,1c-0.7,0-1.26,0.57-1.26,1.26c0,0.55-0.45,1-1,1h-6.67c-0.55,0-1-0.45-1-1s0.45-1,1-1
		h5.83c0.32-1,1.12-1.79,2.11-2.11v-6.05c-0.99-0.32-1.79-1.12-2.11-2.11h-5.83c-0.55,0-1-0.45-1-1s0.45-1,1-1h6.67
		c0.55,0,1,0.45,1,1c0,0.7,0.57,1.26,1.26,1.26C45.16,25.57,45.61,26.03,45.61,26.58z"/>
	<path d="M40.08,29.44c0.57,0,1,0.45,1,1s-0.44,1-1,1h-3.73c-0.55,0-1-0.45-1-1s0.45-1,1-1H40.08z"/>
	<path d="M39.26,44.15v11.09c0,3.2-2.6,5.8-5.81,5.8H9.42c-3.21,0-5.81-2.6-5.81-5.8V9.75c0-3.2,2.6-5.8,5.81-5.8h2.15H31.3h2.15
		c3.21,0,5.81,2.6,5.81,5.8v7.35c0,0.55-0.45,1-1,1s-1-0.45-1-1V9.75c0-2.09-1.7-3.79-3.81-3.79H32.3v2.5c0,1.44-1.18,2.6-2.6,2.6
		H13.17c-1.42,0-2.6-1.16-2.6-2.6v-2.5H9.42c-2.09,0-3.81,1.7-3.81,3.79v45.48c0,2.09,1.71,3.81,3.81,3.81h24.04
		c2.11,0,3.81-1.71,3.81-3.81V44.15c0-0.55,0.45-1,1-1S39.26,43.59,39.26,44.15z M30.3,8.46v-2.5H12.57v2.5c0,0.33,0.28,0.6,0.6,0.6
		H29.7C30.02,9.05,30.3,8.79,30.3,8.46z"/>
	<path d="M30.82,23.77c1.18,1.93,1.82,4.24,1.82,6.67S32,35.17,30.82,37.1c-0.19,0.31-0.52,0.48-0.86,0.48
		c-0.17,0-0.36-0.04-0.52-0.15c-0.48-0.29-0.62-0.92-0.33-1.38c1-1.61,1.53-3.56,1.53-5.61c0-2.06-0.52-4-1.53-5.61
		c-0.29-0.48-0.15-1.09,0.33-1.38C29.91,23.16,30.53,23.31,30.82,23.77z"/>
	<path d="M30.78,55.03c0.55,0,1,0.45,1,1s-0.45,1-1,1H10.74c-0.55,0-1-0.45-1-1s0.45-1,1-1H30.78z"/>
	<path class="st4" d="M30.3,5.96v2.5c0,0.33-0.28,0.6-0.6,0.6H13.17c-0.32,0-0.6-0.26-0.6-0.6v-2.5H30.3z"/>
	<path d="M23.58,29.44c1.73,0,3.15,1.35,3.15,3.01c0,1.32-0.92,2.43-2.15,2.83v0.09c0,0.55-0.45,1-1,1s-1-0.45-1-1v-0.09
		c-1.25-0.41-2.15-1.51-2.15-2.83c0-0.55,0.45-1,1-1s1,0.45,1,1s0.51,1,1.15,1c0.62,0,1.15-0.45,1.15-1s-0.52-1-1.15-1
		c-1.74,0-3.15-1.35-3.15-3.01c0-1.32,0.9-2.44,2.15-2.83c0.01-0.55,0.45-0.99,1-0.99c0.54,0,0.99,0.44,1,0.99
		c1.24,0.39,2.15,1.51,2.15,2.83c0,0.55-0.45,1-1,1s-1-0.45-1-1s-0.52-1-1.15-1c-0.64,0-1.15,0.45-1.15,1S22.95,29.44,23.58,29.44z"
		/>
</g>
</svg>
