<?xml version="1.0" encoding="utf-8"?>
<!-- Generator: Adobe Illustrator 26.5.0, SVG Export Plug-In . SVG Version: 6.00 Build 0)  -->
<svg version="1.1" id="_1" xmlns="http://www.w3.org/2000/svg" xmlns:xlink="http://www.w3.org/1999/xlink" x="0px" y="0px"
	 viewBox="0 0 65 65" style="enable-background:new 0 0 65 65;" xml:space="preserve">
<style type="text/css">
	.st0{fill:#CEB8EF;}
	.st1{fill:#F5DC60;}
	.st2{fill:#EDC02D;}
	.st3{fill:#7E9F34;}
	.st4{fill:#8F80A4;}
	.st5{fill:#B8E151;}
	.st6{fill:#D4EAFD;}
	.st7{fill:#F8E794;}
	.st8{fill:#EBB830;}
	.st9{fill:#99C23F;}
	.st10{fill:#B1DAFD;}
	.st11{fill:#85AD30;}
</style>
<g>
	<path d="M50.16,52.55c0,0.13,0,4.6,0,4.6c0,3.51-2.85,6.37-6.35,6.37H21.21c-3.51,0-6.37-2.85-6.37-6.37V7.84
		c0-3.51,2.85-6.35,6.37-6.35h2.33h17.93h2.34c3.5,0,6.35,2.84,6.35,6.35V52.55z M47.88,57.15v-4.47c0-0.05,0-5.26,0-12.11
		c0-3.83,0-8.16,0-12.39c0-10.47,0-20.35,0-20.35c0-2.26-1.83-4.09-4.07-4.09h-1.2v2.67c0,1.58-1.29,2.87-2.87,2.87H25.28
		c-1.6,0-2.89-1.29-2.89-2.87V3.75h-1.19c-2.26,0-4.09,1.83-4.09,4.09v20.35v12.4v16.56c0,2.26,1.83,4.09,4.09,4.09h22.59
		C46.05,61.24,47.88,59.41,47.88,57.15z M40.33,6.42V3.75H24.67v2.67c0,0.33,0.26,0.61,0.61,0.61h14.45
		C40.06,7.03,40.33,6.75,40.33,6.42z"/>
	<path class="st6" d="M47.88,52.68v4.47c0,2.26-1.83,4.09-4.07,4.09H21.21c-2.26,0-4.09-1.83-4.09-4.09V40.59h2.13
		c0,0.16,0.03,0.35,0.12,0.51c2.54,4.96,7.57,8.05,13.14,8.05c5.56,0,10.59-3.08,13.13-8.05c0.08-0.16,0.13-0.35,0.13-0.53h2.11
		C47.88,47.42,47.88,52.63,47.88,52.68z M43.64,58.02c0-0.63-0.51-1.14-1.14-1.14H22.51c-0.64,0-1.14,0.51-1.14,1.14
		s0.49,1.14,1.14,1.14H42.5C43.13,59.16,43.64,58.65,43.64,58.02z"/>
	<path class="st6" d="M47.88,7.84c0,0,0,9.88,0,20.35h-2.11c0-0.16-0.05-0.35-0.13-0.51c-2.54-4.96-7.57-8.05-13.13-8.05
		c-5.57,0-10.6,3.08-13.14,8.05c-0.08,0.16-0.12,0.35-0.12,0.51h-2.13V7.84c0-2.26,1.83-4.09,4.09-4.09h1.19v2.67
		c0,1.58,1.29,2.87,2.89,2.87h14.45c1.58,0,2.87-1.29,2.87-2.87V3.75h1.2C46.05,3.75,47.88,5.58,47.88,7.84z"/>
	<path d="M45.64,27.68c0.08,0.16,0.13,0.35,0.13,0.51c0,0.41-0.23,0.81-0.63,1.02c-0.16,0.08-0.33,0.12-0.51,0.12
		c-0.41,0-0.81-0.23-1.01-0.61c-2.14-4.17-6.37-6.79-11.03-6.83c-0.03,0-0.05,0-0.08,0c-4.72,0-8.97,2.62-11.12,6.83
		c-0.3,0.56-0.97,0.78-1.53,0.49c-0.4-0.21-0.61-0.61-0.61-1.02c0-0.16,0.03-0.35,0.12-0.51c2.54-4.96,7.57-8.05,13.14-8.05
		C38.07,19.63,43.1,22.71,45.64,27.68z"/>
	<path d="M45.77,40.57c0,0.18-0.05,0.36-0.13,0.53c-2.54,4.96-7.57,8.05-13.13,8.05c-5.57,0-10.6-3.08-13.14-8.05
		c-0.08-0.16-0.12-0.35-0.12-0.51c0-0.43,0.21-0.82,0.61-1.02c0.56-0.28,1.24-0.07,1.53,0.49c2.14,4.21,6.4,6.81,11.12,6.81
		c0.03,0,0.05,0,0.08,0c4.67-0.03,8.89-2.64,11.03-6.81c0.28-0.56,0.97-0.78,1.52-0.49C45.54,39.76,45.77,40.16,45.77,40.57z"/>
	<path class="st4" d="M40.33,3.75v2.67c0,0.33-0.26,0.61-0.59,0.61H25.28c-0.35,0-0.61-0.28-0.61-0.61V3.75H40.33z"/>
</g>
<path class="st6" d="M42.74,59.89H22.26c-2.84,0-5.14-2.3-5.14-5.14V19.3c0-2.84,2.3-5.14,5.14-5.14h20.49
	c2.84,0,5.14,2.3,5.14,5.14v35.46C47.88,57.59,45.58,59.89,42.74,59.89z"/>
<g>
	<path d="M45.65,23.97v7.81c0,1.24-1.01,2.25-2.25,2.25h-2.75c-0.29,0-0.54-0.24-0.54-0.54c0-0.29,0.24-0.54,0.54-0.54h2.75
		c0.65,0,1.18-0.53,1.18-1.18v-7.81c0-0.65-0.53-1.18-1.18-1.18H22.01c-0.65,0-1.18,0.53-1.18,1.18v7.81c0,0.65,0.53,1.18,1.18,1.18
		h2.75c0.29,0,0.54,0.24,0.54,0.54c0,0.29-0.24,0.54-0.54,0.54h-2.75c-1.24,0-2.24-1.01-2.24-2.25v-7.81c0-1.24,1-2.25,2.24-2.25
		H43.4C44.64,21.72,45.65,22.73,45.65,23.97z"/>
	<path class="st0" d="M44.58,23.97v7.81c0,0.65-0.53,1.18-1.18,1.18h-2.75c-0.29,0-0.54,0.24-0.54,0.54h-0.93v-4.82
		c0-0.29-0.24-0.54-0.54-0.54c-0.29,0-0.54,0.24-0.54,0.54v0.99h-1.25c0-0.18-0.09-0.35-0.26-0.45c-1.13-0.7-2.48-1.07-3.9-1.07
		c-1.43,0-2.77,0.37-3.9,1.07c-0.16,0.1-0.26,0.28-0.26,0.46H27.3v-0.99c0-0.29-0.23-0.54-0.54-0.54c-0.29,0-0.53,0.24-0.53,0.54
		v4.82H25.3c0-0.29-0.24-0.54-0.54-0.54h-2.75c-0.65,0-1.18-0.53-1.18-1.18v-7.81c0-0.65,0.53-1.18,1.18-1.18H43.4
		C44.05,22.79,44.58,23.32,44.58,23.97z M41.81,28.9c0.15-0.33,0.23-0.68,0.23-1.03c0-1.34-1.09-2.44-2.43-2.44H25.8
		c-1.34,0-2.43,1.09-2.43,2.44c0,0.36,0.08,0.71,0.23,1.03c0.12,0.26,0.44,0.38,0.71,0.26c0.26-0.12,0.38-0.44,0.26-0.71
		c-0.09-0.18-0.12-0.37-0.12-0.57c0-0.75,0.61-1.37,1.36-1.37h13.8c0.75,0,1.36,0.61,1.36,1.37c0,0.2-0.04,0.4-0.12,0.57
		c-0.12,0.27-0.01,0.59,0.26,0.71c0.08,0.03,0.16,0.05,0.23,0.05C41.52,29.21,41.72,29.1,41.81,28.9z"/>
	<path d="M42.63,36.83v14.82c0,0.29-0.23,0.54-0.54,0.54h-4.08v2.47l0.38-0.51c0.18-0.23,0.51-0.28,0.75-0.1
		c0.23,0.18,0.28,0.51,0.1,0.74l-1.34,1.78c-0.1,0.13-0.26,0.22-0.43,0.22s-0.33-0.09-0.43-0.22l-1.34-1.78
		c-0.18-0.23-0.13-0.57,0.1-0.74c0.24-0.18,0.57-0.13,0.75,0.1l0.38,0.51v-3c0-0.29,0.24-0.54,0.54-0.54h4.09V36.83
		c0-0.29,0.23-0.53,0.53-0.53C42.4,36.3,42.63,36.53,42.63,36.83z"/>
	<path d="M42.03,27.87c0,0.36-0.08,0.71-0.23,1.03c-0.09,0.19-0.29,0.3-0.49,0.3c-0.07,0-0.15-0.02-0.23-0.05
		c-0.26-0.12-0.38-0.44-0.26-0.71c0.09-0.18,0.12-0.37,0.12-0.57c0-0.75-0.61-1.37-1.36-1.37H25.8c-0.75,0-1.36,0.61-1.36,1.37
		c0,0.2,0.04,0.4,0.12,0.57c0.12,0.27,0.01,0.59-0.26,0.71c-0.27,0.12-0.59,0.01-0.71-0.26c-0.15-0.33-0.23-0.68-0.23-1.03
		c0-1.34,1.09-2.44,2.43-2.44h13.8C40.95,25.44,42.03,26.53,42.03,27.87z"/>
	<path d="M39.18,33.49v14.98c0,0.29-0.24,0.54-0.54,0.54H26.76c-0.29,0-0.53-0.24-0.53-0.54V33.49v-4.82c0-0.29,0.23-0.54,0.53-0.54
		c0.3,0,0.54,0.24,0.54,0.54v0.99v18.27h10.81V29.66v-0.99c0-0.29,0.24-0.54,0.54-0.54c0.29,0,0.54,0.24,0.54,0.54V33.49z"/>
	<path class="st3" d="M38.11,29.66v18.27H27.3V29.66h1.25c0,0.09,0.02,0.19,0.08,0.27c0.16,0.26,0.49,0.33,0.74,0.18
		c0.96-0.59,2.12-0.91,3.34-0.91c1.22,0,2.37,0.32,3.34,0.91c0.09,0.05,0.19,0.08,0.28,0.08c0.18,0,0.36-0.09,0.46-0.26
		c0.05-0.09,0.08-0.18,0.08-0.28H38.11z M36.86,44.49v-3.94c0-0.29-0.24-0.54-0.54-0.54c-0.29,0-0.54,0.24-0.54,0.54v3.48
		c-0.61,0.18-1.08,0.66-1.26,1.26h-3.65c-0.19-0.6-0.66-1.08-1.26-1.26v-3.48c0-0.29-0.24-0.54-0.54-0.54s-0.54,0.24-0.54,0.54v3.94
		c0,0.29,0.24,0.54,0.54,0.54c0.44,0,0.81,0.36,0.81,0.8c0,0.29,0.24,0.54,0.54,0.54h4.55c0.29,0,0.54-0.24,0.54-0.54
		c0-0.44,0.36-0.8,0.81-0.8C36.62,45.03,36.86,44.79,36.86,44.49z M36.46,37.73c0.26-0.15,0.34-0.48,0.19-0.74
		c-0.15-0.26-0.47-0.34-0.73-0.19c-0.94,0.54-2.06,0.83-3.22,0.83c-1.23,0-2.38-0.31-3.34-0.9c-0.25-0.16-0.58-0.08-0.74,0.17
		c-0.16,0.25-0.08,0.58,0.18,0.74c1.13,0.7,2.48,1.06,3.9,1.06C34.07,38.7,35.36,38.36,36.46,37.73z M36.08,33.42
		c0-0.29-0.24-0.54-0.54-0.54h-0.03c-0.22-0.73-0.86-1.26-1.63-1.26c-0.95,0-1.71,0.81-1.71,1.8c0,0.4-0.29,0.74-0.65,0.74
		s-0.64-0.33-0.64-0.74s0.29-0.73,0.64-0.73c0.29,0,0.54-0.24,0.54-0.54c0-0.29-0.24-0.54-0.54-0.54c-0.77,0-1.41,0.54-1.63,1.26
		H29.8c-0.29,0-0.54,0.24-0.54,0.54s0.24,0.54,0.54,0.54h0.09c0.22,0.74,0.86,1.27,1.63,1.27c0.95,0,1.71-0.81,1.71-1.81
		c0-0.4,0.29-0.73,0.65-0.73s0.64,0.33,0.64,0.73s-0.29,0.74-0.64,0.74c-0.29,0-0.54,0.24-0.54,0.54c0,0.29,0.24,0.54,0.54,0.54
		c0.77,0,1.41-0.54,1.63-1.27h0.03C35.84,33.96,36.08,33.72,36.08,33.42z M33.24,43.16v-2.21c0-0.29-0.23-0.54-0.53-0.54
		c-0.3,0-0.54,0.24-0.54,0.54v2.21c0,0.29,0.23,0.54,0.54,0.54C33,43.69,33.24,43.45,33.24,43.16z"/>
	<path d="M36.86,40.55v3.94c0,0.29-0.24,0.54-0.54,0.54c-0.44,0-0.81,0.36-0.81,0.8c0,0.29-0.24,0.54-0.54,0.54h-4.55
		c-0.29,0-0.54-0.24-0.54-0.54c0-0.44-0.36-0.8-0.81-0.8c-0.29,0-0.54-0.24-0.54-0.54v-3.94c0-0.29,0.24-0.54,0.54-0.54
		s0.54,0.24,0.54,0.54v3.48c0.61,0.18,1.08,0.66,1.26,1.26h3.65c0.18-0.6,0.65-1.08,1.26-1.26v-3.48c0-0.29,0.24-0.54,0.54-0.54
		C36.62,40.02,36.86,40.26,36.86,40.55z"/>
	<path d="M36.86,29.66c0,0.1-0.02,0.19-0.08,0.28c-0.1,0.17-0.28,0.26-0.46,0.26c-0.09,0-0.19-0.02-0.28-0.08
		c-0.96-0.59-2.12-0.91-3.34-0.91c-1.23,0-2.38,0.32-3.34,0.91c-0.25,0.16-0.58,0.08-0.74-0.18c-0.05-0.09-0.08-0.18-0.08-0.27
		c0-0.18,0.09-0.36,0.26-0.46c1.13-0.7,2.48-1.07,3.9-1.07c1.42,0,2.77,0.37,3.9,1.07C36.77,29.31,36.86,29.48,36.86,29.66z"/>
	<path d="M36.66,36.99c0.15,0.26,0.06,0.59-0.19,0.74c-1.1,0.64-2.4,0.98-3.76,0.98c-1.43,0-2.78-0.36-3.9-1.06
		c-0.26-0.16-0.33-0.49-0.18-0.74c0.16-0.25,0.49-0.33,0.74-0.17c0.96,0.59,2.12,0.9,3.34,0.9c1.16,0,2.28-0.29,3.22-0.83
		C36.18,36.65,36.51,36.73,36.66,36.99z"/>
	<path d="M35.55,32.89c0.29,0,0.54,0.24,0.54,0.54s-0.24,0.54-0.54,0.54h-0.03c-0.22,0.74-0.86,1.27-1.63,1.27
		c-0.29,0-0.54-0.24-0.54-0.54c0-0.29,0.24-0.54,0.54-0.54c0.36,0,0.64-0.33,0.64-0.74s-0.29-0.73-0.64-0.73s-0.65,0.33-0.65,0.73
		c0,0.99-0.77,1.81-1.71,1.81c-0.77,0-1.41-0.54-1.63-1.27H29.8c-0.29,0-0.54-0.24-0.54-0.54s0.24-0.54,0.54-0.54h0.09
		c0.22-0.73,0.86-1.26,1.63-1.26c0.29,0,0.54,0.24,0.54,0.54c0,0.29-0.24,0.54-0.54,0.54c-0.36,0-0.64,0.33-0.64,0.73
		s0.29,0.74,0.64,0.74s0.65-0.33,0.65-0.74c0-0.99,0.77-1.8,1.71-1.8c0.77,0,1.41,0.54,1.63,1.26H35.55z"/>
	<path d="M33.24,40.95v2.21c0,0.29-0.23,0.54-0.53,0.54c-0.3,0-0.54-0.24-0.54-0.54v-2.21c0-0.29,0.23-0.54,0.54-0.54
		C33,40.41,33.24,40.65,33.24,40.95z"/>
	<path d="M29.6,54.04c0.23,0.18,0.28,0.51,0.1,0.74l-1.34,1.78c-0.1,0.13-0.26,0.21-0.43,0.21c-0.17,0-0.33-0.08-0.43-0.21
		l-1.34-1.78c-0.18-0.23-0.13-0.57,0.1-0.74c0.24-0.18,0.57-0.13,0.75,0.1l0.38,0.51v-2.48h-4.08c-0.29,0-0.54-0.23-0.54-0.53V36.83
		c0-0.29,0.24-0.54,0.54-0.54s0.54,0.24,0.54,0.54v14.29h4.08c0.29,0,0.54,0.23,0.54,0.54v3l0.38-0.51
		C29.02,53.91,29.36,53.86,29.6,54.04z"/>
</g>
</svg>
