<?xml version="1.0" encoding="utf-8"?>
<!-- Generator: Adobe Illustrator 26.5.0, SVG Export Plug-In . SVG Version: 6.00 Build 0)  -->
<svg version="1.1" id="_1" xmlns="http://www.w3.org/2000/svg" xmlns:xlink="http://www.w3.org/1999/xlink" x="0px" y="0px"
	 viewBox="0 0 65 65" style="enable-background:new 0 0 65 65;" xml:space="preserve">
<style type="text/css">
	.st0{fill:#CEB8EF;}
	.st1{fill:#F5DC60;}
	.st2{fill:#EDC02D;}
	.st3{fill:#7E9F34;}
	.st4{fill:#8F80A4;}
	.st5{fill:#B8E151;}
	.st6{fill:#D4EAFD;}
	.st7{fill:#F8E794;}
	.st8{fill:#EBB830;}
	.st9{fill:#99C23F;}
	.st10{fill:#B1DAFD;}
	.st11{fill:#85AD30;}
</style>
<g>
	<path d="M62.51,15.98v33.45c0,2.26-1.83,4.09-4.08,4.09h-17.9c-2.24,0-4.08-1.83-4.08-4.09v-2.34c0-0.14,0.03-0.27,0.07-0.38
		c0.16-0.35,0.51-0.59,0.9-0.59c0.54,0,0.97,0.44,0.97,0.97v2.34c0,1.18,0.96,2.14,2.13,2.14h17.9c1.17,0,2.13-0.96,2.13-2.14V37.18
		v-21.2c0-1.17-0.96-2.13-2.13-2.13h-1.62v3.05c0,0.54-0.44,0.97-0.97,0.97H43.13c-0.54,0-0.97-0.44-0.97-0.97v-3.05h-1.62
		c-1.17,0-2.13,0.96-2.13,2.13v5.94c0,0.54-0.44,0.97-0.97,0.97s-0.97-0.44-0.97-0.97v-5.94c0-2.24,1.83-4.08,4.08-4.08h2.6h12.71
		h2.6C60.68,11.9,62.51,13.73,62.51,15.98z M54.86,15.92v-2.07H44.1v2.07H54.86z"/>
	<path class="st6" d="M60.56,37.18v12.24c0,1.18-0.96,2.14-2.13,2.14h-17.9c-1.17,0-2.13-0.96-2.13-2.14v-2.34
		c0-0.54-0.44-0.97-0.97-0.97c-0.39,0-0.75,0.24-0.9,0.59l-0.9-2.47c3.58-1.13,6.33-4.15,7.1-7.87l3.31,0.62
		c-0.01,0.07-0.01,0.13-0.01,0.2c0,0.54,0.44,0.97,0.97,0.97h6.67c-0.11,0.31-0.07,0.66,0.16,0.95c0.2,0.23,0.48,0.35,0.75,0.35
		c0.23,0,0.44-0.08,0.62-0.23l1.57-1.3c0-0.01,0.01-0.03,0.01-0.03c0.07-0.07,0.13-0.16,0.18-0.23c0.01-0.04,0.04-0.07,0.06-0.1
		c0.06-0.13,0.08-0.25,0.08-0.39H60.56z"/>
	<path class="st6" d="M60.56,15.98v21.2h-3.47c0-0.14-0.03-0.28-0.08-0.39c-0.01-0.04-0.04-0.06-0.06-0.1
		c-0.06-0.08-0.11-0.16-0.18-0.23c0,0-0.01-0.01-0.01-0.03l-1.57-1.3c-0.41-0.34-1.02-0.28-1.37,0.13
		c-0.23,0.27-0.27,0.63-0.16,0.95h-6.67c-0.47,0-0.86,0.34-0.96,0.78l-3.31-0.62c0.14-0.68,0.21-1.38,0.21-2.1
		c0-4.32-2.62-8.03-6.35-9.62l0.85-1.75c0.54,0,0.97-0.44,0.97-0.97v-5.94c0-1.17,0.96-2.13,2.13-2.13h1.62v3.05
		c0,0.54,0.44,0.97,0.97,0.97h12.71c0.54,0,0.97-0.44,0.97-0.97v-3.05h1.62C59.6,13.85,60.56,14.81,60.56,15.98z M57.09,31.34
		c0-0.54-0.42-0.97-0.96-0.97h-9.14c-0.54,0-0.97,0.44-0.97,0.97s0.44,0.97,0.97,0.97h9.14C56.67,32.31,57.09,31.87,57.09,31.34z"/>
	<path d="M57.01,36.78c0.06,0.11,0.08,0.25,0.08,0.39s-0.03,0.27-0.08,0.39c-0.01,0.03-0.04,0.06-0.06,0.1
		c-0.06,0.07-0.11,0.16-0.18,0.23c0,0-0.01,0.01-0.01,0.03l-1.57,1.3c-0.18,0.14-0.39,0.23-0.62,0.23c-0.27,0-0.55-0.13-0.75-0.35
		c-0.23-0.28-0.27-0.63-0.16-0.95h-6.67c-0.54,0-0.97-0.44-0.97-0.97c0-0.07,0-0.13,0.01-0.2c0.1-0.44,0.49-0.78,0.96-0.78h6.67
		c-0.11-0.31-0.07-0.68,0.16-0.95c0.35-0.41,0.96-0.47,1.37-0.13l1.57,1.3c0,0.01,0.01,0.03,0.01,0.03
		c0.07,0.07,0.13,0.14,0.18,0.23C56.97,36.73,56.99,36.74,57.01,36.78z"/>
	<path d="M56.13,30.36c0.54,0,0.96,0.44,0.96,0.97s-0.42,0.97-0.96,0.97h-9.14c-0.54,0-0.97-0.44-0.97-0.97s0.44-0.97,0.97-0.97
		H56.13z"/>
	<rect x="44.1" y="13.85" class="st4" width="10.76" height="2.07"/>
	<path d="M42.93,34.26c0,0.72-0.07,1.42-0.21,2.1c-0.76,3.72-3.51,6.74-7.1,7.87c-0.99,0.3-2.03,0.47-3.12,0.47
		c-1.44,0-2.81-0.3-4.06-0.82c-2.81-1.2-4.99-3.58-5.91-6.52c-0.3-0.99-0.47-2.02-0.47-3.1c0-4.32,2.64-8.03,6.38-9.62
		c1.26-0.52,2.62-0.82,4.06-0.82c1.44,0,2.82,0.3,4.08,0.82C40.31,26.23,42.93,29.94,42.93,34.26z M41,34.26
		c0-4.68-3.81-8.49-8.49-8.49s-8.49,3.81-8.49,8.49s3.81,8.49,8.49,8.49S41,38.94,41,34.26z"/>
	<path class="st1" d="M32.51,25.77c4.68,0,8.49,3.81,8.49,8.49s-3.81,8.49-8.49,8.49s-8.49-3.81-8.49-8.49S27.82,25.77,32.51,25.77z
		 M35.06,32.68c0.54,0,0.96-0.44,0.96-0.97c0-1.61-1.07-2.95-2.54-3.37v-0.27c0-0.54-0.44-0.97-0.97-0.97s-0.97,0.44-0.97,0.97v0.27
		c-1.47,0.42-2.55,1.76-2.55,3.37c0,1.95,1.58,3.53,3.53,3.53c0.86,0,1.58,0.71,1.58,1.58c0,0.87-0.72,1.58-1.58,1.58
		c-0.87,0-1.58-0.71-1.58-1.58c0-0.54-0.44-0.97-0.97-0.97s-0.97,0.44-0.97,0.97c0,1.61,1.09,2.95,2.55,3.37v0.27
		c0,0.54,0.44,0.97,0.97,0.97s0.97-0.44,0.97-0.97v-0.27c1.47-0.42,2.54-1.76,2.54-3.37c0-1.95-1.58-3.53-3.51-3.53
		c-0.87,0-1.58-0.71-1.58-1.58c0-0.87,0.71-1.58,1.58-1.58c0.86,0,1.58,0.71,1.58,1.58C34.09,32.24,34.52,32.68,35.06,32.68z"/>
	<path d="M36.02,31.7c0,0.54-0.42,0.97-0.96,0.97s-0.97-0.44-0.97-0.97c0-0.87-0.72-1.58-1.58-1.58c-0.87,0-1.58,0.71-1.58,1.58
		c0,0.87,0.71,1.58,1.58,1.58c1.93,0,3.51,1.58,3.51,3.53c0,1.61-1.07,2.95-2.54,3.37v0.27c0,0.54-0.44,0.97-0.97,0.97
		s-0.97-0.44-0.97-0.97v-0.27c-1.47-0.42-2.55-1.76-2.55-3.37c0-0.54,0.44-0.97,0.97-0.97s0.97,0.44,0.97,0.97
		c0,0.87,0.71,1.58,1.58,1.58c0.86,0,1.58-0.71,1.58-1.58c0-0.87-0.72-1.58-1.58-1.58c-1.95,0-3.53-1.58-3.53-3.53
		c0-1.61,1.09-2.95,2.55-3.37v-0.27c0-0.54,0.44-0.97,0.97-0.97s0.97,0.44,0.97,0.97v0.27C34.95,28.76,36.02,30.1,36.02,31.7z"/>
	<path d="M28.54,47.08v2.34c0,2.26-1.83,4.09-4.08,4.09H6.58c-2.26,0-4.09-1.83-4.09-4.09V15.98c0-2.24,1.83-4.08,4.09-4.08h2.58
		h12.71h2.6c2.24,0,4.08,1.83,4.08,4.08v5.94c0,0.54-0.44,0.97-0.97,0.97c-0.54,0-0.97-0.44-0.97-0.97v-5.94
		c0-1.17-0.96-2.13-2.13-2.13h-1.62v3.05c0,0.54-0.44,0.97-0.97,0.97H9.16c-0.54,0-0.97-0.44-0.97-0.97v-3.05H6.58
		c-1.18,0-2.14,0.96-2.14,2.13v15.36v18.08c0,1.18,0.96,2.14,2.14,2.14h17.89c1.17,0,2.13-0.96,2.13-2.14v-2.34
		c0-0.54,0.44-0.97,0.97-0.97C28.11,46.11,28.54,46.54,28.54,47.08z M20.9,15.92v-2.07H10.14v2.07H20.9z"/>
	<path class="st6" d="M27.57,22.89l0.87,1.75c-3.74,1.59-6.38,5.3-6.38,9.62c0,1.09,0.17,2.12,0.47,3.1l-3.54-0.18
		c0-0.54-0.44-0.97-0.97-0.97H10.4v-2.6c0.27,0,0.55-0.11,0.75-0.35c0.23-0.27,0.25-0.62,0.14-0.95h6.73c0.54,0,0.97-0.44,0.97-0.97
		s-0.44-0.97-0.97-0.97h-6.73c0.11-0.31,0.08-0.66-0.14-0.95c-0.35-0.41-0.96-0.47-1.37-0.11l-1.57,1.28
		c-0.21,0.2-0.35,0.47-0.35,0.75H4.44V15.98c0-1.17,0.96-2.13,2.14-2.13h1.61v3.05c0,0.54,0.44,0.97,0.97,0.97h12.71
		c0.54,0,0.97-0.44,0.97-0.97v-3.05h1.62c1.17,0,2.13,0.96,2.13,2.13v5.94C26.6,22.45,27.03,22.89,27.57,22.89z"/>
	<path class="st6" d="M28.44,43.88l-0.87,2.23c-0.54,0-0.97,0.44-0.97,0.97v2.34c0,1.18-0.96,2.14-2.13,2.14H6.58
		c-1.18,0-2.14-0.96-2.14-2.14V31.34h3.43c0,0.3,0.14,0.56,0.35,0.75l1.57,1.3c0.17,0.16,0.39,0.23,0.62,0.23v2.6H8.88
		c-0.54,0-0.97,0.44-0.97,0.97s0.44,0.97,0.97,0.97h9.14c0.54,0,0.97-0.44,0.97-0.97l3.54,0.18C23.45,40.3,25.64,42.68,28.44,43.88z
		"/>
	<rect x="10.14" y="13.85" class="st4" width="10.76" height="2.07"/>
	<path d="M18.02,30.36c0.54,0,0.97,0.44,0.97,0.97s-0.44,0.97-0.97,0.97h-6.73c0.11,0.32,0.08,0.68-0.14,0.95
		c-0.2,0.24-0.48,0.35-0.75,0.35c-0.23,0-0.45-0.07-0.62-0.23l-1.57-1.3c-0.21-0.18-0.35-0.45-0.35-0.75c0-0.28,0.14-0.55,0.35-0.75
		l1.57-1.28c0.41-0.35,1.02-0.3,1.37,0.11c0.23,0.28,0.25,0.63,0.14,0.95H18.02z"/>
	<path d="M18.02,36.2c0.54,0,0.97,0.44,0.97,0.97s-0.44,0.97-0.97,0.97H8.88c-0.54,0-0.97-0.44-0.97-0.97s0.44-0.97,0.97-0.97h1.52
		H18.02z"/>
</g>
</svg>
