<svg xmlns="http://www.w3.org/2000/svg" width="60" height="60" viewBox="0 0 60 60">
  <g id="Grupo_1769" data-name="Grupo 1769" transform="translate(-28 -258)">
    <g id="Grupo_1765" data-name="Grupo 1765" transform="translate(0 10)">
      <rect id="Rectángulo_354" data-name="Rectángulo 354" width="60" height="60" rx="7" transform="translate(28 248)" fill="#f7f7f7"/>
      <text id="Ingresar_dinero" data-name="Ingresar 
dinero" transform="translate(58 291)" fill="#414141" font-size="10" font-family="Rubik-Regular, Rubik"><tspan x="-20.35" y="0">Ingresar </tspan><tspan x="-14.735" y="10">dinero</tspan></text>
    </g>
    <path id="Trazado_4594" data-name="Trazado 4594" d="M-653.882,442.157v6.374a.766.766,0,0,0,.767.767h0a.766.766,0,0,0,.767-.767v-6.374c0-.005.005-.005.005,0l2.522,2.522a.763.763,0,0,0,1.085,0,.763.763,0,0,0,0-1.085l-3.837-3.837a.763.763,0,0,0-1.085,0l-3.837,3.837a.772.772,0,0,0-.225.542.772.772,0,0,0,.261.578.783.783,0,0,0,1.064-.051l2.512-2.507Z" transform="translate(710.757 -158.651)" fill="#09b59a"/>
    <path id="Trazado_4595" data-name="Trazado 4595" d="M-732.368,190.332V179.923a2.791,2.791,0,0,0-2.788-2.788h-13.755a2.791,2.791,0,0,0-2.788,2.788v10.409a2.791,2.791,0,0,0,2.788,2.788h4.393v0a.558.558,0,0,0,.493-.554.558.558,0,0,0-.493-.554v0h-4.393a1.675,1.675,0,0,1-1.673-1.673V179.923a1.675,1.675,0,0,1,1.673-1.673h13.755a1.675,1.675,0,0,1,1.673,1.673v2.416h-4.089a2.791,2.791,0,0,0-2.788,2.788,2.791,2.791,0,0,0,2.788,2.788h4.089v2.416A1.675,1.675,0,0,1-735.156,192h-3.827a.558.558,0,0,0-.558.558.558.558,0,0,0,.552.558h3.834A2.791,2.791,0,0,0-732.368,190.332Zm-1.115-3.532h-4.089a1.675,1.675,0,0,1-1.673-1.673,1.675,1.675,0,0,1,1.673-1.673h4.089Z" transform="translate(799.407 88.865)" fill="#414141"/>
  </g>
</svg>
