<svg id="Grupo_1541" data-name="Grupo 1541" xmlns="http://www.w3.org/2000/svg" xmlns:xlink="http://www.w3.org/1999/xlink" width="138" height="138" viewBox="0 0 138 138">
  <defs>
    <clipPath id="clip-path">
      <rect id="Rectángulo_265" data-name="Rectángulo 265" width="138" height="138" fill="none"/>
    </clipPath>
  </defs>
  <g id="Grupo_1540" data-name="Grupo 1540" clip-path="url(#clip-path)">
    <path id="Trazado_3562" data-name="Trazado 3562" d="M130.378,156.9A33.016,33.016,0,0,1,97.4,123.923v-18.34a32.978,32.978,0,0,1,65.957,0v18.34A33.016,33.016,0,0,1,130.378,156.9" transform="translate(-61.378 -45.753)" fill="#0d0043"/>
    <path id="Trazado_3563" data-name="Trazado 3563" d="M167.365,211.153a2.7,2.7,0,0,0-3.759.632,15.5,15.5,0,0,1-28.142-8.971v-2.324a2.7,2.7,0,1,0-5.391,0v2.324A20.89,20.89,0,0,0,168,214.912a2.7,2.7,0,0,0-.632-3.759" transform="translate(-81.968 -124.643)" fill="#fff"/>
    <path id="Trazado_3564" data-name="Trazado 3564" d="M228.495,168.955v13.987a2.7,2.7,0,0,0,5.39,0V168.955a2.7,2.7,0,1,0-5.39,0" transform="translate(-143.99 -104.772)" fill="#fff"/>
    <path id="Trazado_3565" data-name="Trazado 3565" d="M130.072,127.1a2.7,2.7,0,1,0,5.391,0v-.923a15.5,15.5,0,0,1,29.676-6.289,2.7,2.7,0,0,0,4.924-2.195,20.895,20.895,0,0,0-39.99,8.484v.923Z" transform="translate(-81.967 -66.343)" fill="#fff"/>
    <path id="Trazado_3566" data-name="Trazado 3566" d="M181.321,149.065a7.46,7.46,0,0,0-14.921,0,2.7,2.7,0,1,0,5.39,0,2.07,2.07,0,0,1,4.14,0v5.225a2.7,2.7,0,1,0,5.39,0Z" transform="translate(-104.86 -89.235)" fill="#fff"/>
    <path id="Trazado_3567" data-name="Trazado 3567" d="M169.094,183.881a2.7,2.7,0,0,0-2.7,2.7v7.469a7.46,7.46,0,0,0,14.921,0,2.7,2.7,0,0,0-5.391,0,2.07,2.07,0,0,1-4.139,0v-7.469a2.7,2.7,0,0,0-2.7-2.7" transform="translate(-104.859 -115.876)" fill="#fff"/>
    <path id="Trazado_3568" data-name="Trazado 3568" d="M2.7,52.251H14.417a2.7,2.7,0,0,0,2.7-2.7V17.112H49.557a2.7,2.7,0,0,0,2.7-2.7V2.694a2.7,2.7,0,0,0-2.7-2.7H2.7A2.7,2.7,0,0,0,0,2.694V49.556a2.7,2.7,0,0,0,2.7,2.7M5.391,5.39H46.861v6.331H14.417a2.7,2.7,0,0,0-2.7,2.7V46.86H5.391Z" transform="translate(0 0.001)" fill="#6c00ff"/>
    <path id="Trazado_3569" data-name="Trazado 3569" d="M49.556,267H17.113V234.552a2.7,2.7,0,0,0-2.7-2.7H2.7a2.7,2.7,0,0,0-2.7,2.7v46.861a2.7,2.7,0,0,0,2.7,2.7H49.556a2.7,2.7,0,0,0,2.7-2.7V269.692a2.7,2.7,0,0,0-2.7-2.7m-2.695,11.721H5.391v-41.47h6.331v32.444a2.7,2.7,0,0,0,2.7,2.7H46.861Z" transform="translate(0 -146.109)" fill="#6c00ff"/>
    <path id="Trazado_3570" data-name="Trazado 3570" d="M281.413,0H234.552a2.7,2.7,0,0,0-2.7,2.7V14.417a2.7,2.7,0,0,0,2.7,2.7H267V49.556a2.7,2.7,0,0,0,2.7,2.7h11.721a2.7,2.7,0,0,0,2.7-2.7V2.7a2.7,2.7,0,0,0-2.7-2.7m-2.695,46.861h-6.331V14.417a2.7,2.7,0,0,0-2.7-2.7H237.248V5.39h41.471Z" transform="translate(-146.109)" fill="#6c00ff"/>
    <path id="Trazado_3571" data-name="Trazado 3571" d="M281.413,231.857H269.692a2.7,2.7,0,0,0-2.7,2.7V267H234.552a2.7,2.7,0,0,0-2.7,2.695v11.721a2.7,2.7,0,0,0,2.7,2.7h46.861a2.7,2.7,0,0,0,2.7-2.7V234.552a2.7,2.7,0,0,0-2.7-2.7m-2.695,46.861H237.248v-6.331h32.445a2.7,2.7,0,0,0,2.7-2.7V237.248h6.331Z" transform="translate(-146.109 -146.109)" fill="#6c00ff"/>
  </g>
</svg>
