<svg xmlns="http://www.w3.org/2000/svg" xmlns:xlink="http://www.w3.org/1999/xlink" width="145.058" height="49.691" viewBox="0 0 145.058 49.691">
  <defs>
    <clipPath id="clip-path">
      <rect id="Rectángulo_253" data-name="Rectángulo 253" width="145.058" height="49.691" fill="none"/>
    </clipPath>
  </defs>
  <g id="Grupo_1515" data-name="Grupo 1515" transform="translate(-0.002 0)">
    <g id="Grupo_1514" data-name="Grupo 1514" transform="translate(0.002 0)" clip-path="url(#clip-path)">
      <path id="Trazado_3359" data-name="Trazado 3359" d="M28.172,26.923l.059-22.66a3.642,3.642,0,0,0-4.2-3.3L2.474,6.814A3.3,3.3,0,0,0,.079,9.741L.064,16.484Z" transform="translate(-0.015 -0.188)" fill="#e02a3b"/>
      <path id="Trazado_3360" data-name="Trazado 3360" d="M28.919,31.158.051,20.544,0,26.557V39.83a4.96,4.96,0,0,0,3.133,4.277l23.816,8.667c2.65,1.23,5.109-.258,5.1-2.58V35.434a4.96,4.96,0,0,0-3.135-4.276" transform="translate(-0.002 -4.249)" fill="#2ea386"/>
      <path id="Trazado_3361" data-name="Trazado 3361" d="M21.393,26.658V14.946a2.785,2.785,0,0,0-3.576-2.631L.061,17.172l0,1.644Z" transform="translate(-0.014 -2.521)" fill="#f2998e"/>
      <path id="Trazado_3362" data-name="Trazado 3362" d="M66.062,6.344a6.26,6.26,0,0,1,3.251.878A6.843,6.843,0,0,1,71.69,9.586a6.25,6.25,0,0,1,.9,3.3,7.277,7.277,0,0,1-.04.758,1.245,1.245,0,0,1-.445.833,1.319,1.319,0,0,1-.886.339l-9.308.013a4.826,4.826,0,0,0,.853,1.8,5.031,5.031,0,0,0,1.523,1.359,4.018,4.018,0,0,0,4.017-.039,4.686,4.686,0,0,0,1.41-1.293,1.222,1.222,0,0,1,.487-.426,1.329,1.329,0,0,1,.619-.174,1.276,1.276,0,0,1,.938.4,1.3,1.3,0,0,1,.393.945,1.27,1.27,0,0,1-.238.759,7.374,7.374,0,0,1-2.272,2.1,6.292,6.292,0,0,1-3.349.885,6.77,6.77,0,0,1-2.845-.6A7.164,7.164,0,0,1,61.163,18.9a7.623,7.623,0,0,1-2.051-5.247,7.253,7.253,0,0,1,.531-2.763,7.637,7.637,0,0,1,1.485-2.337,7.151,7.151,0,0,1,2.219-1.618,6.326,6.326,0,0,1,2.715-.592m3.782,5.806a3.867,3.867,0,0,0-1.3-2.225,3.64,3.64,0,0,0-2.477-.918,3.845,3.845,0,0,0-2.563.945A4.662,4.662,0,0,0,62,12.163Z" transform="translate(-12.229 -1.312)" fill="#12152f"/>
      <path id="Trazado_3363" data-name="Trazado 3363" d="M77.189,6.606a1.148,1.148,0,0,1,.313-.752.968.968,0,0,1,.767-.367l1.97-.013V5.3a5.872,5.872,0,0,1,1.011-3.529A3.627,3.627,0,0,1,84.407.532l1.465.027A1.254,1.254,0,0,1,86.8.954a1.286,1.286,0,0,1,.387.938,1.224,1.224,0,0,1-.387.918,1.306,1.306,0,0,1-.944.373l-1.494-.213a1.882,1.882,0,0,0-1,.205,1.018,1.018,0,0,0-.4.727,8.9,8.9,0,0,0-.074,1.476L82.9,5.5l2.69.013a1.24,1.24,0,0,1,.9.359,1.178,1.178,0,0,1,.366.866,1.223,1.223,0,0,1-.347.817,1.017,1.017,0,0,1-.785.395L82.9,7.975l.027,10.735v.012a1.187,1.187,0,0,1-.393.9,1.388,1.388,0,0,1-1.877,0,1.18,1.18,0,0,1-.394-.9v-.012l-.025-10.76-1.785-.013a1.2,1.2,0,0,1-.9-.373,1.3,1.3,0,0,1-.367-.959" transform="translate(-15.968 -0.11)" fill="#12152f"/>
      <path id="Trazado_3364" data-name="Trazado 3364" d="M97.338,6.344a6.258,6.258,0,0,1,3.25.878,6.848,6.848,0,0,1,2.378,2.364,6.25,6.25,0,0,1,.9,3.3,7.277,7.277,0,0,1-.04.758,1.254,1.254,0,0,1-.447.833,1.316,1.316,0,0,1-.887.339l-9.308.013a4.861,4.861,0,0,0,.853,1.8,5.049,5.049,0,0,0,1.525,1.359,4.015,4.015,0,0,0,4.015-.039,4.693,4.693,0,0,0,1.412-1.293,1.227,1.227,0,0,1,.485-.426,1.335,1.335,0,0,1,.62-.174,1.276,1.276,0,0,1,.938.4,1.3,1.3,0,0,1,.393.945,1.271,1.271,0,0,1-.24.759,7.367,7.367,0,0,1-2.27,2.1,6.3,6.3,0,0,1-3.35.885,6.757,6.757,0,0,1-2.843-.6A7.162,7.162,0,0,1,92.437,18.9a7.642,7.642,0,0,1-2.051-5.247,7.254,7.254,0,0,1,.533-2.763A7.578,7.578,0,0,1,92.4,8.554a7.163,7.163,0,0,1,2.218-1.618,6.338,6.338,0,0,1,2.717-.592m3.782,5.806a3.88,3.88,0,0,0-1.3-2.225,3.642,3.642,0,0,0-2.477-.918,3.852,3.852,0,0,0-2.565.945,4.659,4.659,0,0,0-1.5,2.211Z" transform="translate(-18.698 -1.312)" fill="#12152f"/>
      <path id="Trazado_3365" data-name="Trazado 3365" d="M109.866,13.693a7.645,7.645,0,0,1,.521-2.809,7.557,7.557,0,0,1,1.464-2.369,7.022,7.022,0,0,1,2.2-1.639,6.292,6.292,0,0,1,2.737-.6,6.118,6.118,0,0,1,2.657.566A6.684,6.684,0,0,1,121.5,8.333a6.366,6.366,0,0,1,1.286,2.018,1.3,1.3,0,0,1,.094.505,1.341,1.341,0,0,1-1.331,1.332,1.254,1.254,0,0,1-.734-.253,1.4,1.4,0,0,1-.507-.612,3.859,3.859,0,0,0-1.3-1.67,3.52,3.52,0,0,0-2.218-.713,3.723,3.723,0,0,0-2.178.671,4.819,4.819,0,0,0-1.524,1.75,5,5,0,0,0-.558,2.331,5.105,5.105,0,0,0,.573,2.378,4.8,4.8,0,0,0,1.57,1.8,3.884,3.884,0,0,0,2.25.686,3.609,3.609,0,0,0,2.116-.619,4.3,4.3,0,0,0,1.347-1.446,1.473,1.473,0,0,1,1.185-.706,1.341,1.341,0,0,1,1.331,1.331,1.355,1.355,0,0,1-.172.653,6.945,6.945,0,0,1-2.264,2.423,6.124,6.124,0,0,1-3.542,1.026,6.493,6.493,0,0,1-2.8-.607,7.06,7.06,0,0,1-2.237-1.656,7.831,7.831,0,0,1-1.485-2.406,7.7,7.7,0,0,1-.532-2.856" transform="translate(-22.727 -1.298)" fill="#12152f"/>
      <path id="Trazado_3366" data-name="Trazado 3366" d="M140.424,7.438a.982.982,0,0,1,.427-.824,1.375,1.375,0,0,1,.824-.32,1.509,1.509,0,0,1,1,.346,1.142,1.142,0,0,1,.412.918v.013l.027,12.331a1.2,1.2,0,0,1-.394.907,1.317,1.317,0,0,1-.937.372,1.3,1.3,0,0,1-.948-.379,1.232,1.232,0,0,1-.384-.911Z" transform="translate(-29.048 -1.302)" fill="#12152f"/>
      <path id="Trazado_3367" data-name="Trazado 3367" d="M158.373,6.294a1.223,1.223,0,0,1,.873.386,1.175,1.175,0,0,1,.391.851,1.527,1.527,0,0,1-.133.681l-5.619,12.157a1.258,1.258,0,0,1-1.227.76,1.174,1.174,0,0,1-1.2-.814L146.428,8.156a1.453,1.453,0,0,1-.106-.625,1.246,1.246,0,0,1,.364-.833,1.093,1.093,0,0,1,.82-.4,1.35,1.35,0,0,1,1.384.824l3.876,9.429,4.327-9.481a1.293,1.293,0,0,1,1.279-.772" transform="translate(-30.268 -1.302)" fill="#12152f"/>
      <path id="Trazado_3368" data-name="Trazado 3368" d="M59,41.94a7.931,7.931,0,0,1,.56-2.931,7.288,7.288,0,0,1,1.651-2.516,6.951,6.951,0,0,1,2.238-1.465,6.824,6.824,0,0,1,2.622-.52,5.092,5.092,0,0,1,2.464.586,6.851,6.851,0,0,1,1.931,1.584v-5.6a1.331,1.331,0,0,1,2.663,0v17A1.343,1.343,0,0,1,71.8,49.411a.939.939,0,0,1-.821-.393,2.2,2.2,0,0,1-.352-.941L70.471,47a5.314,5.314,0,0,1-2.005,1.719,5.493,5.493,0,0,1-2.483.625,6.44,6.44,0,0,1-2.778-.6,7.1,7.1,0,0,1-2.216-1.632,7.45,7.45,0,0,1-1.464-2.364A7.646,7.646,0,0,1,59,41.94m6.952,4.741a4.121,4.121,0,0,0,1.719-.386,4.446,4.446,0,0,0,1.451-1.04,4.734,4.734,0,0,0,.925-1.559,5.264,5.264,0,0,0,.325-1.823,5.024,5.024,0,0,0-.559-2.356,4.554,4.554,0,0,0-1.537-1.731,3.982,3.982,0,0,0-2.258-.654,3.855,3.855,0,0,0-2.243.686A4.813,4.813,0,0,0,62.219,39.6a5.057,5.057,0,0,0-.566,2.337,4.989,4.989,0,0,0,.56,2.322,4.655,4.655,0,0,0,1.539,1.751,3.819,3.819,0,0,0,2.2.667" transform="translate(-12.207 -6.152)" fill="#12152f"/>
      <path id="Trazado_3369" data-name="Trazado 3369" d="M80.775,36.947a.982.982,0,0,1,.427-.824,1.381,1.381,0,0,1,.824-.322,1.51,1.51,0,0,1,1,.347,1.142,1.142,0,0,1,.412.918v.013l.027,12.331a1.2,1.2,0,0,1-.393.907,1.324,1.324,0,0,1-.938.372,1.3,1.3,0,0,1-.945-.379A1.228,1.228,0,0,1,80.8,49.4Z" transform="translate(-16.71 -7.405)" fill="#12152f"/>
      <path id="Trazado_3370" data-name="Trazado 3370" d="M82.217,33.39a1.361,1.361,0,0,1-1-.379,1.309,1.309,0,0,1-.4-.939l-.027-1.013a.954.954,0,0,1,.454-.817,1.531,1.531,0,0,1,.866-.313,1.257,1.257,0,0,1,.938.385,1.331,1.331,0,0,1,.394.934l.012.8a1.415,1.415,0,0,1-.346.934,1.109,1.109,0,0,1-.891.411" transform="translate(-16.713 -6.191)" fill="#12152f"/>
      <path id="Trazado_3371" data-name="Trazado 3371" d="M99.8,35.7a1.341,1.341,0,0,1,1.332,1.331v.027l-.093,12.717a6.9,6.9,0,0,1-.607,2.809,7.509,7.509,0,0,1-1.629,2.33A7.771,7.771,0,0,1,96.42,56.5a7.173,7.173,0,0,1-2.843.573,7.5,7.5,0,0,1-5.833-2.809,1.352,1.352,0,0,1-.307-.853,1.338,1.338,0,0,1,1.332-1.331,1.353,1.353,0,0,1,.58.146,1.249,1.249,0,0,1,.485.371,4.8,4.8,0,0,0,1.685,1.317,4.687,4.687,0,0,0,2.071.494,4.626,4.626,0,0,0,2.378-.638,4.992,4.992,0,0,0,1.743-1.706,4.321,4.321,0,0,0,.661-2.33v-1.3a4.177,4.177,0,0,1-1.9,1.685,6,6,0,0,1-4.967-.167,6.944,6.944,0,0,1-2.164-1.693,8.021,8.021,0,0,1-1.43-2.417,7.746,7.746,0,0,1-.512-2.79,7.44,7.44,0,0,1,.512-2.749,7.67,7.67,0,0,1,1.43-2.337A6.911,6.911,0,0,1,91.5,36.341a6.123,6.123,0,0,1,2.7-.6,5,5,0,0,1,2.372.586,5.065,5.065,0,0,1,1.877,1.785l.2-1.065A2.872,2.872,0,0,1,99,36.1a.858.858,0,0,1,.8-.4m-1.451,7.364a4.985,4.985,0,0,0-.532-2.272,4.687,4.687,0,0,0-1.459-1.724,3.516,3.516,0,0,0-2.111-.667,3.646,3.646,0,0,0-2.15.661,4.627,4.627,0,0,0-1.478,1.719,4.908,4.908,0,0,0-.539,2.268,5.275,5.275,0,0,0,.532,2.31,4.97,4.97,0,0,0,1.465,1.832,3.4,3.4,0,0,0,2.13.719,3.454,3.454,0,0,0,2.126-.706,4.929,4.929,0,0,0,1.478-1.817,5.251,5.251,0,0,0,.539-2.324" transform="translate(-18.08 -7.385)" fill="#12152f"/>
      <path id="Trazado_3372" data-name="Trazado 3372" d="M108.947,36.914a.986.986,0,0,1,.427-.826,1.393,1.393,0,0,1,.826-.32,1.508,1.508,0,0,1,1,.347,1.141,1.141,0,0,1,.411.918v.013l.029,12.331a1.2,1.2,0,0,1-.394.907,1.317,1.317,0,0,1-.938.372,1.3,1.3,0,0,1-.945-.379,1.228,1.228,0,0,1-.386-.911Z" transform="translate(-22.537 -7.398)" fill="#12152f"/>
      <path id="Trazado_3373" data-name="Trazado 3373" d="M110.27,32.722a1.361,1.361,0,0,1-1-.379,1.309,1.309,0,0,1-.4-.939l-.027-1.013a.955.955,0,0,1,.454-.817,1.529,1.529,0,0,1,.866-.313,1.257,1.257,0,0,1,.938.385,1.329,1.329,0,0,1,.394.934l.012.8a1.418,1.418,0,0,1-.346.934,1.11,1.11,0,0,1-.891.411" transform="translate(-22.516 -6.053)" fill="#12152f"/>
      <path id="Trazado_3374" data-name="Trazado 3374" d="M141.866,3.5a1.359,1.359,0,0,1-1-.381,1.309,1.309,0,0,1-.4-.939l-.027-1.011a.954.954,0,0,1,.454-.819,1.529,1.529,0,0,1,.866-.313,1.259,1.259,0,0,1,.937.385,1.332,1.332,0,0,1,.394.934l.012.8a1.412,1.412,0,0,1-.346.934,1.11,1.11,0,0,1-.892.413" transform="translate(-29.052 -0.009)" fill="#12152f"/>
      <path id="Trazado_3375" data-name="Trazado 3375" d="M134.109,35.683a4.95,4.95,0,0,1,1.924.391,6.981,6.981,0,0,1,1.677.986,4.4,4.4,0,0,1,1.1,1.22L138.956,37a1.447,1.447,0,0,1,.32-.939,1.059,1.059,0,0,1,.867-.393A1.341,1.341,0,0,1,141.473,37v.025l-.027,12.333a1.341,1.341,0,0,1-1.331,1.331,1.058,1.058,0,0,1-.867-.394,1.441,1.441,0,0,1-.318-.937l-.147-1.065a4.237,4.237,0,0,1-2.024,1.764,6.7,6.7,0,0,1-2.678.58,6.805,6.805,0,0,1-2.823-.593,7.4,7.4,0,0,1-2.318-1.633,7.76,7.76,0,0,1-1.566-2.383,7.273,7.273,0,0,1-.564-2.836,7.428,7.428,0,0,1,.55-2.829,7.857,7.857,0,0,1,1.546-2.41,7.31,7.31,0,0,1,2.317-1.665,6.876,6.876,0,0,1,2.884-.605m4.594,7.483a4.885,4.885,0,0,0-2.25-4.155,4.533,4.533,0,0,0-4.729,0,4.892,4.892,0,0,0-2.275,4.141,4.743,4.743,0,0,0,.625,2.391,4.939,4.939,0,0,0,1.685,1.765,4.289,4.289,0,0,0,2.337.665,4.241,4.241,0,0,0,2.324-.665,4.926,4.926,0,0,0,1.663-1.765,4.759,4.759,0,0,0,.619-2.378" transform="translate(-26.233 -7.378)" fill="#12152f"/>
      <path id="Trazado_3376" data-name="Trazado 3376" d="M151.079,29.658a1.324,1.324,0,0,1,1.025.42,1.269,1.269,0,0,1,.372.912V48.142a1.035,1.035,0,0,1-.42.86,1.359,1.359,0,0,1-.83.325,1.451,1.451,0,0,1-.993-.372,1.225,1.225,0,0,1-.42-.959V30.99a1.343,1.343,0,0,1,.367-.918,1.153,1.153,0,0,1,.9-.413" transform="translate(-30.991 -6.135)" fill="#12152f"/>
      <path id="Trazado_3377" data-name="Trazado 3377" d="M135.47,17.336a1.3,1.3,0,0,0-.941-.386,1.231,1.231,0,0,0-.438.086,1.925,1.925,0,0,0-.386.194,1.718,1.718,0,0,1-1.01.307.648.648,0,0,1-.6-.246,1.932,1.932,0,0,1-.147-.9v-.027l.015-8.242h1.8a1.262,1.262,0,0,0,.893-2.157,1.22,1.22,0,0,0-.893-.374h-1.783V2.94A1.277,1.277,0,0,0,131.58,2,1.326,1.326,0,0,0,129.7,2a1.288,1.288,0,0,0-.386.938c0,4.441-.018,8.882-.027,13.323v.34a3.767,3.767,0,0,0,.9,2.579,3.255,3.255,0,0,0,2.583,1.031,3.831,3.831,0,0,0,1.4-.253,4.724,4.724,0,0,0,1.16-.638,1.309,1.309,0,0,0,.14-1.985" transform="translate(-26.744 -0.333)" fill="#12152f"/>
      <path id="Trazado_3378" data-name="Trazado 3378" d="M123.041,46.813a1.294,1.294,0,0,0-.941-.386,1.231,1.231,0,0,0-.438.086,1.925,1.925,0,0,0-.386.194,1.728,1.728,0,0,1-1.01.305.643.643,0,0,1-.6-.246,1.9,1.9,0,0,1-.147-.9V45.84l.013-8.244h1.8a1.265,1.265,0,0,0,0-2.53h-1.783V32.417a1.332,1.332,0,1,0-2.664,0c0,4.441-.018,8.882-.027,13.32v.343a3.757,3.757,0,0,0,.9,2.576,3.252,3.252,0,0,0,2.583,1.033,3.864,3.864,0,0,0,1.4-.253,4.676,4.676,0,0,0,1.16-.64,1.307,1.307,0,0,0,.14-1.984" transform="translate(-24.173 -6.43)" fill="#12152f"/>
      <path id="Trazado_3379" data-name="Trazado 3379" d="M171.5,6.113a7.136,7.136,0,0,1,2.926.6,7.423,7.423,0,0,1,2.381,1.663,7.963,7.963,0,0,1,1.6,2.442,7.471,7.471,0,0,1,.58,2.934,7.3,7.3,0,0,1-.586,2.9,7.725,7.725,0,0,1-4,4.059,7.074,7.074,0,0,1-2.9.6,7.186,7.186,0,0,1-2.885-.587,7.631,7.631,0,0,1-4.006-4.031,7.654,7.654,0,0,1,0-5.875,7.88,7.88,0,0,1,1.618-2.435,7.693,7.693,0,0,1,2.379-1.664,6.957,6.957,0,0,1,2.893-.608m-4.72,7.668a4.612,4.612,0,0,0,.647,2.408,4.9,4.9,0,0,0,1.726,1.726,4.526,4.526,0,0,0,2.36.642,4.446,4.446,0,0,0,2.382-.662,4.927,4.927,0,0,0,1.7-1.754,4.662,4.662,0,0,0,.635-2.387,4.944,4.944,0,0,0-2.327-4.216,4.666,4.666,0,0,0-4.822.006,4.961,4.961,0,0,0-2.306,4.237" transform="translate(-33.93 -1.264)" fill="#12152f"/>
    </g>
  </g>
</svg>
