<svg xmlns="http://www.w3.org/2000/svg" xmlns:xlink="http://www.w3.org/1999/xlink" width="182.49" height="62.65" viewBox="0 0 182.49 62.65">
  <defs>
    <clipPath id="clip-path">
      <rect id="Rectángulo_292" data-name="Rectángulo 292" width="182.49" height="62.65" transform="translate(0.002 0)" fill="none"/>
    </clipPath>
  </defs>
  <g id="Grupo_1637" data-name="Grupo 1637" transform="translate(-0.002 0)">
    <g id="Grupo_1636" data-name="Grupo 1636" clip-path="url(#clip-path)">
      <path id="Trazado_4245" data-name="Trazado 4245" d="M35.44,33.6l.072-28.57A4.589,4.589,0,0,0,30.219.874L3.037,8.249A4.159,4.159,0,0,0,.02,11.94L0,20.443Z" fill="#e02a3b"/>
      <path id="Trazado_4246" data-name="Trazado 4246" d="M36.4,33.822,0,20.442l-.063,7.579V44.756a6.255,6.255,0,0,0,3.952,5.393L33.914,61.076c3.343,1.551,6.443-.325,6.432-3.253V39.213a6.252,6.252,0,0,0-3.95-5.391" fill="#2ea386"/>
      <path id="Trazado_4247" data-name="Trazado 4247" d="M26.893,30.33V15.561a3.513,3.513,0,0,0-4.509-3.317L0,18.368l0,2.075Z" fill="#f2998e"/>
      <path id="Trazado_4248" data-name="Trazado 4248" d="M67.478,6.344a7.89,7.89,0,0,1,4.1,1.107,8.633,8.633,0,0,1,3,2.981,7.9,7.9,0,0,1,1.132,4.156,9.175,9.175,0,0,1-.051.956,1.581,1.581,0,0,1-.563,1.05,1.66,1.66,0,0,1-1.118.427l-11.735.017a6.129,6.129,0,0,0,1.075,2.267,6.339,6.339,0,0,0,1.923,1.713,5.049,5.049,0,0,0,5.062-.049,5.916,5.916,0,0,0,1.78-1.63,1.547,1.547,0,0,1,.612-.537,1.682,1.682,0,0,1,.78-.219,1.61,1.61,0,0,1,1.185.5,1.645,1.645,0,0,1,.5,1.192,1.6,1.6,0,0,1-.3.957,9.274,9.274,0,0,1-2.864,2.647A7.931,7.931,0,0,1,67.763,25a8.549,8.549,0,0,1-3.585-.755A9.066,9.066,0,0,1,61.3,22.176a9.508,9.508,0,0,1-1.906-3.013,9.62,9.62,0,0,1-.68-3.6,9.146,9.146,0,0,1,.672-3.484A9.554,9.554,0,0,1,61.257,9.13a8.973,8.973,0,0,1,2.8-2.04,7.991,7.991,0,0,1,3.425-.746m4.768,7.32a4.881,4.881,0,0,0-1.645-2.8A4.585,4.585,0,0,0,67.478,9.7a4.852,4.852,0,0,0-3.234,1.192,5.874,5.874,0,0,0-1.887,2.788Z" fill="#fff"/>
      <path id="Trazado_4249" data-name="Trazado 4249" d="M76.792,8.19a1.452,1.452,0,0,1,.395-.948,1.223,1.223,0,0,1,.965-.463l2.486-.017V6.545A7.421,7.421,0,0,1,81.911,2.1,4.572,4.572,0,0,1,85.89.532l1.847.034a1.588,1.588,0,0,1,1.177.5A1.628,1.628,0,0,1,89.4,2.247,1.549,1.549,0,0,1,88.914,3.4a1.651,1.651,0,0,1-1.192.47l-1.881-.268a2.36,2.36,0,0,0-1.268.261,1.272,1.272,0,0,0-.5.914,11.061,11.061,0,0,0-.091,1.863L84,6.8l3.389.017a1.56,1.56,0,0,1,1.135.453,1.478,1.478,0,0,1,.461,1.092,1.539,1.539,0,0,1-.436,1.03,1.289,1.289,0,0,1-.992.5L84,9.917l.032,13.535v.015a1.5,1.5,0,0,1-.5,1.135,1.75,1.75,0,0,1-2.367,0,1.486,1.486,0,0,1-.5-1.135v-.015L80.638,9.886l-2.252-.017a1.519,1.519,0,0,1-1.133-.47,1.649,1.649,0,0,1-.461-1.209" fill="#fff"/>
      <path id="Trazado_4250" data-name="Trazado 4250" d="M98.752,6.344a7.892,7.892,0,0,1,4.1,1.107,8.628,8.628,0,0,1,3,2.981,7.879,7.879,0,0,1,1.132,4.156,9.177,9.177,0,0,1-.051.956,1.57,1.57,0,0,1-.561,1.05,1.663,1.663,0,0,1-1.117.427l-11.736.017a6.085,6.085,0,0,0,1.076,2.267,6.316,6.316,0,0,0,1.92,1.713,5.052,5.052,0,0,0,5.064-.049,5.932,5.932,0,0,0,1.778-1.63,1.54,1.54,0,0,1,.614-.537,1.676,1.676,0,0,1,.78-.219,1.609,1.609,0,0,1,1.183.5,1.645,1.645,0,0,1,.5,1.192,1.589,1.589,0,0,1-.3.957,9.266,9.266,0,0,1-2.862,2.647A7.933,7.933,0,0,1,99.039,25a8.558,8.558,0,0,1-3.587-.755,9.069,9.069,0,0,1-2.877-2.067,9.549,9.549,0,0,1-1.908-3.013,9.659,9.659,0,0,1-.68-3.6,9.146,9.146,0,0,1,.672-3.484A9.629,9.629,0,0,1,92.531,9.13a9.016,9.016,0,0,1,2.8-2.04,7.976,7.976,0,0,1,3.423-.746m4.768,7.32a4.864,4.864,0,0,0-1.645-2.8A4.585,4.585,0,0,0,98.752,9.7a4.847,4.847,0,0,0-3.232,1.192,5.878,5.878,0,0,0-1.889,2.788Z" fill="#fff"/>
      <path id="Trazado_4251" data-name="Trazado 4251" d="M109.468,15.629a9.7,9.7,0,0,1,.654-3.544A9.6,9.6,0,0,1,111.969,9.1a8.874,8.874,0,0,1,2.779-2.065,7.923,7.923,0,0,1,3.449-.754,7.687,7.687,0,0,1,3.352.714,8.4,8.4,0,0,1,2.584,1.878,8.013,8.013,0,0,1,1.621,2.546,1.663,1.663,0,0,1,.117.635,1.688,1.688,0,0,1-1.678,1.678,1.584,1.584,0,0,1-.925-.318,1.756,1.756,0,0,1-.637-.772,4.914,4.914,0,0,0-1.636-2.1,4.438,4.438,0,0,0-2.8-.9,4.7,4.7,0,0,0-2.746.848,6.02,6.02,0,0,0-1.92,2.207,6.269,6.269,0,0,0-.706,2.939,6.429,6.429,0,0,0,.723,3,6.044,6.044,0,0,0,1.982,2.267,4.886,4.886,0,0,0,2.834.865,4.558,4.558,0,0,0,2.671-.78,5.419,5.419,0,0,0,1.7-1.823,1.69,1.69,0,0,1,.639-.631,1.671,1.671,0,0,1,.855-.259,1.69,1.69,0,0,1,1.678,1.678,1.722,1.722,0,0,1-.217.825,8.77,8.77,0,0,1-2.853,3.053,7.724,7.724,0,0,1-4.469,1.294,8.169,8.169,0,0,1-3.533-.765,8.845,8.845,0,0,1-2.82-2.089,9.874,9.874,0,0,1-1.874-3.032,9.749,9.749,0,0,1-.669-3.6" fill="#fff"/>
      <path id="Trazado_4252" data-name="Trazado 4252" d="M140.025,7.738a1.241,1.241,0,0,1,.538-1.041,1.743,1.743,0,0,1,1.041-.4,1.91,1.91,0,0,1,1.26.436,1.441,1.441,0,0,1,.518,1.158V7.9l.036,15.549a1.511,1.511,0,0,1-.5,1.141,1.662,1.662,0,0,1-1.183.469,1.633,1.633,0,0,1-1.192-.478,1.545,1.545,0,0,1-.487-1.149Z" fill="#fff"/>
      <path id="Trazado_4253" data-name="Trazado 4253" d="M161.117,6.294a1.538,1.538,0,0,1,1.1.487,1.484,1.484,0,0,1,.5,1.073,1.925,1.925,0,0,1-.168.858L155.458,24.04a1.583,1.583,0,0,1-1.545.958,1.48,1.48,0,0,1-1.511-1.026l-6.346-15.33a1.865,1.865,0,0,1-.133-.788,1.572,1.572,0,0,1,.46-1.05,1.371,1.371,0,0,1,1.032-.51,1.705,1.705,0,0,1,1.747,1.039l4.887,11.888L159.5,7.267a1.632,1.632,0,0,1,1.614-.973" fill="#fff"/>
      <path id="Trazado_4254" data-name="Trazado 4254" d="M58.6,45.121a10.051,10.051,0,0,1,.706-3.695,9.218,9.218,0,0,1,2.082-3.172,8.764,8.764,0,0,1,2.822-1.847,8.611,8.611,0,0,1,3.306-.656,6.42,6.42,0,0,1,3.106.739,8.6,8.6,0,0,1,2.435,2V31.421a1.68,1.68,0,0,1,3.359,0V52.862a1.694,1.694,0,0,1-1.68,1.678,1.178,1.178,0,0,1-1.033-.5,2.78,2.78,0,0,1-.446-1.183l-.2-1.362a6.678,6.678,0,0,1-2.526,2.167,6.94,6.94,0,0,1-3.132.788,8.126,8.126,0,0,1-3.5-.754,8.951,8.951,0,0,1-2.794-2.057,9.429,9.429,0,0,1-1.846-2.981,9.681,9.681,0,0,1-.657-3.542M67.369,51.1a5.182,5.182,0,0,0,2.167-.487,5.606,5.606,0,0,0,1.83-1.311,5.934,5.934,0,0,0,1.166-1.965,6.63,6.63,0,0,0,.412-2.3,6.359,6.359,0,0,0-.705-2.97,5.747,5.747,0,0,0-1.94-2.183,5.01,5.01,0,0,0-2.845-.824,4.867,4.867,0,0,0-2.83.865,6.087,6.087,0,0,0-1.966,2.25,6.456,6.456,0,0,0-.008,5.875,5.869,5.869,0,0,0,1.94,2.208,4.821,4.821,0,0,0,2.779.841" fill="#fff"/>
      <path id="Trazado_4255" data-name="Trazado 4255" d="M80.375,37.246a1.238,1.238,0,0,1,.538-1.039,1.743,1.743,0,0,1,1.041-.4,1.906,1.906,0,0,1,1.26.436,1.44,1.44,0,0,1,.52,1.158v.017l.034,15.547a1.515,1.515,0,0,1-.5,1.143,1.659,1.659,0,0,1-1.181.469A1.637,1.637,0,0,1,80.9,54.1a1.56,1.56,0,0,1-.487-1.149Z" fill="#fff"/>
      <path id="Trazado_4256" data-name="Trazado 4256" d="M82.189,34.295a1.72,1.72,0,0,1-1.26-.48,1.652,1.652,0,0,1-.5-1.184l-.037-1.275a1.2,1.2,0,0,1,.574-1.032,1.922,1.922,0,0,1,1.09-.395,1.592,1.592,0,0,1,1.184.486,1.687,1.687,0,0,1,.5,1.177l.015,1.005a1.772,1.772,0,0,1-.438,1.177,1.4,1.4,0,0,1-1.124.521" fill="#fff"/>
      <path id="Trazado_4257" data-name="Trazado 4257" d="M102.628,35.7a1.687,1.687,0,0,1,1.679,1.678v.034l-.115,16.034a8.714,8.714,0,0,1-.765,3.542,9.508,9.508,0,0,1-2.056,2.938,9.773,9.773,0,0,1-3,2,9.034,9.034,0,0,1-3.585.722,9.457,9.457,0,0,1-7.354-3.542,1.7,1.7,0,0,1-.386-1.075,1.688,1.688,0,0,1,1.678-1.678,1.7,1.7,0,0,1,.731.184,1.575,1.575,0,0,1,.614.468,6.06,6.06,0,0,0,2.123,1.661,5.911,5.911,0,0,0,2.613.623,5.826,5.826,0,0,0,3-.805,6.334,6.334,0,0,0,2.2-2.148,5.481,5.481,0,0,0,.831-2.941V51.755a5.266,5.266,0,0,1-2.392,2.123,7.569,7.569,0,0,1-6.264-.21,8.8,8.8,0,0,1-2.729-2.134,10.113,10.113,0,0,1-1.8-3.047A9.806,9.806,0,0,1,87,44.971a9.423,9.423,0,0,1,.646-3.468,9.636,9.636,0,0,1,1.8-2.945,8.735,8.735,0,0,1,2.72-2.05,7.728,7.728,0,0,1,3.41-.756,6.193,6.193,0,0,1,5.355,2.991l.253-1.345a3.709,3.709,0,0,1,.437-1.192,1.08,1.08,0,0,1,1-.5M100.8,44.988a6.309,6.309,0,0,0-.669-2.864,5.927,5.927,0,0,0-1.84-2.174,4.437,4.437,0,0,0-2.663-.839,4.6,4.6,0,0,0-2.711.831,5.852,5.852,0,0,0-1.863,2.167,6.215,6.215,0,0,0-.68,2.862,6.649,6.649,0,0,0,.671,2.911,6.317,6.317,0,0,0,1.847,2.31,4.288,4.288,0,0,0,2.687.907,4.349,4.349,0,0,0,2.678-.89,6.219,6.219,0,0,0,1.865-2.291,6.646,6.646,0,0,0,.678-2.93" fill="#fff"/>
      <path id="Trazado_4258" data-name="Trazado 4258" d="M108.549,37.213a1.242,1.242,0,0,1,.535-1.039,1.751,1.751,0,0,1,1.042-.406,1.9,1.9,0,0,1,1.26.438,1.44,1.44,0,0,1,.52,1.158v.017l.034,15.547a1.519,1.519,0,0,1-.5,1.143,1.661,1.661,0,0,1-1.181.469,1.641,1.641,0,0,1-1.195-.478,1.557,1.557,0,0,1-.484-1.149Z" fill="#fff"/>
      <path id="Trazado_4259" data-name="Trazado 4259" d="M110.243,33.625a1.719,1.719,0,0,1-1.26-.478,1.652,1.652,0,0,1-.5-1.184l-.037-1.277a1.2,1.2,0,0,1,.572-1.03,1.932,1.932,0,0,1,1.092-.4,1.592,1.592,0,0,1,1.184.486,1.687,1.687,0,0,1,.5,1.177l.015,1.005a1.776,1.776,0,0,1-.438,1.178,1.4,1.4,0,0,1-1.124.518" fill="#fff"/>
      <path id="Trazado_4260" data-name="Trazado 4260" d="M141.838,4.408a1.72,1.72,0,0,1-1.26-.48,1.666,1.666,0,0,1-.5-1.182l-.034-1.277a1.207,1.207,0,0,1,.572-1.032,1.932,1.932,0,0,1,1.092-.4,1.592,1.592,0,0,1,1.184.486,1.677,1.677,0,0,1,.495,1.177l.015,1a1.78,1.78,0,0,1-.436,1.177,1.4,1.4,0,0,1-1.124.521" fill="#fff"/>
      <path id="Trazado_4261" data-name="Trazado 4261" d="M135.612,35.687a6.247,6.247,0,0,1,2.426.495,8.733,8.733,0,0,1,2.117,1.241,5.577,5.577,0,0,1,1.383,1.538l.185-1.612a1.815,1.815,0,0,1,.4-1.184,1.329,1.329,0,0,1,1.093-.5,1.694,1.694,0,0,1,1.678,1.679v.031l-.034,15.55a1.694,1.694,0,0,1-1.681,1.678,1.335,1.335,0,0,1-1.092-.5,1.816,1.816,0,0,1-.4-1.181l-.185-1.343a5.323,5.323,0,0,1-2.552,2.224,8.43,8.43,0,0,1-3.374.731,8.574,8.574,0,0,1-3.559-.748,9.283,9.283,0,0,1-2.922-2.059,9.749,9.749,0,0,1-1.974-3,9.115,9.115,0,0,1-.713-3.574,9.369,9.369,0,0,1,.7-3.569,9.869,9.869,0,0,1,1.949-3.039,9.2,9.2,0,0,1,2.921-2.1,8.653,8.653,0,0,1,3.634-.763m5.794,9.434a6.155,6.155,0,0,0-2.839-5.238,5.712,5.712,0,0,0-5.96,0,6.164,6.164,0,0,0-2.87,5.221,5.989,5.989,0,0,0,.788,3.015,6.244,6.244,0,0,0,2.125,2.225,5.413,5.413,0,0,0,2.947.839,5.342,5.342,0,0,0,2.93-.839,6.2,6.2,0,0,0,2.1-2.225,6,6,0,0,0,.782-3" fill="#fff"/>
      <path id="Trazado_4262" data-name="Trazado 4262" d="M151.009,29.658a1.667,1.667,0,0,1,1.292.529,1.6,1.6,0,0,1,.472,1.15V52.962a1.306,1.306,0,0,1-.53,1.084,1.723,1.723,0,0,1-1.049.41,1.82,1.82,0,0,1-1.252-.469,1.545,1.545,0,0,1-.529-1.209V31.337a1.693,1.693,0,0,1,.463-1.158,1.454,1.454,0,0,1,1.133-.521" fill="#fff"/>
      <path id="Trazado_4263" data-name="Trazado 4263" d="M136.684,21.437a1.634,1.634,0,0,0-1.184-.487,1.535,1.535,0,0,0-.552.109,2.4,2.4,0,0,0-.489.246,2.174,2.174,0,0,1-1.274.385.813.813,0,0,1-.757-.31,2.41,2.41,0,0,1-.185-1.135v-.032l.017-10.394h2.265a1.591,1.591,0,0,0,1.126-2.72,1.535,1.535,0,0,0-1.126-.472h-2.248V3.287a1.61,1.61,0,0,0-.5-1.183,1.672,1.672,0,0,0-2.375,0,1.634,1.634,0,0,0-.485,1.183c0,5.6-.025,11.2-.034,16.8v.429a4.75,4.75,0,0,0,1.141,3.251,4.106,4.106,0,0,0,3.257,1.3,4.812,4.812,0,0,0,1.762-.319,5.957,5.957,0,0,0,1.462-.805,1.646,1.646,0,0,0,.176-2.5" fill="#fff"/>
      <path id="Trazado_4264" data-name="Trazado 4264" d="M124.255,50.914a1.634,1.634,0,0,0-1.184-.487,1.535,1.535,0,0,0-.552.109,2.5,2.5,0,0,0-.489.244,2.174,2.174,0,0,1-1.274.385.817.817,0,0,1-.757-.308,2.414,2.414,0,0,1-.185-1.137v-.032l.017-10.392H122.1a1.6,1.6,0,0,0,0-3.192h-2.248v-3.34a1.679,1.679,0,1,0-3.357,0c0,5.6-.025,11.2-.034,16.794v.432a4.75,4.75,0,0,0,1.141,3.251,4.106,4.106,0,0,0,3.257,1.3,4.853,4.853,0,0,0,1.762-.319,5.956,5.956,0,0,0,1.462-.805,1.646,1.646,0,0,0,.176-2.5" fill="#fff"/>
      <path id="Trazado_4265" data-name="Trazado 4265" d="M173.05,6.113a9,9,0,0,1,3.691.759,9.325,9.325,0,0,1,3,2.1,9.971,9.971,0,0,1,2.021,3.077,9.42,9.42,0,0,1,.733,3.7,9.158,9.158,0,0,1-.741,3.655,9.721,9.721,0,0,1-5.049,5.118,8.908,8.908,0,0,1-3.655.757,9.067,9.067,0,0,1-3.637-.74,9.471,9.471,0,0,1-3.011-2.048,9.608,9.608,0,0,1-2.038-3.034,9.626,9.626,0,0,1,0-7.407A9.9,9.9,0,0,1,166.4,8.98a9.68,9.68,0,0,1,3-2.1,8.761,8.761,0,0,1,3.646-.767M167.1,15.781a5.8,5.8,0,0,0,.818,3.036,6.166,6.166,0,0,0,2.174,2.176,5.714,5.714,0,0,0,2.979.81,5.6,5.6,0,0,0,3-.835,6.244,6.244,0,0,0,2.15-2.21,5.908,5.908,0,0,0,.8-3.011,6.158,6.158,0,0,0-.79-3.07,6.245,6.245,0,0,0-2.142-2.246,5.64,5.64,0,0,0-3.037-.842,5.582,5.582,0,0,0-3.044.85,6.256,6.256,0,0,0-2.907,5.342" fill="#fff"/>
    </g>
  </g>
</svg>
