<svg xmlns="http://www.w3.org/2000/svg" width="30" height="30" viewBox="0 0 30 30">
  <g id="Grupo_1766" data-name="Grupo 1766" transform="translate(-31 -471)">
    <g id="Grupo_1765" data-name="Grupo 1765">
      <g id="Elipse_267" data-name="Elipse 267" transform="translate(31 471)" fill="#eaeaea" stroke="#eaeaea" stroke-width="1">
        <circle cx="15" cy="15" r="15" stroke="none"/>
        <circle cx="15" cy="15" r="14.5" fill="none"/>
      </g>
      <circle id="Elipse_278" data-name="Elipse 278" cx="13" cy="13" r="13" transform="translate(33 473)" fill="#09b59a"/>
    </g>
    <g id="Grupo_1745" data-name="Grupo 1745" transform="translate(1421.475 1107.427)">
      <g id="Grupo_1736" data-name="Grupo 1736" transform="translate(-1370.857 -620.256)">
        <g id="Grupo_1735" data-name="Grupo 1735" transform="translate(0 0)">
          <path id="Trazado_4566" data-name="Trazado 4566" d="M-964.93-406.874a.478.478,0,0,0,.478-.478v-.478a.63.63,0,0,1,.637-.637h.637a.478.478,0,0,0,.478-.478.478.478,0,0,0-.478-.478h-.637a1.594,1.594,0,0,0-1.592,1.592v.478A.478.478,0,0,0-964.93-406.874Z" transform="translate(965.408 409.422)" fill="#fff"/>
        </g>
      </g>
      <g id="Grupo_1738" data-name="Grupo 1738" transform="translate(-1382.8 -620.256)">
        <g id="Grupo_1737" data-name="Grupo 1737" transform="translate(0 0)">
          <path id="Trazado_4567" data-name="Trazado 4567" d="M-1382.32-408.466h.478a.63.63,0,0,1,.637.637v.478a.478.478,0,0,0,.478.478.478.478,0,0,0,.478-.478v-.478a1.594,1.594,0,0,0-1.592-1.592h-.478a.478.478,0,0,0-.478.478A.478.478,0,0,0-1382.32-408.466Z" transform="translate(1382.798 409.421)" fill="#fff"/>
        </g>
      </g>
      <g id="Grupo_1740" data-name="Grupo 1740" transform="translate(-1370.857 -626.466)">
        <g id="Grupo_1739" data-name="Grupo 1739" transform="translate(0 0)">
          <path id="Trazado_4568" data-name="Trazado 4568" d="M-963.817-623.918h.637a.478.478,0,0,0,.478-.478.478.478,0,0,0-.478-.478h-.637a.63.63,0,0,1-.637-.637v-.478a.478.478,0,0,0-.478-.478.478.478,0,0,0-.478.478v.478A1.594,1.594,0,0,0-963.817-623.918Z" transform="translate(965.409 626.466)" fill="#fff"/>
        </g>
      </g>
      <g id="Grupo_1742" data-name="Grupo 1742" transform="translate(-1382.8 -626.466)">
        <g id="Grupo_1741" data-name="Grupo 1741" transform="translate(0 0)">
          <path id="Trazado_4569" data-name="Trazado 4569" d="M-1382.322-623.917h.637a1.594,1.594,0,0,0,1.593-1.592v-.478a.478.478,0,0,0-.478-.478.478.478,0,0,0-.478.478v.478a.63.63,0,0,1-.637.637h-.637a.478.478,0,0,0-.478.478A.478.478,0,0,0-1382.322-623.917Z" transform="translate(1382.8 626.465)" fill="#fff"/>
        </g>
      </g>
      <g id="Grupo_1744" data-name="Grupo 1744" transform="translate(-1378.102 -624.698)">
        <g id="Grupo_1743" data-name="Grupo 1743" transform="translate(0 0)">
          <path id="Trazado_4570" data-name="Trazado 4570" d="M-1216-559.436a2.63,2.63,0,0,0,2.627-2.627,2.63,2.63,0,0,0-2.627-2.627,2.63,2.63,0,0,0-2.627,2.627A2.63,2.63,0,0,0-1216-559.436Zm0-4.3a1.674,1.674,0,0,1,1.672,1.672,1.674,1.674,0,0,1-1.672,1.672,1.674,1.674,0,0,1-1.672-1.672A1.674,1.674,0,0,1-1216-563.736Z" transform="translate(1218.625 564.691)" fill="#fff"/>
        </g>
      </g>
      <path id="Trazado_4571" data-name="Trazado 4571" d="M-1212.827-357.929v3.567a.429.429,0,0,0,.429.429h0a.429.429,0,0,0,.429-.429v-3.567a0,0,0,0,1,0,0l1.411,1.41a.429.429,0,0,0,.607,0,.429.429,0,0,0,0-.607l-2.146-2.146a.429.429,0,0,0-.607,0l-2.146,2.146a.428.428,0,0,0-.126.3.428.428,0,0,0,.147.323.438.438,0,0,0,.595-.029l1.4-1.4A0,0,0,0,1-1212.827-357.929Z" transform="translate(-163.025 -259.426)" fill="#fff"/>
      <path id="Trazado_4572" data-name="Trazado 4572" d="M-1382-617.707h4.23v0a.479.479,0,0,0,.42-.475.478.478,0,0,0-.42-.475v0h-.018l-.04,0-.04,0h-3.972v-6.847h12.739v6.847h-3.84l-.04,0a.479.479,0,0,0-.479.479.479.479,0,0,0,.479.479h4.04a.8.8,0,0,0,.8-.8v-7.166a.8.8,0,0,0-.8-.8H-1382a.8.8,0,0,0-.8.8v7.166A.8.8,0,0,0-1382-617.707Z" transform="translate(-0.001 -0.001)" fill="#fff"/>
    </g>
  </g>
</svg>
