<svg xmlns="http://www.w3.org/2000/svg" width="30" height="30" viewBox="0 0 30 30">
  <g id="Grupo_1767" data-name="Grupo 1767" transform="translate(-31 -527)">
    <g id="Elipse_267" data-name="Elipse 267" transform="translate(31 527)" fill="#eaeaea" stroke="#eaeaea" stroke-width="1">
      <circle cx="15" cy="15" r="15" stroke="none"/>
      <circle cx="15" cy="15" r="14.5" fill="none"/>
    </g>
    <circle id="Elipse_279" data-name="Elipse 279" cx="13" cy="13" r="13" transform="translate(33 529)" fill="#6c00ff"/>
    <g id="Grupo_1734" data-name="Grupo 1734" transform="translate(846.583 1148.66)">
      <g id="Grupo_1725" data-name="Grupo 1725" transform="translate(-807.77 -610.186)">
        <g id="Grupo_1724" data-name="Grupo 1724" transform="translate(0 0)">
          <path id="Trazado_4559" data-name="Trazado 4559" d="M-805.583-462.473a.469.469,0,0,0-.469.469v.469a.618.618,0,0,1-.625.625h-.625a.469.469,0,0,0-.469.469.469.469,0,0,0,.469.469h.625a1.564,1.564,0,0,0,1.562-1.562V-462A.469.469,0,0,0-805.583-462.473Z" transform="translate(807.77 462.473)" fill="#fff"/>
        </g>
      </g>
      <g id="Grupo_1727" data-name="Grupo 1727" transform="translate(-795.896 -610.186)">
        <g id="Grupo_1726" data-name="Grupo 1726" transform="translate(0)">
          <path id="Trazado_4560" data-name="Trazado 4560" d="M-382.784-460.912h-.469a.618.618,0,0,1-.625-.625v-.469a.469.469,0,0,0-.469-.469.469.469,0,0,0-.469.469v.469a1.564,1.564,0,0,0,1.562,1.562h.469a.469.469,0,0,0,.469-.469A.469.469,0,0,0-382.784-460.912Z" transform="translate(384.815 462.474)" fill="#fff"/>
        </g>
      </g>
      <g id="Grupo_1729" data-name="Grupo 1729" transform="translate(-807.77 -604.092)">
        <g id="Grupo_1728" data-name="Grupo 1728" transform="translate(0 0)">
          <path id="Trazado_4561" data-name="Trazado 4561" d="M-806.676-245.43h-.625a.469.469,0,0,0-.469.469.469.469,0,0,0,.469.469h.625a.618.618,0,0,1,.625.625v.469a.469.469,0,0,0,.469.469.469.469,0,0,0,.469-.469v-.469A1.564,1.564,0,0,0-806.676-245.43Z" transform="translate(807.77 245.43)" fill="#fff"/>
        </g>
      </g>
      <g id="Grupo_1731" data-name="Grupo 1731" transform="translate(-796.052 -604.092)">
        <g id="Grupo_1730" data-name="Grupo 1730" transform="translate(0 0)">
          <path id="Trazado_4562" data-name="Trazado 4562" d="M-388.192-245.43h-.625a1.564,1.564,0,0,0-1.562,1.562v.469a.469.469,0,0,0,.469.469.469.469,0,0,0,.469-.469v-.469a.618.618,0,0,1,.625-.625h.625a.469.469,0,0,0,.469-.469A.469.469,0,0,0-388.192-245.43Z" transform="translate(390.379 245.43)" fill="#fff"/>
        </g>
      </g>
      <g id="Grupo_1733" data-name="Grupo 1733" transform="translate(-803.161 -608.483)">
        <g id="Grupo_1732" data-name="Grupo 1732" transform="translate(0 0)">
          <path id="Trazado_4563" data-name="Trazado 4563" d="M-641.018-401.812a2.581,2.581,0,0,0-2.578,2.578,2.581,2.581,0,0,0,2.578,2.578,2.581,2.581,0,0,0,2.578-2.578A2.581,2.581,0,0,0-641.018-401.812Zm0,4.218a1.642,1.642,0,0,1-1.641-1.641,1.642,1.642,0,0,1,1.641-1.641,1.642,1.642,0,0,1,1.641,1.641A1.642,1.642,0,0,1-641.018-397.594Z" transform="translate(643.596 401.812)" fill="#fff"/>
        </g>
      </g>
      <path id="Trazado_4564" data-name="Trazado 4564" d="M-641.49-613.011v3.5a.421.421,0,0,0,.421.421h0a.421.421,0,0,0,.421-.421v-3.5a0,0,0,0,1,0,0l1.384,1.384a.421.421,0,0,0,.6,0,.421.421,0,0,0,0-.6l-2.106-2.106a.421.421,0,0,0-.6,0l-2.106,2.106a.42.42,0,0,0-.123.3.42.42,0,0,0,.144.317.429.429,0,0,0,.584-.028l1.375-1.375A0,0,0,0,1-641.49-613.011Z" transform="translate(-159.565)" fill="#fff"/>
      <path id="Trazado_4565" data-name="Trazado 4565" d="M-794.177-462.473h-4.15v0a.47.47,0,0,0-.412.466.47.47,0,0,0,.412.466v0h.018l.04,0,.04,0h3.9v6.718h-12.5v-6.718h3.768l.04,0a.47.47,0,0,0,.47-.47.47.47,0,0,0-.47-.47h-3.964a.782.782,0,0,0-.781.781v7.031a.782.782,0,0,0,.781.781h12.812a.782.782,0,0,0,.781-.781v-7.031A.782.782,0,0,0-794.177-462.473Z" transform="translate(0 -147.713)" fill="#fff"/>
    </g>
  </g>
</svg>
