<svg id="Grupo_1570" data-name="Grupo 1570" xmlns="http://www.w3.org/2000/svg" xmlns:xlink="http://www.w3.org/1999/xlink" width="172.397" height="161.559" viewBox="0 0 172.397 161.559">
  <defs>
    <clipPath id="clip-path">
      <rect id="Rectángulo_267" data-name="Rectángulo 267" width="172.397" height="161.559" fill="#09b59a"/>
    </clipPath>
  </defs>
  <g id="Grupo_1569" data-name="Grupo 1569" clip-path="url(#clip-path)">
    <path id="Trazado_3579" data-name="Trazado 3579" d="M162.84,250.147a3.365,3.365,0,0,0-3.944,2.669A74.055,74.055,0,0,1,13.957,255l.879.879a3.367,3.367,0,1,0,4.762-4.761l-6.924-6.925a3.365,3.365,0,0,0-4.762,0L.987,251.116a3.367,3.367,0,1,0,4.762,4.761L7,254.63a80.788,80.788,0,0,0,158.514-.54,3.367,3.367,0,0,0-2.669-3.944" transform="translate(0 -157.937)" fill="#09b59a"/>
    <path id="Trazado_3580" data-name="Trazado 3580" d="M184.055,63.619a3.367,3.367,0,0,0-4.762,0l-1.247,1.247a80.788,80.788,0,0,0-158.514.54,3.367,3.367,0,0,0,6.613,1.274A74.055,74.055,0,0,1,171.086,64.5l-.879-.879a3.367,3.367,0,0,0-4.762,4.761l6.924,6.925a3.367,3.367,0,0,0,4.762,0l6.924-6.925a3.366,3.366,0,0,0,0-4.762" transform="translate(-12.645)" fill="#09b59a"/>
  </g>
</svg>
