<svg xmlns="http://www.w3.org/2000/svg" xmlns:xlink="http://www.w3.org/1999/xlink" width="125.242" height="107.118" viewBox="0 0 125.242 107.118">
  <defs>
    <clipPath id="clip-path">
      <rect id="Rectángulo_266" data-name="Rectángulo 266" width="107.489" height="88.79" fill="#0d0043"/>
    </clipPath>
  </defs>
  <g id="Grupo_1575" data-name="Grupo 1575" transform="translate(-133.758 -186.882)">
    <g id="Grupo_1573" data-name="Grupo 1573" transform="translate(133.758 186.882)">
      <g id="Grupo_1567" data-name="Grupo 1567" clip-path="url(#clip-path)">
        <path id="Trazado_3576" data-name="Trazado 3576" d="M99.6,14.069V5.211a2.1,2.1,0,0,0-2.1-2.1H88.162a2.1,2.1,0,0,0-2.1,2.1v8.857h-2.07L78.011,1.214A2.1,2.1,0,0,0,76.107,0H31.382a2.1,2.1,0,0,0-1.9,1.213L23.5,14.069H7.956A7.964,7.964,0,0,0,0,22.025v58.81a7.964,7.964,0,0,0,7.956,7.956H99.533a7.965,7.965,0,0,0,7.956-7.956V22.025a7.965,7.965,0,0,0-7.89-7.955m3.692,55.207H92.755v-35.9a4.789,4.789,0,0,1,4.784-4.785h5.752ZM90.262,7.311H95.4v6.757H90.262ZM32.72,4.2H74.768l4.594,9.869H28.127ZM4.2,28.591H9.95a4.79,4.79,0,0,1,4.785,4.785v35.9H4.2Zm99.092,52.244a3.761,3.761,0,0,1-3.757,3.757H7.956A3.761,3.761,0,0,1,4.2,80.835V73.475H40.107a2.1,2.1,0,0,0,0-4.2H18.933v-35.9A8.994,8.994,0,0,0,9.95,24.392H4.2V22.025a3.761,3.761,0,0,1,3.757-3.757H99.533a3.762,3.762,0,0,1,3.757,3.757v2.368H97.539a8.993,8.993,0,0,0-8.983,8.983v35.9H68.8a2.1,2.1,0,1,0,0,4.2h34.487Z" transform="translate(0 -0.001)" fill="#0d0043"/>
        <path id="Trazado_3577" data-name="Trazado 3577" d="M90.235,59.189A27.189,27.189,0,1,1,63.1,86.378,27.162,27.162,0,0,1,90.235,59.189" transform="translate(-36.491 -34.229)" fill="#6c00ff"/>
        <path id="Trazado_3578" data-name="Trazado 3578" d="M105.56,85.75a15.988,15.988,0,1,0,15.961,15.988A15.993,15.993,0,0,0,105.56,85.75m5.761,6.582a3.09,3.09,0,1,1-3.079,3.089,3.088,3.088,0,0,1,3.079-3.089m-5.761,21.2a11.789,11.789,0,0,1,0-23.579q.464,0,.92.036a7.281,7.281,0,1,0,10.678,9.786,11.8,11.8,0,0,1-11.6,13.757" transform="translate(-51.815 -49.589)" fill="#fff"/>
      </g>
    </g>
    <circle id="Elipse_233" data-name="Elipse 233" cx="23" cy="23" r="23" transform="translate(213 248)" fill="#ff3d47"/>
  </g>
</svg>
