<svg xmlns="http://www.w3.org/2000/svg" xmlns:xlink="http://www.w3.org/1999/xlink" width="172.397" height="161.559" viewBox="0 0 172.397 161.559">
  <defs>
    <clipPath id="clip-path">
      <rect id="Rect치ngulo_266" data-name="Rect치ngulo 266" width="83.004" height="68.564" fill="#0d0043"/>
    </clipPath>
    <clipPath id="clip-path-2">
      <rect id="Rect치ngulo_267" data-name="Rect치ngulo 267" width="172.397" height="161.559" fill="#09b59a"/>
    </clipPath>
  </defs>
  <g id="Grupo_1640" data-name="Grupo 1640" transform="translate(-101 -150)">
    <g id="Grupo_1568" data-name="Grupo 1568" transform="translate(146 196.995)">
      <g id="Grupo_1567" data-name="Grupo 1567" clip-path="url(#clip-path)">
        <path id="Trazado_3576" data-name="Trazado 3576" d="M76.911,10.865V4.025A1.621,1.621,0,0,0,75.29,2.4H68.079a1.621,1.621,0,0,0-1.621,1.621v6.84h-1.6L60.24.938A1.621,1.621,0,0,0,58.77,0H24.233a1.621,1.621,0,0,0-1.47.937l-4.62,9.926h-12A6.15,6.15,0,0,0,0,17.008V62.421a6.15,6.15,0,0,0,6.143,6.143H76.86A6.15,6.15,0,0,0,83,62.421V17.008a6.15,6.15,0,0,0-6.093-6.143M79.762,53.5H71.626V25.773a3.7,3.7,0,0,1,3.694-3.695h4.442ZM69.7,5.646h3.968v5.218H69.7Zm-44.434-2.4h32.47l3.547,7.621H21.72ZM3.242,22.079H7.683a3.7,3.7,0,0,1,3.695,3.695V53.5H3.242ZM79.762,62.422a2.9,2.9,0,0,1-2.9,2.9H6.143a2.9,2.9,0,0,1-2.9-2.9V56.738H30.971a1.621,1.621,0,0,0,0-3.242H14.62V25.773a6.945,6.945,0,0,0-6.937-6.937H3.242V17.008a2.9,2.9,0,0,1,2.9-2.9H76.86a2.9,2.9,0,0,1,2.9,2.9v1.828H75.32a6.945,6.945,0,0,0-6.936,6.937V53.5H53.13a1.621,1.621,0,1,0,0,3.242H79.762Z" transform="translate(0 -0.001)" fill="#0d0043"/>
        <path id="Trazado_3577" data-name="Trazado 3577" d="M84.054,59.189a21,21,0,1,1-20.954,21,20.975,20.975,0,0,1,20.954-21" transform="translate(-42.552 -39.915)" fill="#6c00ff"/>
        <path id="Trazado_3578" data-name="Trazado 3578" d="M101.924,85.75A12.346,12.346,0,1,0,114.249,98.1,12.35,12.35,0,0,0,101.924,85.75m4.449,5.083A2.386,2.386,0,1,1,104,93.218a2.385,2.385,0,0,1,2.378-2.386M101.924,107.2a9.1,9.1,0,0,1,0-18.208q.359,0,.711.028a5.622,5.622,0,1,0,8.246,7.557,9.109,9.109,0,0,1-8.956,10.623" transform="translate(-60.422 -57.827)" fill="#fff"/>
      </g>
    </g>
    <g id="Grupo_1570" data-name="Grupo 1570" transform="translate(101 150)">
      <g id="Grupo_1569" data-name="Grupo 1569" clip-path="url(#clip-path-2)">
        <path id="Trazado_3579" data-name="Trazado 3579" d="M162.84,250.147a3.365,3.365,0,0,0-3.944,2.669A74.055,74.055,0,0,1,13.957,255l.879.879a3.367,3.367,0,1,0,4.762-4.761l-6.924-6.925a3.365,3.365,0,0,0-4.762,0L.987,251.116a3.367,3.367,0,1,0,4.762,4.761L7,254.63a80.788,80.788,0,0,0,158.514-.54,3.367,3.367,0,0,0-2.669-3.944" transform="translate(0 -157.937)" fill="#09b59a"/>
        <path id="Trazado_3580" data-name="Trazado 3580" d="M184.055,63.619a3.367,3.367,0,0,0-4.762,0l-1.247,1.247a80.788,80.788,0,0,0-158.514.54,3.367,3.367,0,0,0,6.613,1.274A74.055,74.055,0,0,1,171.086,64.5l-.879-.879a3.367,3.367,0,0,0-4.762,4.761l6.924,6.925a3.367,3.367,0,0,0,4.762,0l6.924-6.925a3.366,3.366,0,0,0,0-4.762" transform="translate(-12.645)" fill="#09b59a"/>
      </g>
    </g>
  </g>
</svg>
