<svg xmlns="http://www.w3.org/2000/svg" width="46" height="46" viewBox="0 0 46 46">
  <g id="Grupo_1649" data-name="Grupo 1649" transform="translate(-213.242 -248)">
    <circle id="Elipse_233" data-name="Elipse 233" cx="23" cy="23" r="23" transform="translate(213.242 248)" fill="#ff3d47"/>
    <path id="Trazado_3354" data-name="Trazado 3354" d="M35.452,37.579l5.407,5.407a1.678,1.678,0,0,1,.487,1.19,1.713,1.713,0,0,1-.487,1.244l-1.19,1.189a1.905,1.905,0,0,1-1.244.487,1.59,1.59,0,0,1-1.19-.487L31.829,41.2l-5.407,5.407a1.678,1.678,0,0,1-1.19.487,1.713,1.713,0,0,1-1.244-.487L22.8,45.42a1.713,1.713,0,0,1-.487-1.244,1.678,1.678,0,0,1,.487-1.19l5.407-5.407L22.8,32.172a1.59,1.59,0,0,1-.487-1.19,1.906,1.906,0,0,1,.487-1.244l1.19-1.19a1.713,1.713,0,0,1,1.244-.487,1.678,1.678,0,0,1,1.19.487l5.407,5.407,5.407-5.407a1.59,1.59,0,0,1,1.19-.487,1.906,1.906,0,0,1,1.244.487l1.19,1.19a1.906,1.906,0,0,1,.487,1.244,1.591,1.591,0,0,1-.487,1.19Z" transform="translate(204.555 232.658)" fill="#fff"/>
  </g>
</svg>
