<svg xmlns="http://www.w3.org/2000/svg" width="60" height="60" viewBox="0 0 60 60">
  <g id="Grupo_1770" data-name="Grupo 1770" transform="translate(-115 -258)">
    <g id="Grupo_1766" data-name="Grupo 1766" transform="translate(87 10)">
      <rect id="Rectángulo_354" data-name="Rectángulo 354" width="60" height="60" rx="7" transform="translate(28 248)" fill="#f7f7f7"/>
      <text id="Transferir_dinero" data-name="Transferir
dinero" transform="translate(58 291)" fill="#414141" font-size="10" font-family="Rubik-Regular, Rubik"><tspan x="-22.37" y="0">Transferir</tspan><tspan x="-14.735" y="10">dinero</tspan></text>
    </g>
    <g id="Grupo_1764" data-name="Grupo 1764" transform="translate(107.141 100.364)">
      <g id="Grupo_1763" data-name="Grupo 1763" transform="translate(41.779 176.059)">
        <g id="Grupo_1762" data-name="Grupo 1762" transform="translate(0 0)">
          <path id="Trazado_4596" data-name="Trazado 4596" d="M268.9,317.734h-.736a.552.552,0,1,0,0,1.1h.736a.552.552,0,0,0,0-1.1Z" transform="translate(-267.612 -317.734)" fill="#414141"/>
        </g>
      </g>
      <path id="Trazado_4597" data-name="Trazado 4597" d="M329.848,171.433H323.54a.758.758,0,0,0-.759.759h0a.758.758,0,0,0,.759.759h6.307c.005,0,.005.005,0,.005l-2.5,2.5a.759.759,0,1,0,1.073,1.073l3.8-3.8a.755.755,0,0,0,0-1.073l-3.8-3.8a.76.76,0,0,0-1.109.035.774.774,0,0,0,.051,1.053l2.48,2.486Z" transform="translate(-277.906 0)" fill="#ff7773"/>
      <path id="Trazado_4598" data-name="Trazado 4598" d="M46.377,191.779v0H42.331a2.759,2.759,0,1,0,0,5.518h4.046v2.391a1.657,1.657,0,0,1-1.655,1.655H31.112a1.657,1.657,0,0,1-1.655-1.655v-10.3a1.657,1.657,0,0,1,1.655-1.655h13.61a1.655,1.655,0,0,1,1.419.8h1.205a2.763,2.763,0,0,0-2.624-1.908H31.112a2.762,2.762,0,0,0-2.759,2.759v10.3a2.762,2.762,0,0,0,2.759,2.759h13.61a2.762,2.762,0,0,0,2.759-2.759V191.78C47.113,191.783,46.745,191.8,46.377,191.779Zm0,4.418H42.331a1.655,1.655,0,1,1,0-3.311h4.046Z" transform="translate(0 -17.931)" fill="#414141"/>
      <circle id="Elipse_287" data-name="Elipse 287" cx="0.549" cy="0.549" r="0.549" transform="translate(46.382 173.367)"/>
      <path id="Trazado_4599" data-name="Trazado 4599" d="M345.909,221.073a.6.6,0,0,0,.6-.6h-1.206A.6.6,0,0,0,345.909,221.073Z" transform="translate(-299.167 -49.869)"/>
    </g>
  </g>
</svg>
