<svg xmlns="http://www.w3.org/2000/svg" xmlns:xlink="http://www.w3.org/1999/xlink" width="125.242" height="134" viewBox="0 0 125.242 134">
  <defs>
    <clipPath id="clip-path">
      <rect id="Rectángulo_275" data-name="Rectángulo 275" width="107.489" height="120.142" fill="none"/>
    </clipPath>
    <clipPath id="clip-path-2">
      <rect id="Rectángulo_212" data-name="Rectángulo 212" width="25.937" height="19.351" transform="translate(0 0)" fill="#fff"/>
    </clipPath>
  </defs>
  <g id="Grupo_1647" data-name="Grupo 1647" transform="translate(-133.758 -132)">
    <g id="Grupo_1593" data-name="Grupo 1593" transform="translate(133.758 132)">
      <g id="Grupo_1592" data-name="Grupo 1592" clip-path="url(#clip-path)">
        <path id="Trazado_3757" data-name="Trazado 3757" d="M295.465,106.419a2.339,2.339,0,0,1-1.661-.689c-.746-.7-8.535-7.023-13.694-11.211l-.253-.205a2.346,2.346,0,0,1,2.957-3.644l.253.205c9.484,7.7,13.536,11,14.078,11.558a2.347,2.347,0,0,1-1.679,3.985m-1.655-.682h0Z" transform="translate(-193.19 -62.423)" fill="#0d0043"/>
        <path id="Trazado_3758" data-name="Trazado 3758" d="M11.672,106.421a2.346,2.346,0,0,1-1.679-3.985c.759-.777,9.642-8.071,14.192-11.763a2.346,2.346,0,0,1,2.957,3.644c-6.371,5.17-13.159,10.8-13.8,11.411a2.339,2.339,0,0,1-1.664.692" transform="translate(-6.458 -62.425)" fill="#0d0043"/>
        <path id="Trazado_3759" data-name="Trazado 3759" d="M156.408,13.068a2.337,2.337,0,0,1-1.468-.517c-3.974-3.191-7.2-5.781-8.97-7.2-1.766,1.416-5,4.006-8.97,7.2a2.347,2.347,0,0,1-2.939-3.659C140.156,4,144.5.516,144.5.516a2.345,2.345,0,0,1,2.934,0S151.784,4,157.878,8.892a2.347,2.347,0,0,1-1.47,4.176" transform="translate(-92.226 0)" fill="#0d0043"/>
        <path id="Trazado_3760" data-name="Trazado 3760" d="M127.75,26.734v45.1l-7.273,7.739L103.506,97.63l-.231,0-5.89-6H83l-5.737,5.848-.534,0L59.908,79.576l-7.273-7.739v-45.1Z" transform="translate(-36.448 -18.512)" fill="#6c00ff"/>
        <path id="Trazado_3761" data-name="Trazado 3761" d="M103.953,128.5a2.347,2.347,0,0,0-3.318-.039c-.04.039-.078.079-.114.12L66.91,164.345l-4.3-4.379a2.347,2.347,0,0,0-1.675-.7H46.551a2.346,2.346,0,0,0-1.675.7l-4.3,4.379-33.61-35.76c-.037-.041-.075-.081-.114-.12a2.347,2.347,0,0,0-3.318.039A12.353,12.353,0,0,0,0,137.182V196.2a12.321,12.321,0,0,0,3.846,8.987l.012.012a12.405,12.405,0,0,0,8.6,3.439H95.03a12.406,12.406,0,0,0,8.6-3.439l.013-.012a12.321,12.321,0,0,0,3.846-8.987V137.182a12.353,12.353,0,0,0-3.536-8.679m-1.92,5.324a7.7,7.7,0,0,1,.763,3.354V196.2a7.675,7.675,0,0,1-.964,3.747L70.2,167.7ZM5.657,199.946a7.675,7.675,0,0,1-.964-3.747V137.182a7.7,7.7,0,0,1,.763-3.354L37.291,167.7Zm89.374,4H12.459a7.761,7.761,0,0,1-3.392-.774l38.469-39.214H59.953L98.422,203.17a7.76,7.76,0,0,1-3.392.774" transform="translate(0 -88.495)" fill="#0d0043"/>
        <path id="Trazado_3762" data-name="Trazado 3762" d="M124.835,327.081a2.347,2.347,0,0,0,2.346,2.346H153.2a2.347,2.347,0,0,0,0-4.693H127.181a2.347,2.347,0,0,0-2.346,2.347" transform="translate(-86.444 -224.867)" fill="#0d0043"/>
        <path id="Trazado_3763" data-name="Trazado 3763" d="M145.962,117.255a2.341,2.341,0,0,1-.784-.135l-8.111-2.875-8.111,2.876a2.347,2.347,0,0,1-3.13-2.276l.237-8.573-5.247-6.8a2.346,2.346,0,0,1,1.2-3.685l8.256-2.427,4.865-7.077a2.346,2.346,0,0,1,3.867,0l4.865,7.077,8.256,2.427a2.346,2.346,0,0,1,1.2,3.685l-5.247,6.8.237,8.573a2.346,2.346,0,0,1-2.346,2.411m-8.9-7.847a2.352,2.352,0,0,1,.784.135l5.671,2.011-.165-5.99a2.349,2.349,0,0,1,.488-1.5l3.661-4.743-5.763-1.694a2.347,2.347,0,0,1-1.272-.922l-3.4-4.951-3.4,4.951a2.346,2.346,0,0,1-1.272.922l-5.763,1.694,3.661,4.743a2.347,2.347,0,0,1,.488,1.5l-.165,5.99,5.671-2.011a2.353,2.353,0,0,1,.785-.135" transform="translate(-83.322 -59.044)" fill="#fff"/>
      </g>
    </g>
    <g id="Componente_53_16" data-name="Componente 53 – 16" transform="translate(213 220)">
      <circle id="Elipse_233" data-name="Elipse 233" cx="23" cy="23" r="23" fill="#09b59a"/>
      <g id="Grupo_1511" data-name="Grupo 1511" transform="translate(10.643 13.735)">
        <g id="Grupo_1422" data-name="Grupo 1422" transform="translate(0 0)" clip-path="url(#clip-path-2)">
          <path id="Trazado_3323" data-name="Trazado 3323" d="M.354,10.537a1.351,1.351,0,0,1,0-1.824L2.228,6.891a1.132,1.132,0,0,1,.886-.406,1.29,1.29,0,0,1,.938.406l5.674,5.672L21.884.406A1.287,1.287,0,0,1,22.823,0a1.132,1.132,0,0,1,.886.406l1.874,1.822a1.24,1.24,0,0,1,.354.912,1.236,1.236,0,0,1-.354.912L10.639,18.947a1.231,1.231,0,0,1-1.824,0Z" transform="translate(0 0)" fill="#fff"/>
        </g>
      </g>
    </g>
  </g>
</svg>
