<svg xmlns="http://www.w3.org/2000/svg" width="64.085" height="20.754" viewBox="0 0 64.085 20.754">
  <g id="Grupo_1787" data-name="Grupo 1787" transform="translate(-5 -13.499)">
    <g id="Grupo_1771" data-name="Grupo 1771" transform="translate(5 13.499)">
      <path id="Trazado_4673" data-name="Trazado 4673" d="M776.751,552.012l2.076,2.384,2.145-2.368h1.718v.732L780,555.737l2.688,3.183v-6.893h4.852a2.111,2.111,0,0,1,2.263,2.331c0,2.674-1.77,2.705-2.74,2.705h-2.519v2.589h-3.591l-2.194-2.537-2.247,2.518h-7.141V552.01h7.378v0Zm21.98,0h6.119v1.643H800.6v1.428h4.128v1.446H800.6v1.51h4.247v1.6h-6.119v-7.623Zm-6.168,7.642H790.69v-7.624h4.867a2.012,2.012,0,0,1,2.247,2.041,2.083,2.083,0,0,1-1.293,2.112c.884.1,1.226.681,1.226,1.906l.068,1.566h-1.822l-.05-1.4c-.016-.645-.272-1.292-.918-1.292h-2.452v2.689Zm24.039-4.67c2.3.115,2.493,1.266,2.493,2.491a2.226,2.226,0,0,1-2.4,2.2h-3.931v-1.632h3.064c.52,0,1.294,0,1.294-.735,0-.348-.137-.569-.69-.63q-.645-.062-1.292-.089c-2.078-.055-2.561-1.088-2.561-2.347a2.1,2.1,0,0,1,2.23-2.211h3.931v1.635h-2.877c-.654.008-1.361-.078-1.361.664,0,.467.35.56.791.605.153,0,1.174.053,1.31.053Zm-7.012,0c2.3.115,2.494,1.266,2.494,2.491a2.227,2.227,0,0,1-2.4,2.2H805.75v-1.632h3.064c.519,0,1.3,0,1.3-.735,0-.348-.137-.569-.69-.63-.248-.034-1.158-.086-1.292-.089-2.079-.055-2.561-1.088-2.561-2.347a2.1,2.1,0,0,1,2.229-2.211h3.932v1.635H808.85c-.655.008-1.361-.078-1.361.664,0,.467.349.56.792.605.151,0,1.173.053,1.308.053Zm-24.67-8.435h-1.872v-7.624h4.867a2.014,2.014,0,0,1,2.249,2.041,2.082,2.082,0,0,1-1.294,2.112c.885.1,1.226.681,1.226,1.906l.068,1.566h-1.821l-.052-1.4c-.017-.647-.271-1.292-.919-1.292h-2.45v2.688Zm6.2,0h1.871v-7.633h-1.871Zm-15.26-7.624h6.118v1.642h-4.242V542h4.125v1.448h-4.125v1.505h4.242v1.6h-6.118Zm-13.663,7.624h3.77V540.89l2.5,5.658h1.7l2.56-5.565v5.565H774.6v-7.624h-2.986l-2.3,5.115-2.289-5.115h-2.936v7.344l-3.268-7.344h-2.475l-3.336,7.624h1.975l.73-1.7h3.735Zm41.566-1.7h-3.734l-.732,1.7h-2.469c-2.076,0-3-1.74-2.952-3.85.063-3.132,1.914-3.783,2.766-3.783h2.443v1.659h-1.157c-1.243,0-2.213.13-2.213,1.916v.553c.009,1.344.713,1.662,1.164,1.756a1.772,1.772,0,0,0,.39.03l.81,0,2.578-5.906h2.478l3.191,7.156v-7.161h2.764l3.157,5.279v-5.279h1.871v7.633h-2.552l-3.369-5.583v5.583H804.5l-.742-1.7Z" transform="translate(-755.01 -538.915)" fill="#00acec"/>
      <path id="Trazado_4675" data-name="Trazado 4675" d="M859.438,590.89h2.332a.9.9,0,0,0,1.037-.954c0-.374-.246-.874-1.03-.874h-2.339v1.828Zm-9.055-1.845h-4.245v1.427h4.125v1.446h-4.125v1.51h4.314l2.06-2.3-1.822-2.076-.307-.007Zm17.071,1.744h2.332c.765,0,1.037-.341,1.037-.853,0-.374-.246-.874-1.03-.874h-2.339v1.727Zm-7.643-13.105h2.332c.766,0,1.037-.34,1.037-.851a.9.9,0,0,0-1.03-.877h-2.339v1.729Zm-24.193.912h-2.279l1.118-2.666,1.161,2.666Zm41.146-2.662-1.115,2.665h2.287l-1.173-2.665Z" transform="translate(-829.901 -574.304)" fill="#fff"/>
    </g>
  </g>
</svg>
