<svg xmlns="http://www.w3.org/2000/svg" width="94" height="11.709" viewBox="0 0 94 11.709">
  <g id="Grupo_1757" data-name="Grupo 1757" transform="translate(-466 -992)">
    <path id="Trazado_4577" data-name="Trazado 4577" d="M552.283,1003.626v-5.331h4.484v-.731h-4.484v-4.817h6.046V992H551.4v11.626Z" transform="translate(-43.996 0)" fill="#fff"/>
    <path id="Trazado_4578" data-name="Trazado 4578" d="M569.733,999.008c0-.847-.083-.947-.448-.947H568.9v8.653h.831v-6.378a3.868,3.868,0,0,1,2.874-1.627c.149,0,.365.016.365.016v-.664a.788.788,0,0,0-.4-.066,3.787,3.787,0,0,0-2.84,1.561v-.548Z" transform="translate(-53.011 -3.088)" fill="#fff"/>
    <path id="Trazado_4579" data-name="Trazado 4579" d="M584.583,1005.832c0,.7.116.847.6.847h.232v-6.311c0-1.794-1.163-2.442-2.923-2.442a6.15,6.15,0,0,0-3.072.747v.681h.349a4.259,4.259,0,0,1,2.691-.763c1.262,0,2.125.481,2.125,1.827v1.561a9.005,9.005,0,0,0-2.275-.266c-2.026,0-3.471.8-3.471,2.541a2.48,2.48,0,0,0,2.79,2.508,3.689,3.689,0,0,0,2.956-1.263v.332Zm-2.84.283a1.81,1.81,0,0,1-2.059-1.927c0-1.329,1.146-1.877,2.674-1.877a9.984,9.984,0,0,1,2.225.266v2.126a3.387,3.387,0,0,1-2.84,1.412Z" transform="translate(-58.13 -3.053)" fill="#fff"/>
    <path id="Trazado_4580" data-name="Trazado 4580" d="M597.921,998.889c0-.764-.083-.863-.448-.863h-.382v8.653h.83v-6.594a6.074,6.074,0,0,1,3.488-1.461c.98,0,1.727.332,1.727,1.711v6.344h.831v-6.444a2.009,2.009,0,0,0-2.242-2.309,6.158,6.158,0,0,0-3.8,1.478v-.515Z" transform="translate(-67.533 -3.053)" fill="#fff"/>
    <path id="Trazado_4581" data-name="Trazado 4581" d="M618.419,1006.745a4.083,4.083,0,0,0,2.907-1.029v-.631h-.382a3.156,3.156,0,0,1-2.491,1c-2.027,0-3.239-1.378-3.239-3.754,0-2.358,1.313-3.737,3.239-3.737a3.027,3.027,0,0,1,2.292.83h.432v-.664a4.05,4.05,0,0,0-2.707-.831c-2.408,0-4.1,1.661-4.1,4.4,0,2.724,1.512,4.418,4.053,4.418Z" transform="translate(-76.433 -3.053)" fill="#fff"/>
    <path id="Trazado_4582" data-name="Trazado 4582" d="M631.25,999.324h6.527c0-.033.017-.233.017-.4,0-2.824-1.428-4.053-3.554-4.053-2.209,0-3.836,1.727-3.836,4.451,0,2.691,1.445,4.368,4.052,4.368a4.831,4.831,0,0,0,3.139-.963v-.614h-.366a3.686,3.686,0,0,1-2.691.9c-2.159,0-3.288-1.262-3.288-3.687Zm2.99-3.82c1.611,0,2.674.88,2.724,3.189h-5.7c.2-2.126,1.378-3.189,2.973-3.189Zm.216-1.395,1.561-1.778V992h-.83l-1.246,1.843v.266Z" transform="translate(-84.695 0)" fill="#fff"/>
    <path id="Trazado_4583" data-name="Trazado 4583" d="M650.44,1006.745c2.159,0,3.139-.98,3.139-2.574,0-1.528-1-2.076-2.807-2.359-1.677-.282-2.259-.664-2.259-1.661,0-1.047.731-1.578,2.142-1.578a3.082,3.082,0,0,1,2.16.681h.332v-.681a4.4,4.4,0,0,0-2.508-.648c-1.727,0-2.907.8-2.907,2.292,0,1.461,1.046,2.043,2.707,2.308,1.76.283,2.325.7,2.325,1.711,0,1.2-.764,1.86-2.358,1.86a3.464,3.464,0,0,1-2.425-.847h-.332v.681a4.425,4.425,0,0,0,2.79.814Z" transform="translate(-93.579 -3.053)" fill="#fff"/>
    <path id="Trazado_4584" data-name="Trazado 4584" d="M527.333,992.01c.919,0,1.094.229,1.416,1.192l3.55,10.506h-3.163l-.771-2.525h-4.257l-.768,2.526h-1.825l3.581-11.7,2.236,0Zm.5,7.459h-3.217l1.6-5.337,1.619,5.337Z" transform="translate(-28.6 -0.004)" fill="#fff" fill-rule="evenodd"/>
    <path id="Trazado_4585" data-name="Trazado 4585" d="M491.33,1003.709h-4.914v-11.7h5.094c2.388,0,3.22,1.946,2.011,3.742l-.572.847c4.006,2.081,2.7,7.115-1.618,7.115Zm-.584-6.555.976-1.457a1.387,1.387,0,0,0,.3-.85,1.357,1.357,0,0,0-1.353-1.315h-1.5v8.606H490a2.569,2.569,0,0,0,.747-4.983Z" transform="translate(-10.518 -0.003)" fill="#fff" fill-rule="evenodd"/>
    <path id="Trazado_4586" data-name="Trazado 4586" d="M470.915,1003.709H466v-11.7h5.094c2.387,0,3.22,1.946,2.01,3.742l-.571.847c4.006,2.081,2.7,7.115-1.618,7.115Zm-.584-6.555.976-1.457a1.383,1.383,0,0,0,.3-.85,1.356,1.356,0,0,0-1.352-1.315h-1.5v8.606h.83a2.569,2.569,0,0,0,.747-4.983Z" transform="translate(0 -0.003)" fill="#fff" fill-rule="evenodd"/>
    <path id="Trazado_4587" data-name="Trazado 4587" d="M511.656,992.005H513.5l-3.566,11.7-2.808,0-3.825-11.7,2.067,0c.8,0,1.008.206,1.425,1.531l2.215,7.355,2.645-8.887Z" transform="translate(-19.218 -0.003)" fill="#fff" fill-rule="evenodd"/>
  </g>
</svg>
