<svg xmlns="http://www.w3.org/2000/svg" width="38" height="38" viewBox="0 0 38 38">
  <g id="Grupo_1788" data-name="Grupo 1788" transform="translate(-4)">
    <rect id="Rectángulo_367" data-name="Rectángulo 367" width="38" height="38" transform="translate(4)" fill="#fff"/>
    <g id="Grupo_1772" data-name="Grupo 1772" transform="translate(-452 -893)">
      <path id="Trazado_4676" data-name="Trazado 4676" d="M459,895h35.327v37.322H459V895Z" transform="translate(-1.661 -1.661)" fill="#005289" fill-rule="evenodd"/>
      <path id="Trazado_4677" data-name="Trazado 4677" d="M457.339,893h35.666v38H457V893Zm34.989.678h-34.65v36.645h34.65V893.678Z" transform="translate(0 0)" fill="#fff"/>
      <path id="Trazado_4678" data-name="Trazado 4678" d="M489.885,1059.559a3.33,3.33,0,0,1-1,.9,2.5,2.5,0,0,1-2.826-.288,2.047,2.047,0,0,1-.633-1.563v-.012a3.323,3.323,0,0,1,.042-.49,4.5,4.5,0,0,1,.109-.53,3.46,3.46,0,0,1,1.221-1.826,3.126,3.126,0,0,1,1.992-.739,3.176,3.176,0,0,1,1.2.232.34.34,0,0,0,.263.005.393.393,0,0,0,.2-.19l.025-.048h.255l-.427,1.884h-.257a1.841,1.841,0,0,0-.21-1.192.96.96,0,0,0-.858-.416,1.679,1.679,0,0,0-1.212.666,3.95,3.95,0,0,0-.864,1.637q-.09.34-.146.68a3.927,3.927,0,0,0-.053.6,1.657,1.657,0,0,0,.322,1.08,1.084,1.084,0,0,0,.885.392,1.936,1.936,0,0,0,.954-.249,2.451,2.451,0,0,0,.789-.725l.242.186Zm.964.186,2.944-4.713H494l.771,4.637a1.286,1.286,0,0,0,.216.593.635.635,0,0,0,.464.164l-.052.2h-2.452l.052-.2a.705.705,0,0,0,.537-.164.846.846,0,0,0,.048-.593l-.1-.744h-1.727l-.148.253a2.352,2.352,0,0,0-.438.99c.012.161.187.247.526.258l-.052.2h-1.569l.052-.2a.763.763,0,0,0,.352-.176,2.833,2.833,0,0,0,.369-.5Zm2.307-3.121-1.2,1.973h1.48l-.28-1.973Zm3.457,3.045.976-3.561c.079-.294.082-.49.005-.59s-.266-.156-.569-.166l.056-.2h2.232a2.675,2.675,0,0,1,1.4.3.953.953,0,0,1,.474.86v.011a1.214,1.214,0,0,1-.7,1.109,2.85,2.85,0,0,1-.856.3h0a2.417,2.417,0,0,1,.528.216,1.1,1.1,0,0,1,.608,1.02,1.4,1.4,0,0,1-.676,1.233,3.4,3.4,0,0,1-1.872.435h-2.332l.052-.2a.625.625,0,0,0,.419-.18,1.517,1.517,0,0,0,.249-.576Zm2.284-3.945-.522,1.884h.124a1.552,1.552,0,0,0,1.114-.356,1.421,1.421,0,0,0,.371-1.072.8.8,0,0,0-.178-.56.65.65,0,0,0-.507-.2h-.024a.42.42,0,0,0-.255.06.441.441,0,0,0-.124.24Zm-.589,2.144-.549,2q-.076.289-.008.385c.045.064.164.1.356.1h.056a1.235,1.235,0,0,0,.991-.43,1.755,1.755,0,0,0,.37-1.166.826.826,0,0,0-.27-.671,1.285,1.285,0,0,0-.826-.218Zm3.468,1.877,2.944-4.713h.212l.771,4.637a1.288,1.288,0,0,0,.216.593.635.635,0,0,0,.464.164l-.052.2H503.88l.052-.2q.42-.012.537-.164a.846.846,0,0,0,.048-.593l-.1-.744h-1.727l-.148.253a2.355,2.355,0,0,0-.438.99c.012.161.187.247.526.258l-.052.2H501l.052-.2a.765.765,0,0,0,.352-.176,2.833,2.833,0,0,0,.369-.5Zm2.307-3.121-1.2,1.973h1.48l-.28-1.973Zm2.753,4,.052-.2a.6.6,0,0,0,.418-.176,1.518,1.518,0,0,0,.25-.58l.976-3.561c.081-.294.082-.49.007-.59s-.266-.156-.571-.166l.056-.2h2.523l-.056.2a.782.782,0,0,0-.49.181,1.334,1.334,0,0,0-.266.575l-1,3.658c-.067.242-.073.4-.015.483s.209.119.455.116a3.1,3.1,0,0,0,1.507-.34,2.2,2.2,0,0,0,.937-1.02h.244l-.253.811-.247.813h-4.529Z" transform="translate(-23.606 -134.568)" fill="#fff"/>
      <path id="Trazado_4679" data-name="Trazado 4679" d="M500.382,929.426l9.892-9.892v5.132l-4.76,4.76,4.76,4.76v5.132l-9.892-9.892Zm11.222-9.892,9.892,9.892-9.892,9.892v-5.132l4.76-4.76-4.76-4.76v-5.132Z" transform="translate(-36.033 -22.039)" fill="#fff" fill-rule="evenodd"/>
    </g>
  </g>
</svg>
