<svg xmlns="http://www.w3.org/2000/svg" width="94" height="18.277" viewBox="0 0 94 18.277">
  <g id="Grupo_1769" data-name="Grupo 1769" transform="translate(-129.5 -240.97)">
    <path id="Trazado_4659" data-name="Trazado 4659" d="M136.719,240.97h.466a7.22,7.22,0,0,1,3.55,1.029,5.813,5.813,0,0,1,1.243,1.064c-2.132,2.388-4.276,4.772-6.249,7.3-1.571,2.042-3.073,4.137-4.546,6.25a11.049,11.049,0,0,1-1.683-5.995v-.98a14.7,14.7,0,0,1,.5-3.491,7.2,7.2,0,0,1,2.443-3.855A7.04,7.04,0,0,1,136.719,240.97Z" transform="translate(0 0)" fill="#fff" fill-rule="evenodd"/>
    <path id="Trazado_4660" data-name="Trazado 4660" d="M588.331,256.118c.541,0,1.082,0,1.624,0q0,5.412,0,10.825h-1.367a5.033,5.033,0,0,0-.188-.7,2.864,2.864,0,0,1-1.738.815,2.208,2.208,0,0,1-1.976-.831,5.124,5.124,0,0,1-.828-3.228,4.611,4.611,0,0,1,.811-2.946,2.853,2.853,0,0,1,3.664-.447c0-1.163,0-2.326,0-3.489Zm-2.415,5.11h0a3.69,3.69,0,0,0-.391,1.844,4.372,4.372,0,0,0,.286,1.814,1.326,1.326,0,0,0,.849.759,1.983,1.983,0,0,0,1.671-.385q0-2.26,0-4.519a2.566,2.566,0,0,0-1.45-.214A1.413,1.413,0,0,0,585.916,261.228Z" transform="translate(-381.085 -12.704)" fill="#fff" fill-rule="evenodd"/>
    <path id="Trazado_4661" data-name="Trazado 4661" d="M679.215,256.119h1.6v10.825c-.447,0-.894,0-1.339,0-.054-.235-.11-.47-.177-.7a2.93,2.93,0,0,1-1.719.817,2.215,2.215,0,0,1-2.025-.853,5.316,5.316,0,0,1-.808-3.347,4.358,4.358,0,0,1,.893-2.9,2.883,2.883,0,0,1,3.581-.354c0-1.162,0-2.324,0-3.485Zm-2.428,5.134h0a3.716,3.716,0,0,0-.377,1.826,4.291,4.291,0,0,0,.294,1.827,1.322,1.322,0,0,0,.818.735,1.975,1.975,0,0,0,1.692-.379q0-2.26,0-4.52a2.556,2.556,0,0,0-1.482-.208A1.418,1.418,0,0,0,676.787,261.253Z" transform="translate(-457.311 -12.705)" fill="#fff" fill-rule="evenodd"/>
    <path id="Trazado_4662" data-name="Trazado 4662" d="M148.129,264.3q2.659-3.409,5.141-6.954a7.985,7.985,0,0,1,1.262,2.717,15.029,15.029,0,0,1,.44,3.893,13.411,13.411,0,0,1-.761,4.659,6.71,6.71,0,0,1-2.346,3.172,7.042,7.042,0,0,1-4,1.193,7.362,7.362,0,0,1-4.118-1.013,5.73,5.73,0,0,1-1.287-1.115C144.378,268.695,146.316,266.548,148.129,264.3Z" transform="translate(-10.866 -13.734)" fill="#fff" fill-rule="evenodd"/>
    <path id="Trazado_4663" data-name="Trazado 4663" d="M517.351,258.335h1.637q0,.758,0,1.517h-1.637Q517.351,259.093,517.351,258.335Z" transform="translate(-325.304 -14.564)" fill="#fff" fill-rule="evenodd"/>
    <path id="Trazado_4664" data-name="Trazado 4664" d="M472.442,260.1a3.407,3.407,0,0,1,2.478-1.22,5.961,5.961,0,0,1,2.451.311q0,.709,0,1.418a5.281,5.281,0,0,0-2.072-.3,1.863,1.863,0,0,0-1.514,1,7.635,7.635,0,0,0-.068,5.495,1.839,1.839,0,0,0,1.295,1.023,4.042,4.042,0,0,0,2.428-.471c0,.444,0,.889,0,1.334a4.01,4.01,0,0,1-3.251.564,3.225,3.225,0,0,1-2.13-1.674,8.2,8.2,0,0,1-.663-4.112A5.7,5.7,0,0,1,472.442,260.1Z" transform="translate(-286.751 -15.015)" fill="#fff" fill-rule="evenodd"/>
    <path id="Trazado_4665" data-name="Trazado 4665" d="M245.436,260c1.134,0,2.268,0,3.4,0a3.351,3.351,0,0,1,2.188.7,2.36,2.36,0,0,1,.7,1.747,2.722,2.722,0,0,1-.552,1.887,2.454,2.454,0,0,1-.779.524,2.519,2.519,0,0,1,1.265.927,3.205,3.205,0,0,1,.346,2.087,2.436,2.436,0,0,1-.955,1.7,4,4,0,0,1-2.35.627q-1.634,0-3.267,0,0-5.1,0-10.2Zm1.724,1.346h0q0,1.513,0,3.026c.463,0,.925,0,1.388,0a1.374,1.374,0,0,0,.994-.356,1.624,1.624,0,0,0,.379-1.135,1.606,1.606,0,0,0-.361-1.16,1.376,1.376,0,0,0-1.005-.372c-.465-.007-.93,0-1.394,0Zm0,4.22h0v3.28c.463,0,.926,0,1.389,0a1.806,1.806,0,0,0,1.136-.288,1.478,1.478,0,0,0,.529-1.044,1.957,1.957,0,0,0-.275-1.4,1.484,1.484,0,0,0-1.17-.545C248.231,265.563,247.695,265.572,247.159,265.569Z" transform="translate(-97.239 -15.963)" fill="#fff" fill-rule="evenodd"/>
    <path id="Trazado_4666" data-name="Trazado 4666" d="M295.275,275.279a7.15,7.15,0,0,1,2.937-.347,2.456,2.456,0,0,1,1.627.8,2.28,2.28,0,0,1,.465,1.483c0,1.827.005,3.655,0,5.483-.449,0-.9,0-1.348,0-.051-.219-.1-.438-.154-.655a3.114,3.114,0,0,1-2.5.741,1.848,1.848,0,0,1-1.267-.775,2.73,2.73,0,0,1-.336-1.868,2.016,2.016,0,0,1,.749-1.363,2.979,2.979,0,0,1,1.516-.532c.567-.056,1.135-.109,1.7-.165a2.161,2.161,0,0,0-.213-1.318,1.677,1.677,0,0,0-1.342-.511,6.964,6.964,0,0,0-1.834.267c0-.412,0-.823,0-1.234Zm2.07,4.028h0a1.094,1.094,0,0,0-.909.6,1.55,1.55,0,0,0,.025,1.257.979.979,0,0,0,.939.405,2.763,2.763,0,0,0,1.266-.411c0-.657,0-1.315,0-1.972C298.225,279.226,297.783,279.256,297.344,279.307Z" transform="translate(-138.529 -28.455)" fill="#fff" fill-rule="evenodd"/>
    <path id="Trazado_4667" data-name="Trazado 4667" d="M343.553,275.714a3.5,3.5,0,0,1,1.783-.806,2.136,2.136,0,0,1,1.728.484,2.078,2.078,0,0,1,.529,1.519q0,2.89,0,5.779c-.541,0-1.082,0-1.624,0q0-2.631,0-5.261a1.442,1.442,0,0,0-.207-.876,1.007,1.007,0,0,0-.878-.274,3.172,3.172,0,0,0-1.265.473q0,2.97,0,5.94c-.541,0-1.083,0-1.624,0q0-3.842,0-7.685c.518,0,1.035,0,1.553,0C343.547,275.239,343.547,275.477,343.553,275.714Z" transform="translate(-178.227 -28.451)" fill="#fff" fill-rule="evenodd"/>
    <path id="Trazado_4668" data-name="Trazado 4668" d="M387.284,276.04a2.638,2.638,0,0,1,1.632-1.053,4.821,4.821,0,0,1,2.582.239q0,.667,0,1.334a3.951,3.951,0,0,0-2.051-.259,1.5,1.5,0,0,0-1.073,1.263,7.745,7.745,0,0,0-.04,2.377,1.642,1.642,0,0,0,.947,1.43,3.3,3.3,0,0,0,2.288-.347c0,.413,0,.826,0,1.238a3.565,3.565,0,0,1-2.682.483,2.576,2.576,0,0,1-1.692-1.177,5.152,5.152,0,0,1-.6-2.808A4.657,4.657,0,0,1,387.284,276.04Z" transform="translate(-215.636 -28.462)" fill="#fff" fill-rule="evenodd"/>
    <path id="Trazado_4669" data-name="Trazado 4669" d="M425.115,274.983a3.741,3.741,0,0,1,2.287.194,2.726,2.726,0,0,1,1.359,1.433,6.085,6.085,0,0,1,.369,2.65,4.264,4.264,0,0,1-.792,2.525,2.725,2.725,0,0,1-1.782.986,3.431,3.431,0,0,1-2.346-.433,2.943,2.943,0,0,1-1.16-1.616,7.116,7.116,0,0,1-.225-2.488,3.973,3.973,0,0,1,.866-2.426,2.684,2.684,0,0,1,1.423-.824Zm.437,1.309h0a1.23,1.23,0,0,0-.73.577,3.448,3.448,0,0,0-.364,1.584,6.137,6.137,0,0,0,.159,1.871,1.507,1.507,0,0,0,.792,1.017,1.4,1.4,0,0,0,1.456-.219,2.072,2.072,0,0,0,.521-1.193,8.532,8.532,0,0,0,.025-1.95,2.308,2.308,0,0,0-.542-1.393A1.376,1.376,0,0,0,425.552,276.292Z" transform="translate(-246.01 -28.45)" fill="#fff" fill-rule="evenodd"/>
    <path id="Trazado_4670" data-name="Trazado 4670" d="M630.5,275.274a7.208,7.208,0,0,1,2.927-.346,2.375,2.375,0,0,1,1.75.956,2.606,2.606,0,0,1,.35,1.54q0,2.633,0,5.266h-1.352c-.051-.216-.1-.433-.149-.648a3.413,3.413,0,0,1-1.621.74,2.232,2.232,0,0,1-1.991-.58,2.533,2.533,0,0,1-.5-1.993,2.035,2.035,0,0,1,.794-1.465,3.462,3.462,0,0,1,1.833-.541l1.35-.13a2.477,2.477,0,0,0-.157-1.237,1.3,1.3,0,0,0-.959-.554,5.82,5.82,0,0,0-2.271.228c0-.413,0-.825,0-1.237Zm2.057,4.032h0a1.084,1.084,0,0,0-.906.61,1.551,1.551,0,0,0,.03,1.236.971.971,0,0,0,.933.412,2.754,2.754,0,0,0,1.275-.412q0-.986,0-1.972C633.446,279.224,633,279.253,632.559,279.306Z" transform="translate(-419.694 -28.452)" fill="#fff" fill-rule="evenodd"/>
    <path id="Trazado_4671" data-name="Trazado 4671" d="M517.348,275.579h1.624q0,3.842,0,7.686c-.541,0-1.083,0-1.623,0Q517.348,279.422,517.348,275.579Z" transform="translate(-325.301 -29.028)" fill="#fff" fill-rule="evenodd"/>
    <path id="Trazado_4672" data-name="Trazado 4672" d="M539.7,275.579h1.624q0,2.646,0,5.292a1.332,1.332,0,0,0,.233.877,1.009,1.009,0,0,0,.8.248,3.029,3.029,0,0,0,1.243-.477q0-2.97,0-5.94h1.624v7.686h-1.552c0-.236,0-.471-.007-.707a3.756,3.756,0,0,1-1.462.764,2.317,2.317,0,0,1-1.871-.35,2,2,0,0,1-.633-1.594Q539.7,278.478,539.7,275.579Z" transform="translate(-344.048 -29.028)" fill="#fff" fill-rule="evenodd"/>
  </g>
</svg>
