<svg xmlns="http://www.w3.org/2000/svg" width="51.407" height="25" viewBox="0 0 51.407 25">
  <g id="Grupo_1765" data-name="Grupo 1765" transform="translate(-554.425 -973.472)">
    <path id="Trazado_4630" data-name="Trazado 4630" d="M554.425,973.472h51.407v19.714H554.425V973.472Z" transform="translate(0 0)" fill="#65645a" fill-rule="evenodd"/>
    <path id="Trazado_4631" data-name="Trazado 4631" d="M568.315,1000.058v1.4h-.677v-.076a.972.972,0,0,0-.252-.742,1.136,1.136,0,0,0-.8-.235,1.476,1.476,0,0,0-1.229.547,2.988,2.988,0,0,0,.013,3.12,1.473,1.473,0,0,0,1.224.567,1.063,1.063,0,0,0,.8-.26,1.221,1.221,0,0,0,.245-.856h.669v1.489a6.762,6.762,0,0,1-.939.215,6.261,6.261,0,0,1-.944.072,2.712,2.712,0,0,1-2.032-.722,2.857,2.857,0,0,1-.7-2.079,2.711,2.711,0,0,1,.741-2.029,2.838,2.838,0,0,1,2.076-.725,4.916,4.916,0,0,1,.837.078,8.275,8.275,0,0,1,.965.235Zm2.539.448v1.76h.4a1.379,1.379,0,0,0,.843-.2.788.788,0,0,0,.256-.658.863.863,0,0,0-.246-.689,1.231,1.231,0,0,0-.81-.212Zm-1.82-.638h2.2a3.259,3.259,0,0,1,1.7.337,1.2,1.2,0,0,1,.52,1.089,1.276,1.276,0,0,1-.24.8,1.188,1.188,0,0,1-.7.423.786.786,0,0,1,.472.212,1.6,1.6,0,0,1,.29.656c.022.081.051.2.084.342a2.365,2.365,0,0,0,.271.767.613.613,0,0,0,.233.169.865.865,0,0,0,.322.055h.042v.46h-1.591a5.332,5.332,0,0,1-.324-1.066c-.088-.426-.151-.692-.188-.8a.646.646,0,0,0-.3-.37,1.164,1.164,0,0,0-.57-.117h-.414v1.206a.859.859,0,0,0,.122.536.541.541,0,0,0,.432.146h.11v.46c-.144-.006-.3-.01-.474-.013s-.426,0-.763,0-.6,0-.771,0-.329.007-.477.013v-.46h.1a.542.542,0,0,0,.432-.146.859.859,0,0,0,.123-.536V1001a.849.849,0,0,0-.123-.531.542.542,0,0,0-.432-.146h-.1v-.456Zm5.465.018h4.3v1.464h-.491v-.237a.533.533,0,0,0-.195-.472,1.412,1.412,0,0,0-.732-.133h-1.066v1.654h.3a.869.869,0,0,0,.588-.136.815.815,0,0,0,.14-.555l.469,0v1.926h-.465a.882.882,0,0,0-.15-.546.79.79,0,0,0-.544-.131h-.338v1.84h.969a1.3,1.3,0,0,0,.878-.2,1.353,1.353,0,0,0,.2-.845h.487v1.662H574.5v-.46h.1a.551.551,0,0,0,.432-.142.854.854,0,0,0,.123-.54V1001a.844.844,0,0,0-.123-.531.541.541,0,0,0-.432-.146h-.1v-.44Zm6.8.6v4.065h.555a1.94,1.94,0,0,0,1.493-.516,2.351,2.351,0,0,0,.474-1.624,1.9,1.9,0,0,0-.5-1.46,2.278,2.278,0,0,0-1.586-.465Zm-1.819-.622h2.374a3.813,3.813,0,0,1,2.423.634,2.382,2.382,0,0,1,.782,1.964,2.631,2.631,0,0,1-.736,2.038,3.179,3.179,0,0,1-2.212.674h-2.631v-.46h.1a.542.542,0,0,0,.432-.146.859.859,0,0,0,.123-.536V1001a.849.849,0,0,0-.123-.531.542.542,0,0,0-.432-.146h-.1v-.456Zm6.318,0,.77.013c.172,0,.332,0,.478,0s.3,0,.471,0l.77-.013v.456h-.114a.541.541,0,0,0-.432.146.848.848,0,0,0-.123.531v3.034a.856.856,0,0,0,.124.536.544.544,0,0,0,.43.146h.114v.46c-.147-.006-.3-.01-.477-.013s-.425,0-.764,0-.6,0-.771,0-.329.007-.476.013v-.46h.1a.542.542,0,0,0,.432-.146.859.859,0,0,0,.123-.536V1001a.849.849,0,0,0-.123-.531.542.542,0,0,0-.432-.146h-.1v-.456Zm7.779.191v1.4H592.9v-.076a.973.973,0,0,0-.251-.742,1.137,1.137,0,0,0-.8-.235,1.476,1.476,0,0,0-1.229.547,2.987,2.987,0,0,0,.013,3.12,1.473,1.473,0,0,0,1.224.567,1.063,1.063,0,0,0,.8-.26,1.221,1.221,0,0,0,.245-.856h.669v1.489a6.757,6.757,0,0,1-.939.215,6.26,6.26,0,0,1-.944.072,2.712,2.712,0,0,1-2.032-.722,2.858,2.858,0,0,1-.7-2.079,2.711,2.711,0,0,1,.741-2.029,2.838,2.838,0,0,1,2.077-.725,4.917,4.917,0,0,1,.837.078,8.277,8.277,0,0,1,.965.235Zm3.483.338a1.2,1.2,0,0,0-1.057.542,3.532,3.532,0,0,0,0,3.133,1.3,1.3,0,0,0,2.11,0,3.558,3.558,0,0,0,0-3.138,1.2,1.2,0,0,0-1.057-.54Zm0-.651a2.61,2.61,0,0,1,1.967.725,3.342,3.342,0,0,1,0,4.1,3.009,3.009,0,0,1-3.935,0,3.344,3.344,0,0,1,0-4.1,2.607,2.607,0,0,1,1.969-.725Zm6.117.651a1.2,1.2,0,0,0-1.057.542,3.529,3.529,0,0,0,0,3.133,1.3,1.3,0,0,0,2.11,0,3.556,3.556,0,0,0,0-3.138,1.2,1.2,0,0,0-1.057-.54Zm0-.651a2.61,2.61,0,0,1,1.967.725,3.342,3.342,0,0,1,0,4.1,3.01,3.01,0,0,1-3.935,0,3.345,3.345,0,0,1,0-4.1,2.609,2.609,0,0,1,1.97-.725Zm5.139.736v1.9h.456a.879.879,0,0,0,1-.995.845.845,0,0,0-.264-.669,1.1,1.1,0,0,0-.749-.233Zm-1.833-.614H608.7a3.031,3.031,0,0,1,1.7.364,1.348,1.348,0,0,1,.516,1.184,1.423,1.423,0,0,1-.459,1.171,2.245,2.245,0,0,1-1.431.374h-.706v1.074a.856.856,0,0,0,.123.536.542.542,0,0,0,.432.146h.1v.46c-.147-.006-.3-.01-.477-.013s-.425,0-.764,0-.6,0-.77,0-.331.007-.478.013v-.46h.114a.544.544,0,0,0,.43-.146.854.854,0,0,0,.124-.536V1001a.847.847,0,0,0-.123-.531.541.541,0,0,0-.432-.146h-.114v-.456Z" transform="translate(-6.559 -18.588)" fill="#fff" fill-rule="evenodd"/>
    <path id="Trazado_4632" data-name="Trazado 4632" d="M616.31,983.041v1.085h.366a.747.747,0,0,0,.477-.136.465.465,0,0,0,.169-.384.522.522,0,0,0-.169-.422.754.754,0,0,0-.5-.144Zm0-1.319v.988h.331a.63.63,0,0,0,.428-.128.485.485,0,0,0,.145-.382.437.437,0,0,0-.143-.358.658.658,0,0,0-.43-.119Zm-1.075-.381h1.52a1.477,1.477,0,0,1,.851.2.7.7,0,0,1,.28.607.686.686,0,0,1-.141.446.825.825,0,0,1-.427.257.862.862,0,0,1,.515.25.752.752,0,0,1,.172.52.781.781,0,0,1-.293.669,1.48,1.48,0,0,1-.891.22h-1.586v-.275h.06a.329.329,0,0,0,.258-.084.511.511,0,0,0,.073-.322v-1.81a.507.507,0,0,0-.073-.317.324.324,0,0,0-.258-.087h-.06v-.272Zm4.746.386-.472,1.318h.894l-.422-1.318Zm-.389-.386h.849l.914,2.394a1.324,1.324,0,0,0,.209.4.353.353,0,0,0,.226.1v.275l-.279-.008c-.1,0-.253,0-.456,0s-.353,0-.454,0l-.283.008v-.272a.7.7,0,0,0,.307-.062.187.187,0,0,0,.085-.173.479.479,0,0,0-.013-.1,1.456,1.456,0,0,0-.037-.141l-.114-.336H619.38l-.133.4a.842.842,0,0,0-.029.1.361.361,0,0,0-.009.076.188.188,0,0,0,.069.168.734.734,0,0,0,.309.062v.272l-.276-.008c-.1,0-.245,0-.439,0s-.328,0-.419,0l-.252.008v-.272a.33.33,0,0,0,.231-.111,1.31,1.31,0,0,0,.2-.376l.956-2.408Zm2.3,0h1.278l1.214,2.6-.016-1.919a.507.507,0,0,0-.073-.32.329.329,0,0,0-.258-.084h-.063v-.272h.016q.429.01.649.01t.661-.01h.015v.272h-.063a.324.324,0,0,0-.258.087.507.507,0,0,0-.073.317v2.492h-.879l-1.214-2.586.01,1.9a.508.508,0,0,0,.073.321.323.323,0,0,0,.258.086h.063v.275l-.256-.008q-.138,0-.414,0t-.413,0l-.259.008v-.275h.063a.325.325,0,0,0,.26-.089.5.5,0,0,0,.076-.318v-1.81a.491.491,0,0,0-.076-.316.326.326,0,0,0-.26-.089h-.063v-.272Zm6.531.114v.836h-.4v-.046a.58.58,0,0,0-.15-.443.678.678,0,0,0-.476-.14.881.881,0,0,0-.733.326,1.784,1.784,0,0,0,.008,1.862.879.879,0,0,0,.731.339.632.632,0,0,0,.479-.155.728.728,0,0,0,.147-.511h.4v.889a4.014,4.014,0,0,1-.56.128,3.74,3.74,0,0,1-.563.043,1.618,1.618,0,0,1-1.212-.431,1.7,1.7,0,0,1-.421-1.241,1.619,1.619,0,0,1,.442-1.211,1.7,1.7,0,0,1,1.239-.433,2.924,2.924,0,0,1,.5.047,4.907,4.907,0,0,1,.576.14Zm2.078.2a.715.715,0,0,0-.631.323,2.1,2.1,0,0,0,0,1.87.775.775,0,0,0,1.259,0,2.124,2.124,0,0,0,0-1.873.714.714,0,0,0-.631-.322Zm0-.389a1.559,1.559,0,0,1,1.174.433,1.994,1.994,0,0,1,0,2.446,1.8,1.8,0,0,1-2.348,0,2,2,0,0,1,0-2.446,1.557,1.557,0,0,1,1.175-.433Z" transform="translate(-43.023 -5.516)" fill="#fff" fill-rule="evenodd"/>
    <path id="Trazado_4633" data-name="Trazado 4633" d="M600.127,1028.117v.364h-.176v-.02a.252.252,0,0,0-.065-.193.3.3,0,0,0-.207-.061.382.382,0,0,0-.319.142.775.775,0,0,0,0,.81.382.382,0,0,0,.318.147.276.276,0,0,0,.209-.068.316.316,0,0,0,.064-.222h.173v.386a1.711,1.711,0,0,1-.244.056,1.633,1.633,0,0,1-.245.019.7.7,0,0,1-.527-.187.741.741,0,0,1-.183-.54.7.7,0,0,1,.193-.527.737.737,0,0,1,.539-.188,1.276,1.276,0,0,1,.217.02,2.119,2.119,0,0,1,.25.061Zm.9.088a.311.311,0,0,0-.274.14.728.728,0,0,0-.095.407.721.721,0,0,0,.1.406.337.337,0,0,0,.547,0,.922.922,0,0,0,0-.814.31.31,0,0,0-.274-.14Zm0-.169a.678.678,0,0,1,.51.188.867.867,0,0,1,0,1.064.78.78,0,0,1-1.021,0,.868.868,0,0,1,0-1.064.677.677,0,0,1,.511-.188Zm1.587.169a.311.311,0,0,0-.274.14.916.916,0,0,0,0,.813.337.337,0,0,0,.548,0,.925.925,0,0,0,0-.814.311.311,0,0,0-.274-.14Zm0-.169a.679.679,0,0,1,.51.188.868.868,0,0,1,0,1.064.78.78,0,0,1-1.021,0,.868.868,0,0,1,0-1.064.678.678,0,0,1,.511-.188Zm1.334.191v.492h.118a.228.228,0,0,0,.259-.258.219.219,0,0,0-.069-.173.284.284,0,0,0-.195-.061Zm-.475-.159h.574a.785.785,0,0,1,.441.094.349.349,0,0,1,.134.307.369.369,0,0,1-.119.3.581.581,0,0,1-.371.1h-.183v.279a.222.222,0,0,0,.032.139.141.141,0,0,0,.112.038h.026v.12l-.124,0h-.4l-.124,0v-.12h.03a.142.142,0,0,0,.112-.038.221.221,0,0,0,.032-.139v-.787a.22.22,0,0,0-.032-.138.14.14,0,0,0-.112-.038h-.03v-.119Zm1.305,0H605.9v.38h-.128v-.061a.139.139,0,0,0-.051-.123.365.365,0,0,0-.19-.035h-.277v.429h.078a.226.226,0,0,0,.153-.035.212.212,0,0,0,.036-.144h.122v.5h-.121a.23.23,0,0,0-.039-.142.205.205,0,0,0-.141-.034h-.088v.477h.252a.338.338,0,0,0,.228-.051.353.353,0,0,0,.051-.219h.126v.431h-1.129v-.12h.026a.142.142,0,0,0,.112-.037.219.219,0,0,0,.032-.14v-.787a.218.218,0,0,0-.032-.138.14.14,0,0,0-.112-.038h-.026v-.114Zm1.765.161v.457h.1a.357.357,0,0,0,.219-.052.2.2,0,0,0,.066-.171.225.225,0,0,0-.064-.179.321.321,0,0,0-.21-.055Zm-.472-.166h.571a.848.848,0,0,1,.442.087.311.311,0,0,1,.135.283.33.33,0,0,1-.062.208.307.307,0,0,1-.181.11.2.2,0,0,1,.123.055.418.418,0,0,1,.076.17c.005.021.013.051.022.089a.61.61,0,0,0,.07.2.153.153,0,0,0,.06.044.222.222,0,0,0,.084.014h.011v.12h-.413a1.4,1.4,0,0,1-.084-.277c-.023-.111-.039-.18-.049-.207a.168.168,0,0,0-.077-.1.3.3,0,0,0-.148-.03h-.108v.313a.222.222,0,0,0,.032.139.14.14,0,0,0,.112.038h.028v.12l-.123,0h-.4l-.124,0v-.12h.026a.141.141,0,0,0,.112-.038.223.223,0,0,0,.032-.139v-.787a.22.22,0,0,0-.032-.138.141.141,0,0,0-.112-.038h-.026v-.119Zm2.035.168-.205.573h.388l-.183-.573Zm-.169-.168h.369l.4,1.041a.577.577,0,0,0,.091.173.153.153,0,0,0,.1.044v.12l-.121,0h-.4l-.123,0v-.118a.3.3,0,0,0,.133-.027.081.081,0,0,0,.037-.075.2.2,0,0,0-.006-.042c0-.018-.009-.038-.016-.061l-.05-.146h-.506l-.058.176a.4.4,0,0,0-.013.043.173.173,0,0,0,0,.033.081.081,0,0,0,.03.073.322.322,0,0,0,.135.027v.118l-.12,0h-.373l-.11,0v-.118a.143.143,0,0,0,.1-.049.572.572,0,0,0,.088-.164l.416-1.047Zm.875,0q.163,0,.351,0h.517c.13,0,.25,0,.361,0v.415H609.9v-.035a.249.249,0,0,0-.042-.17.246.246,0,0,0-.172-.044h-.1v.916a.222.222,0,0,0,.032.139.142.142,0,0,0,.113.038h.047v.12l-.132,0h-.424l-.131,0v-.12h.047a.141.141,0,0,0,.112-.038.222.222,0,0,0,.032-.139v-.916h-.122a.232.232,0,0,0-.159.041.206.206,0,0,0-.043.15c0,.015,0,.026,0,.034s0,.016,0,.024h-.142v-.415Zm1.367,0,.2,0h.246l.2,0v.119h-.03a.14.14,0,0,0-.112.038.22.22,0,0,0-.032.138v.787a.222.222,0,0,0,.032.139.142.142,0,0,0,.112.038h.03v.12l-.123,0h-.4l-.124,0v-.12h.026a.14.14,0,0,0,.112-.038.222.222,0,0,0,.032-.139v-.787a.22.22,0,0,0-.032-.138.14.14,0,0,0-.112-.038h-.026v-.119Zm.729,0,.134,0h.116l.3,0h.035v.119a.378.378,0,0,0-.134.02.056.056,0,0,0-.028.055.143.143,0,0,0,0,.027.225.225,0,0,0,.011.034l.3.88.29-.875a.163.163,0,0,0,.007-.029.158.158,0,0,0,0-.029.066.066,0,0,0-.038-.062.294.294,0,0,0-.124-.019v-.119h.025l.276,0h.11l.151,0v.119a.165.165,0,0,0-.087.042.259.259,0,0,0-.056.1l-.4,1.138h-.326l-.418-1.129a.35.35,0,0,0-.061-.116.125.125,0,0,0-.082-.036v-.119Zm2.2.137a.31.31,0,0,0-.274.14.914.914,0,0,0,0,.813.337.337,0,0,0,.548,0,.923.923,0,0,0,0-.814.31.31,0,0,0-.274-.14Zm0-.169a.678.678,0,0,1,.51.188.867.867,0,0,1,0,1.064.78.78,0,0,1-1.021,0,.869.869,0,0,1,0-1.064.678.678,0,0,1,.511-.188Zm1.511.032.211,0h.261l.2,0v.119h-.06a.141.141,0,0,0-.112.038.22.22,0,0,0-.032.138v.917h.193a.335.335,0,0,0,.226-.051.331.331,0,0,0,.051-.214h.127v.431h-1.069v-.12h.026a.141.141,0,0,0,.112-.038.222.222,0,0,0,.032-.139v-.787a.22.22,0,0,0-.032-.138.141.141,0,0,0-.112-.038h-.026v-.119Zm1.185,0,.2,0h.246l.2,0v.119h-.03a.14.14,0,0,0-.112.038.22.22,0,0,0-.032.138v.787a.223.223,0,0,0,.032.139.142.142,0,0,0,.112.038h.03v.12l-.123,0h-.4l-.124,0v-.12h.026a.141.141,0,0,0,.112-.038.222.222,0,0,0,.032-.139v-.787a.22.22,0,0,0-.032-.138.141.141,0,0,0-.112-.038h-.026v-.119Zm.806,0,.188,0h.234l.188,0,.279.919c.009.03.017.061.025.094s.014.068.02.106c0-.031.009-.063.016-.1s.017-.068.029-.105l.288-.919.163,0h.117l.292,0h.021v.119h-.03a.145.145,0,0,0-.112.035.192.192,0,0,0-.032.128v.013l.013.786a.236.236,0,0,0,.033.142.142.142,0,0,0,.111.036h.027v.12l-.118,0H618l-.111,0v-.12h.029a.141.141,0,0,0,.112-.038.222.222,0,0,0,.032-.139v-.948l-.39,1.244H617.4l-.375-1.236v.94a.223.223,0,0,0,.032.139.14.14,0,0,0,.112.038h.026v.12l-.107,0h-.365l-.116,0v-.12h.026a.139.139,0,0,0,.11-.036.232.232,0,0,0,.033-.141l.014-.787v-.011a.192.192,0,0,0-.033-.128.15.15,0,0,0-.114-.036h-.026v-.119Zm2.033,0,.2,0h.246l.2,0v.119h-.03a.141.141,0,0,0-.112.038.22.22,0,0,0-.032.138v.787a.222.222,0,0,0,.032.139.141.141,0,0,0,.112.038h.03v.12l-.124,0h-.4l-.124,0v-.12h.026a.141.141,0,0,0,.112-.038.223.223,0,0,0,.032-.139v-.787a.22.22,0,0,0-.032-.138.141.141,0,0,0-.112-.038h-.026v-.119Zm.77,0c.109,0,.226,0,.351,0h.517c.13,0,.25,0,.361,0v.415H620.5v-.035a.25.25,0,0,0-.042-.17.246.246,0,0,0-.172-.044h-.1v.916a.223.223,0,0,0,.032.139.143.143,0,0,0,.113.038h.047v.12l-.132,0h-.424l-.131,0v-.12h.047a.141.141,0,0,0,.112-.038.222.222,0,0,0,.032-.139v-.916h-.122a.233.233,0,0,0-.159.041.206.206,0,0,0-.043.15c0,.015,0,.026,0,.034s0,.016,0,.024h-.142v-.415Zm1.932.168-.205.573h.389l-.184-.573Zm-.169-.168h.369l.4,1.041a.58.58,0,0,0,.09.173.154.154,0,0,0,.1.044v.12l-.121,0h-.4l-.123,0v-.118a.3.3,0,0,0,.133-.027.081.081,0,0,0,.037-.075.207.207,0,0,0-.006-.042.51.51,0,0,0-.016-.061l-.049-.146h-.506l-.058.176a.337.337,0,0,0-.013.043.149.149,0,0,0,0,.033.081.081,0,0,0,.03.073.322.322,0,0,0,.135.027v.118l-.12,0h-.373l-.11,0v-.118a.143.143,0,0,0,.1-.049.558.558,0,0,0,.088-.164l.416-1.047Zm1.5.161v1.055h.144a.5.5,0,0,0,.388-.134.611.611,0,0,0,.123-.421.493.493,0,0,0-.131-.379.592.592,0,0,0-.411-.12Zm-.472-.161h.616a.991.991,0,0,1,.629.164.617.617,0,0,1,.2.51.682.682,0,0,1-.191.529.824.824,0,0,1-.574.175h-.683v-.12h.026a.141.141,0,0,0,.112-.038.223.223,0,0,0,.032-.139v-.787a.22.22,0,0,0-.032-.138.141.141,0,0,0-.112-.038h-.026v-.119Zm2.348.137a.31.31,0,0,0-.274.14.914.914,0,0,0,0,.813.337.337,0,0,0,.547,0,.923.923,0,0,0,0-.814.31.31,0,0,0-.274-.14Zm0-.169a.678.678,0,0,1,.51.188.867.867,0,0,1,0,1.064.78.78,0,0,1-1.021,0,.868.868,0,0,1,0-1.064.678.678,0,0,1,.511-.188Z" transform="translate(-31.486 -38.604)" fill="#fff" fill-rule="evenodd"/>
    <path id="Trazado_4634" data-name="Trazado 4634" d="M554.425,1046.15h7.344v-5.288h-7.344v5.288Z" transform="translate(0 -47.678)" fill="#d9000d" fill-rule="evenodd"/>
    <path id="Trazado_4635" data-name="Trazado 4635" d="M586.876,1046.15h-7.344v-5.288h7.344v5.288Z" transform="translate(-17.763 -47.678)" fill="#ec6500" fill-rule="evenodd"/>
    <path id="Trazado_4636" data-name="Trazado 4636" d="M604.639,1046.15h7.344v-5.288h-7.344v5.288Z" transform="translate(-35.526 -47.678)" fill="#ffbf00" fill-rule="evenodd"/>
    <path id="Trazado_4637" data-name="Trazado 4637" d="M637.09,1046.15h-7.344v-5.288h7.344v5.288Z" transform="translate(-53.289 -47.678)" fill="#00862f" fill-rule="evenodd"/>
    <path id="Trazado_4638" data-name="Trazado 4638" d="M654.853,1046.15H662.2v-5.288h-7.344v5.288Z" transform="translate(-71.052 -47.678)" fill="#0090df" fill-rule="evenodd"/>
    <path id="Trazado_4639" data-name="Trazado 4639" d="M687.3,1046.15H679.96v-5.288H687.3v5.288Z" transform="translate(-88.815 -47.678)" fill="#9063a4" fill-rule="evenodd"/>
    <path id="Trazado_4640" data-name="Trazado 4640" d="M705.067,1046.15h7.344v-5.288h-7.344v5.288Z" transform="translate(-106.578 -47.678)" fill="#97316f" fill-rule="evenodd"/>
  </g>
</svg>
