<svg xmlns="http://www.w3.org/2000/svg" width="86.741" height="24.16" viewBox="0 0 86.741 24.16">
  <g id="Grupo_1756" data-name="Grupo 1756" transform="translate(896.026 -493.057)">
    <path id="Trazado_4576" data-name="Trazado 4576" d="M-896.026,493.057v24.16h86.741v-24.16Zm1.358,22.831V494.4l10.764,0a10.77,10.77,0,0,1,10.79,10.75,10.753,10.753,0,0,1-10.79,10.74Zm84.044.015h-68.714a12.4,12.4,0,0,0,7.733-11.63,12.373,12.373,0,0,0-5.1-9.873h66.081Z" fill="#fff"/>
    <g id="g68" transform="translate(-840.201 498.984)">
      <path id="path70" d="M-504.177,535.562a1.115,1.115,0,0,1-.32.8,1.077,1.077,0,0,1-.8.329,1.047,1.047,0,0,1-.789-.329,1.126,1.126,0,0,1-.311-.8,1.124,1.124,0,0,1,.311-.807,1.052,1.052,0,0,1,.789-.329,1.082,1.082,0,0,1,.8.329,1.113,1.113,0,0,1,.32.807" transform="translate(506.397 -534.426)" fill="#fff"/>
    </g>
    <g id="g72" transform="translate(-853.494 502.917)">
      <path id="path74" d="M-594.067,570.507l-.158-1.015h-.035c-.082.082-.194.191-.34.325a4.162,4.162,0,0,1-.525.4,3.346,3.346,0,0,1-.708.349,2.519,2.519,0,0,1-.89.15,2.33,2.33,0,0,1-.876-.176,2.474,2.474,0,0,1-.785-.506,2.546,2.546,0,0,1-.568-.822,2.679,2.679,0,0,1-.218-1.1,2.17,2.17,0,0,1,.508-1.52,3.229,3.229,0,0,1,1.247-.848,6.194,6.194,0,0,1,1.6-.376c.571-.057,1.094-.087,1.573-.087v-.157a2.037,2.037,0,0,0-.324-1.258,1.367,1.367,0,0,0-1.145-.419,3.6,3.6,0,0,0-.83.1c-.273.063-.522.131-.743.2-.256.081-.508.176-.751.279l-.471-1.257a8.627,8.627,0,0,1,1.049-.438,7.99,7.99,0,0,1,1.038-.313,4.973,4.973,0,0,1,1.162-.139,2.973,2.973,0,0,1,2.228.793,3.061,3.061,0,0,1,.776,2.229v5.612Zm-.174-3.933c-.279,0-.592.018-.934.052a4.764,4.764,0,0,0-.98.2,1.977,1.977,0,0,0-.77.438.991.991,0,0,0-.305.758.973.973,0,0,0,.351.805,1.2,1.2,0,0,0,.767.28,1.863,1.863,0,0,0,.709-.139,3.473,3.473,0,0,0,.6-.317,2.59,2.59,0,0,0,.562-.453Z" transform="translate(599.17 -561.873)" fill="#fff"/>
    </g>
    <path id="path76" d="M-505.978,563.335h2.1v8.424h-2.1Z" transform="translate(-334.163 -60.209)" fill="#fff"/>
    <g id="g80" transform="translate(-828.023 498.984)">
      <g id="g86" transform="translate(0)">
        <path id="path88" d="M-419.18,535.562a1.111,1.111,0,0,1-.32.8,1.074,1.074,0,0,1-.8.329,1.041,1.041,0,0,1-.787-.329,1.121,1.121,0,0,1-.313-.8,1.118,1.118,0,0,1,.313-.807,1.046,1.046,0,0,1,.787-.329,1.078,1.078,0,0,1,.8.329,1.109,1.109,0,0,1,.32.807" transform="translate(421.4 -534.426)" fill="#fff"/>
      </g>
    </g>
    <path id="path90" d="M-420.991,563.335h2.1v8.424h-2.1Z" transform="translate(-406.974 -60.209)" fill="#fff"/>
    <g id="g94" transform="translate(-824.472 502.917)">
      <g id="g100" transform="translate(0 0)">
        <path id="path102" d="M-391.511,570.507l-.159-1.015h-.034c-.083.082-.2.191-.341.325a4.172,4.172,0,0,1-.523.4,3.357,3.357,0,0,1-.707.349,2.545,2.545,0,0,1-.893.15,2.321,2.321,0,0,1-.873-.176,2.46,2.46,0,0,1-.789-.506,2.584,2.584,0,0,1-.567-.822,2.635,2.635,0,0,1-.219-1.1,2.17,2.17,0,0,1,.507-1.52,3.231,3.231,0,0,1,1.251-.848,6.128,6.128,0,0,1,1.6-.376c.57-.057,1.095-.087,1.573-.087v-.157a2.049,2.049,0,0,0-.323-1.258,1.367,1.367,0,0,0-1.146-.419,3.629,3.629,0,0,0-.831.1c-.271.063-.52.131-.741.2-.257.081-.508.176-.752.279l-.472-1.257a8.69,8.69,0,0,1,1.049-.438,8.057,8.057,0,0,1,1.04-.313,4.976,4.976,0,0,1,1.162-.139,2.981,2.981,0,0,1,2.229.793,3.055,3.055,0,0,1,.778,2.229v5.612Zm-.176-3.933c-.279,0-.59.018-.934.052a4.73,4.73,0,0,0-.979.2,1.96,1.96,0,0,0-.77.438.994.994,0,0,0-.307.758.973.973,0,0,0,.351.805,1.21,1.21,0,0,0,.768.28,1.856,1.856,0,0,0,.708-.139,3.558,3.558,0,0,0,.6-.317,2.619,2.619,0,0,0,.558-.453Z" transform="translate(396.616 -561.873)" fill="#fff"/>
      </g>
    </g>
    <g id="g104" transform="translate(-844.477 498.685)">
      <path id="path106" d="M-534.138,532.337h-2.1V545.2h2.1Z" transform="translate(536.238 -532.337)" fill="#fff"/>
    </g>
    <g id="g116" transform="translate(-864.68 499.455)">
      <path id="path118" d="M-667.578,543.408h-4.209v1.769h2.1v2.777c-.117.025-.251.048-.4.071a4.254,4.254,0,0,1-.463.052c-.181.013-.381.017-.6.017a3.61,3.61,0,0,1-1.512-.314,3.586,3.586,0,0,1-1.189-.865,3.994,3.994,0,0,1-.778-1.32,4.924,4.924,0,0,1-.278-1.695,4.658,4.658,0,0,1,.323-1.775,3.924,3.924,0,0,1,.9-1.354,4.073,4.073,0,0,1,1.356-.864,4.5,4.5,0,0,1,1.669-.306,7.791,7.791,0,0,1,.865.043c.263.03.491.061.691.1.223.047.431.089.63.122l.577-1.642a7.134,7.134,0,0,0-.894-.245c-.277-.058-.613-.118-1-.175a9.084,9.084,0,0,0-1.319-.087,6.414,6.414,0,0,0-2.35.43,5.757,5.757,0,0,0-1.951,1.23,5.884,5.884,0,0,0-1.328,1.941,6.4,6.4,0,0,0-.489,2.551,7.054,7.054,0,0,0,.436,2.552,5.755,5.755,0,0,0,1.206,1.94,5.228,5.228,0,0,0,1.809,1.232,5.8,5.8,0,0,0,2.229.428,8.12,8.12,0,0,0,1.45-.131c.478-.088.9-.184,1.276-.29.442-.127.863-.268,1.258-.419Z" transform="translate(677.242 -537.713)" fill="#fff"/>
    </g>
    <g id="g120" transform="translate(-836.403 502.922)">
      <path id="path122" d="M-473.018,569.725a6.5,6.5,0,0,1-.979.524,7.938,7.938,0,0,1-1.049.35,4.837,4.837,0,0,1-1.241.158,3.354,3.354,0,0,1-1.391-.3,3.515,3.515,0,0,1-1.144-.829,3.962,3.962,0,0,1-.778-1.286,4.661,4.661,0,0,1-.287-1.676,5.274,5.274,0,0,1,.313-1.82,4.787,4.787,0,0,1,.883-1.51,4.151,4.151,0,0,1,1.362-1.041,3.973,3.973,0,0,1,1.757-.384,4.3,4.3,0,0,1,.857.078c.267.052.512.108.733.164q.37.107.718.228l-.541,1.416-.35-.088c-.1-.024-.231-.046-.375-.07a3.839,3.839,0,0,0-.536-.035,2.83,2.83,0,0,0-1.123.219,2.407,2.407,0,0,0-.84.611,2.886,2.886,0,0,0-.549.925,3.222,3.222,0,0,0-.2,1.163,2.606,2.606,0,0,0,.612,1.8,2.067,2.067,0,0,0,1.608.683,6.293,6.293,0,0,0,.8-.054,5.926,5.926,0,0,0,.6-.122,2.57,2.57,0,0,0,.56-.191Z" transform="translate(479.886 -561.913)" fill="#fff"/>
    </g>
    <g id="g124" transform="translate(-887.976 496.79)">
      <path id="path126" d="M-832.566,522.3h0a2.428,2.428,0,0,1-.573.234,8.745,8.745,0,0,1-2.386.317,8.838,8.838,0,0,1,.32-2.369,2.656,2.656,0,0,1,.228-.557l0-.006h0a.814.814,0,0,0-.815-.813.813.813,0,0,0-.813.813h-.006a.047.047,0,0,0,.006.009,2.6,2.6,0,0,1,.225.554,8.679,8.679,0,0,1,.318,2.369,8.881,8.881,0,0,1-2.388-.319,2.547,2.547,0,0,1-.567-.232v0l0,0a.819.819,0,0,0-.819.819.82.82,0,0,0,.819.819l0,0v0a2.407,2.407,0,0,1,.57-.232,8.659,8.659,0,0,1,2.374-.318,7.165,7.165,0,0,1-.425,2.347,1.189,1.189,0,0,1-.627.689v0l1.335,9.62,1.326-9.62,0,0a1.186,1.186,0,0,1-.627-.692l-.016-.037a7.227,7.227,0,0,1-.409-2.307,8.757,8.757,0,0,1,2.377.319,2.5,2.5,0,0,1,.57.231h0a.819.819,0,0,0,.818-.819.819.819,0,0,0-.818-.819" transform="translate(839.838 -519.109)" fill="#fff"/>
    </g>
  </g>
</svg>
