<svg xmlns="http://www.w3.org/2000/svg" width="70.739" height="25" viewBox="0 0 70.739 25">
  <g id="Grupo_1768" data-name="Grupo 1768" transform="translate(-21.26 -190.798)">
    <g id="Grupo_1766" data-name="Grupo 1766" transform="translate(36.838 196.895)">
      <path id="Trazado_4641" data-name="Trazado 4641" d="M136.747,236.425a.2.2,0,0,1,.226-.222h.745a.841.841,0,0,1,.923.786.715.715,0,0,1-.476.721v.009a.814.814,0,0,1,.74.814,1,1,0,0,1-1.12.962h-.813a.2.2,0,0,1-.226-.222Zm.423,1.17h.481a.519.519,0,0,0,.567-.532.486.486,0,0,0-.553-.509h-.5Zm0,1.549h.6a.642.642,0,0,0,.717-.61.621.621,0,0,0-.7-.606h-.616Z" transform="translate(-136.747 -236.175)" fill="#fff"/>
      <path id="Trazado_4642" data-name="Trazado 4642" d="M155.469,239.192a.207.207,0,0,1-.207.153.181.181,0,0,1-.2-.171.846.846,0,0,1,.058-.2l1.063-2.723a.308.308,0,0,1,.606,0l1.063,2.723a.846.846,0,0,1,.058.2.182.182,0,0,1-.2.171.207.207,0,0,1-.207-.153l-.221-.592H155.69Zm1.019-2.723h-.01l-.659,1.78h1.327Z" transform="translate(-152.59 -235.997)" fill="#fff"/>
      <path id="Trazado_4643" data-name="Trazado 4643" d="M180.123,239.127a.212.212,0,1,1-.423,0v-2.89c0-.162.058-.24.192-.24s.183.051.3.213l1.731,2.39h.01v-2.386a.212.212,0,1,1,.423,0v2.89c0,.162-.058.24-.192.24s-.183-.051-.3-.213l-1.731-2.39h-.01Z" transform="translate(-173.906 -235.997)" fill="#fff"/>
      <path id="Trazado_4644" data-name="Trazado 4644" d="M205.469,238.993c.514,0,.741-.3.918-.3a.169.169,0,0,1,.168.19c0,.208-.486.458-1.087.458a1.682,1.682,0,0,1,.024-3.348c.606,0,.991.314.991.481a.179.179,0,0,1-.173.194c-.192,0-.289-.324-.817-.324-.76,0-1.072.693-1.072,1.322S204.743,238.993,205.469,238.993Z" transform="translate(-194.901 -235.997)" fill="#fff"/>
      <path id="Trazado_4645" data-name="Trazado 4645" d="M227.451,236a1.684,1.684,0,1,1-1.5,1.674A1.541,1.541,0,0,1,227.451,236Zm0,3c.769,0,1.048-.693,1.048-1.322s-.279-1.322-1.048-1.322-1.048.693-1.048,1.322S226.682,238.993,227.451,238.993Z" transform="translate(-213.918 -235.997)" fill="#fff"/>
      <path id="Trazado_4646" data-name="Trazado 4646" d="M137.9,283.113c0,.41-.205.621-.531.621s-.531-.211-.531-.621v-7.242c0-.41.205-.621.531-.621s.531.211.531.621v3.164h3.511v-3.164c0-.41.205-.621.531-.621s.531.211.531.621v7.242c0,.41-.205.621-.531.621s-.531-.211-.531-.621v-3.187H137.9Z" transform="translate(-136.827 -269.955)" fill="#fff"/>
      <path id="Trazado_4647" data-name="Trazado 4647" d="M189.235,275.25a.633.633,0,1,1-.652.633A.64.64,0,0,1,189.235,275.25Zm.531,7.933a.531.531,0,1,1-1.062,0V277.91a.531.531,0,1,1,1.062,0Z" transform="translate(-181.591 -269.955)" fill="#fff"/>
      <path id="Trazado_4648" data-name="Trazado 4648" d="M208.574,291.438a.531.531,0,1,1,1.062,0v.3h.024a1.768,1.768,0,0,1,1.714-.855,3.224,3.224,0,0,1,0,6.375,2.116,2.116,0,0,1-1.714-.844h-.024v2.754a.531.531,0,1,1-1.062,0Zm2.716,4.933c1.3,0,1.762-1.242,1.762-2.3s-.459-2.3-1.762-2.3-1.762,1.242-1.762,2.3S209.986,296.371,211.29,296.371Z" transform="translate(-198.885 -283.483)" fill="#fff"/>
      <path id="Trazado_4649" data-name="Trazado 4649" d="M256.323,290.887a3.211,3.211,0,1,1-2.824,3.187A2.926,2.926,0,0,1,256.323,290.887Zm0,5.484c1.3,0,1.762-1.242,1.762-2.3s-.459-2.3-1.762-2.3-1.762,1.242-1.762,2.3S255.02,296.371,256.323,296.371Z" transform="translate(-237.75 -283.483)" fill="#fff"/>
      <path id="Trazado_4650" data-name="Trazado 4650" d="M298.756,277.885a.531.531,0,1,1,1.062,0v1.348h.435c.35,0,.531.164.531.445s-.181.445-.531.445h-.435v4.863a.531.531,0,1,1-1.062,0v-4.863h-.434c-.35,0-.531-.164-.531-.445s.181-.445.531-.445h.434Z" transform="translate(-276.067 -271.758)" fill="#fff"/>
      <path id="Trazado_4651" data-name="Trazado 4651" d="M323.234,294.473a1.8,1.8,0,0,0,1.895,1.9c1.412,0,1.774-.844,2.172-.844a.414.414,0,0,1,.386.457c0,.5-1.315,1.277-2.571,1.277a2.88,2.88,0,0,1-2.945-3.187,2.961,2.961,0,0,1,2.885-3.187,2.87,2.87,0,0,1,2.764,3.035c0,.363-.133.551-.592.551Zm3.524-.773a1.771,1.771,0,0,0-1.7-1.922c-1.316-.047-1.787.973-1.823,1.922Z" transform="translate(-297.159 -283.483)" fill="#fff"/>
      <path id="Trazado_4652" data-name="Trazado 4652" d="M372.887,290.887c1.086,0,1.726.363,1.726.785a.444.444,0,0,1-.435.434c-.41,0-.567-.328-1.291-.328-1.316,0-1.835,1.242-1.835,2.3s.519,2.3,1.835,2.3c.748,0,.941-.351,1.279-.351a.391.391,0,0,1,.41.434c0,.387-.591.809-1.69.809a3.2,3.2,0,0,1,0-6.375Z" transform="translate(-338.527 -283.483)" fill="#fff"/>
      <path id="Trazado_4653" data-name="Trazado 4653" d="M413.474,296.758a.486.486,0,0,1-.495.5.479.479,0,0,1-.495-.5v-.434h-.024a2.1,2.1,0,0,1-1.75.938,3.211,3.211,0,0,1,0-6.375,2.267,2.267,0,0,1,1.75.832h.024v-.328a.479.479,0,0,1,.495-.5.486.486,0,0,1,.495.5Zm-2.764-.387c1.3,0,1.762-1.242,1.762-2.3s-.459-2.3-1.762-2.3-1.762,1.242-1.762,2.3S409.407,296.371,410.711,296.371Z" transform="translate(-371.311 -283.483)" fill="#fff"/>
      <path id="Trazado_4654" data-name="Trazado 4654" d="M459.6,291.438a.531.531,0,1,1,1.062,0v.527h.024a1.9,1.9,0,0,1,1.448-1.078.533.533,0,0,1,.591.527c0,.293-.217.481-.664.562a1.638,1.638,0,0,0-1.4,1.769v2.965a.531.531,0,1,1-1.062,0Z" transform="translate(-416.051 -283.483)" fill="#fff"/>
      <path id="Trazado_4655" data-name="Trazado 4655" d="M488.607,275.25a.633.633,0,1,1-.652.633A.64.64,0,0,1,488.607,275.25Zm.531,7.933a.531.531,0,1,1-1.062,0V277.91a.531.531,0,1,1,1.062,0Z" transform="translate(-440.579 -269.955)" fill="#fff"/>
      <path id="Trazado_4656" data-name="Trazado 4656" d="M506.617,290.887a3.211,3.211,0,1,1-2.824,3.187A2.926,2.926,0,0,1,506.617,290.887Zm0,5.484c1.3,0,1.762-1.242,1.762-2.3s-.459-2.3-1.762-2.3-1.762,1.242-1.762,2.3S505.314,296.371,506.617,296.371Z" transform="translate(-454.281 -283.483)" fill="#fff"/>
    </g>
    <g id="Grupo_1767" data-name="Grupo 1767" transform="translate(21.26 190.798)">
      <path id="Trazado_4657" data-name="Trazado 4657" d="M27.451,312.315a1.65,1.65,0,0,0-.609.255L21.26,315.8v5.123H33.655V315.9l-5.605-3.331A1.572,1.572,0,0,0,27.451,312.315Z" transform="translate(-21.26 -295.923)" fill="#fff"/>
      <path id="Trazado_4658" data-name="Trazado 4658" d="M27.927,205.3l5.728,3.312V190.8H21.26v17.728L27,205.294A.937.937,0,0,1,27.927,205.3Z" transform="translate(-21.26 -190.798)" fill="#fff"/>
    </g>
  </g>
</svg>
