<svg xmlns="http://www.w3.org/2000/svg" width="94" height="16.647" viewBox="0 0 94 16.647">
  <g id="Grupo_1760" data-name="Grupo 1760" transform="translate(-13.164 -18.974)">
    <g id="Grupo_1759" data-name="Grupo 1759" transform="translate(13.164 18.974)">
      <path id="Trazado_4593" data-name="Trazado 4593" d="M24.953,27.3V21.97c0-.694-.36-1.46-2.106-1.46v-.454h6.647v.454c-1.745,0-2.1.766-2.1,1.46v12c0,.693.358,1.458,2.1,1.458v.454H22.847v-.454c1.747,0,2.106-.765,2.106-1.458V28.282H17.707v5.691c0,.693.358,1.458,2.1,1.458v.454H13.164v-.454c1.745,0,2.1-.765,2.1-1.458v-12c0-.694-.359-1.46-2.1-1.46v-.454h6.647v.454c-1.746,0-2.1.766-2.1,1.46V27.3h7.246" transform="translate(-13.164 -19.574)" fill="#fff"/>
      <path id="Trazado_4594" data-name="Trazado 4594" d="M51.079,30.663h.55c.742,2.224,2.416,4.234,4.95,4.234a2.711,2.711,0,0,0,2.7-3.541c-.982-3.348-7.508-3.491-7.508-8.058A4.013,4.013,0,0,1,56.005,19.3c2.534,0,3.681,1.77,4.256,0h.5l.526,5.095h-.6c-.551-2.224-2.13-4.113-4.353-4.113a2.244,2.244,0,0,0-2.51,2.3c0,1.386,1.506,2.366,2.534,2.987,3.252,1.962,5.451,2.99,5.451,5.859,0,2.153-1.794,4.376-5.044,4.376-2.487,0-4.209-1.744-4.449,0H51.8l-.717-5.141" transform="translate(-34.188 -19.157)" fill="#fff"/>
      <path id="Trazado_4595" data-name="Trazado 4595" d="M84.587,27.135c2.415,0,3.826-1.029,3.826-2.964a3.029,3.029,0,0,0-2.821-3.109c-2.2-.145-2.966-.191-2.966.645v5.428h1.962m-1.962,6.6c0,.838.216,1.268,1.962,1.268,2.486,0,4.329-.741,4.329-3.539,0-2.845-2.846-3.372-5.094-3.372h-1.2ZM80.187,21.97c0-.694-.359-1.46-2.295-1.46v-.454H84.3c3.683,0,6.553.981,6.553,4.042,0,2.007-1.341,3.037-3.18,3.443v.048c2.055.381,3.991,1.648,3.991,3.945,0,2.87-2.485,4.351-6.24,4.351H77.892v-.454c1.936,0,2.295-.765,2.295-1.458Z" transform="translate(-49.055 -19.574)" fill="#fff"/>
      <path id="Trazado_4596" data-name="Trazado 4596" d="M123.4,24.38h-.573c-.692-2.631-2.438-4.424-5.165-4.424-3.945,0-5.642,3.18-5.642,7.484,0,3.348,1.745,6.957,5.667,6.957a7.314,7.314,0,0,0,5.6-2.39l.406.478a8.388,8.388,0,0,1-6.217,2.99c-4.662,0-8.225-2.99-8.225-8.227a7.939,7.939,0,0,1,8.178-8.274c3.275,0,4.472,1.963,5.262.025h.5l.214,5.381" transform="translate(-66.442 -18.974)" fill="#fff"/>
      <rect id="Rectángulo_366" data-name="Rectángulo 366" width="16.083" height="16.083" transform="translate(69.876 0.051)" fill="#fff"/>
      <path id="Trazado_4597" data-name="Trazado 4597" d="M170.01,19.062h16.083L178.051,27.1l-8.042-8.041" transform="translate(-100.134 -19.023)" fill="#fff"/>
      <path id="Trazado_4598" data-name="Trazado 4598" d="M170.01,45.152h16.083l-8.041-8.041-8.042,8.041" transform="translate(-100.134 -29.031)" fill="#fff"/>
      <path id="Trazado_4599" data-name="Trazado 4599" d="M160,19.062V35.144L151.959,27.1,160,19.062" transform="translate(-90.125 -19.023)" fill="#fff"/>
      <path id="Trazado_4600" data-name="Trazado 4600" d="M206.109,19.062V35.144l8.042-8.041-8.042-8.041" transform="translate(-120.151 -19.023)" fill="#fff"/>
    </g>
  </g>
</svg>
