<svg xmlns="http://www.w3.org/2000/svg" width="76.013" height="25.017" viewBox="0 0 76.013 25.017">
  <g id="Grupo_1758" data-name="Grupo 1758" transform="translate(-46.482 -534.705)">
    <path id="Trazado_4588" data-name="Trazado 4588" d="M392.97,542.4v-1.922h-6.234v5.764h3.823v1.924h-3.823v5.76h6.234v-1.917h-4.313v-1.926H392.5v-5.766h-3.838V542.4Zm-12.037,4.813a12.5,12.5,0,1,1,12.5,12.5,12.5,12.5,0,0,1-12.5-12.5m1.937,0a10.562,10.562,0,1,1,10.562,10.563,10.564,10.564,0,0,1-10.562-10.563m11.072,4.8v1.918h6.231v-5.766H396.34v-1.916h3.834V540.48h-6.231V542.4h4.307v1.922h-3.837v5.764h3.837v1.924Z" transform="translate(-283.445)" fill="#fff" fill-rule="evenodd"/>
    <path id="Trazado_4589" data-name="Trazado 4589" d="M175.4,585.857a5.03,5.03,0,0,0,3.624-1.16,3.474,3.474,0,0,0,.982-2.527,3.233,3.233,0,0,0-1.96-3.232l-.059-.026.055-.03c.589-.306,1.364-.928,1.364-2.791a3.451,3.451,0,0,0-1.1-2.585,4.694,4.694,0,0,0-3.26-1.087l-7.039-.006v13.44Zm-4.83-8.164v-2.81h4.265c.75,0,2.005,0,2.005,1.483a1.154,1.154,0,0,1-.7,1.142,3.2,3.2,0,0,1-1.3.215h-4.277Zm0,2.5v-.031h4.657a2.834,2.834,0,0,1,1.531.391,1.479,1.479,0,0,1,.691,1.313,1.444,1.444,0,0,1-.371,1.062,2.567,2.567,0,0,1-1.82.451h-4.7v-.027Z" transform="translate(-102.996 -31.951)" fill="#fff"/>
    <rect id="Rectángulo_365" data-name="Rectángulo 365" width="2.68" height="13.438" transform="translate(46.482 540.469)" fill="#fff"/>
    <path id="Trazado_4590" data-name="Trazado 4590" d="M78.362,579.552a7.235,7.235,0,0,0,.671,3.281,5.864,5.864,0,0,0,1.68,2,7.908,7.908,0,0,0,5.019,1.441H89.4v-2.542H85.935a5.333,5.333,0,0,1-4.158-1.416,3.973,3.973,0,0,1-.9-2.68,3.789,3.789,0,0,1,1-2.813,5.554,5.554,0,0,1,4.058-1.271H89.4v-2.516H85.861a11.316,11.316,0,0,0-3.058.362,5.6,5.6,0,0,0-2.17,1.11,6.419,6.419,0,0,0-2.271,5.042" transform="translate(-27.018 -32.48)" fill="#fff"/>
    <path id="Trazado_4591" data-name="Trazado 4591" d="M257.27,579.057a8.014,8.014,0,0,0,.676,3.4,5.872,5.872,0,0,0,1.68,2.122,7.807,7.807,0,0,0,5.016,1.312h3.87v-2.535H264.85a5.213,5.213,0,0,1-4.158-1.477,4.164,4.164,0,0,1-.9-2.736,3.91,3.91,0,0,1,1.032-2.9,5.493,5.493,0,0,1,4.026-1.283h3.663v-2.508H264.77a11.138,11.138,0,0,0-3.057.357,5.588,5.588,0,0,0-2.17,1.107,6.6,6.6,0,0,0-2.274,5.138" transform="translate(-178.641 -31.985)" fill="#fff"/>
    <path id="Trazado_4592" data-name="Trazado 4592" d="M392.97,542.4v-1.922h-6.234v5.764h3.823v1.924h-3.823v5.76h6.234v-1.917h-4.313v-1.926H392.5v-5.766h-3.838V542.4Zm-12.037,4.813a12.5,12.5,0,1,1,12.5,12.5A12.5,12.5,0,0,1,380.933,547.211Zm1.937,0a10.562,10.562,0,1,1,10.562,10.563A10.564,10.564,0,0,1,382.87,547.211Zm11.072,4.8v1.918h6.231v-5.766H396.34v-1.916h3.834V540.48h-6.231V542.4h4.307v1.922h-3.837v5.764h3.837v1.924Z" transform="translate(-283.445)" fill="#fff" stroke="#b2292e" stroke-width="0.017"/>
  </g>
</svg>
