<svg xmlns="http://www.w3.org/2000/svg" width="46.027" height="28.451" viewBox="0 0 46.027 28.451">
  <g id="_Group_" data-name=" Group " transform="translate(0)">
    <rect id="Rectángulo_294" data-name="Rectángulo 294" width="12.446" height="22.366" transform="translate(16.79 3.042)" fill="#d0d0d0"/>
    <path id="_Path_" data-name=" Path " d="M32.734,29.38a14.2,14.2,0,0,1,5.433-11.185,14.223,14.223,0,1,0,0,22.366A14.2,14.2,0,0,1,32.734,29.38Z" transform="translate(-15.154 -15.152)" fill="#9a9a9a"/>
    <path id="Trazado_4126" data-name="Trazado 4126" d="M96.414,29.377A14.223,14.223,0,0,1,73.4,40.558a14.224,14.224,0,0,0,0-22.366A14.223,14.223,0,0,1,96.414,29.373Z" transform="translate(-50.387 -15.15)" fill="#eaeaea"/>
    <path id="Trazado_4127" data-name="Trazado 4127" d="M127.774,72.613v-.458h.186V72.06h-.47v.095h.2v.458Zm.913,0V72.06h-.142l-.166.4-.166-.4h-.126v.553h.1V72.2l.154.36h.107l.154-.36v.419Z" transform="translate(-83.106 -49.575)" fill="#fff"/>
  </g>
</svg>
