<svg xmlns="http://www.w3.org/2000/svg" width="94" height="18.001" viewBox="0 0 94 18.001">
  <g id="Grupo_1762" data-name="Grupo 1762" transform="translate(-142.666 -391.551)">
    <g id="Grupo_1761" data-name="Grupo 1761" transform="translate(142.666 391.551)">
      <path id="Trazado_4601" data-name="Trazado 4601" d="M166.578,403.991l-.05-.026a.079.079,0,0,0-.051.008l-2.558,1.248c-.018.009-.016.016,0,.016H169.1c.02,0,.022-.007,0-.016Z" transform="translate(-157.505 -400.223)" fill="#fff"/>
      <path id="Trazado_4602" data-name="Trazado 4602" d="M151.668,391.551a9,9,0,1,0,9,9A9.011,9.011,0,0,0,151.668,391.551Zm5.072,14.228a.027.027,0,0,1-.027.027H146.623a.027.027,0,0,1-.027-.027v-1.015a.027.027,0,0,1,.027-.027h10.088a.027.027,0,0,1,.027.027Zm-6.795-2.655v-5.113h1.16v5.115h1.131v-5.113h1.157v5.113h1.157v-5.113H155.7v5.113h.513v1.041a.027.027,0,0,1-.027.028h-9.039a.028.028,0,0,1-.027-.028v-1.041h.512v-5.113h1.154v5.112Zm7.133-6.191-.32.561a.07.07,0,0,1-.055.033H146.64a.07.07,0,0,1-.055-.033l-.32-.561a.036.036,0,0,1,.015-.049l5.359-2.85a.075.075,0,0,1,.065,0l5.36,2.85A.035.035,0,0,1,157.077,396.934Z" transform="translate(-142.666 -391.551)" fill="#fff"/>
    </g>
    <path id="Trazado_4603" data-name="Trazado 4603" d="M217.418,415.445a3.494,3.494,0,0,1,.424-.072,4.206,4.206,0,0,1,.547-.038v-6.264a4.363,4.363,0,0,1-.547-.037,3.256,3.256,0,0,1-.424-.074v-.847h3.5a5.264,5.264,0,0,1,1.069.1,2.622,2.622,0,0,1,.884.343,1.7,1.7,0,0,1,.6.626,1.932,1.932,0,0,1,.215.95,1.761,1.761,0,0,1-.41,1.226,2.11,2.11,0,0,1-1.081.626v.024a2.848,2.848,0,0,1,.708.216,2.054,2.054,0,0,1,.59.4,1.839,1.839,0,0,1,.4.586,1.919,1.919,0,0,1,.148.78,2.208,2.208,0,0,1-.234,1.053,1.95,1.95,0,0,1-.647.713,2.882,2.882,0,0,1-.991.406,5.916,5.916,0,0,1-1.28.13h-3.47Zm2.334-3.868h1a1.783,1.783,0,0,0,1.179-.319,1.171,1.171,0,0,0,.369-.941q0-1.2-1.512-1.2h-1.032Zm0,3.7h1.085a2.265,2.265,0,0,0,1.345-.32,1.183,1.183,0,0,0,.432-1.019,1.33,1.33,0,0,0-.4-1.031,1.907,1.907,0,0,0-1.313-.369h-1.148Z" transform="translate(-52.226 -11.571)" fill="#fff"/>
    <path id="Trazado_4604" data-name="Trazado 4604" d="M243.08,421.282a2.114,2.114,0,0,1-.7-.111,1.54,1.54,0,0,1-.922-.841,1.69,1.69,0,0,1-.135-.695,1.654,1.654,0,0,1,.277-.97,2.04,2.04,0,0,1,.724-.632,3.475,3.475,0,0,1,1.02-.344,6.441,6.441,0,0,1,1.161-.1h.221v-.5a1.038,1.038,0,0,0-.246-.774,1.16,1.16,0,0,0-.823-.237,2.033,2.033,0,0,0-.841.171,2.985,2.985,0,0,0-.718.454l-.577-.813a3.367,3.367,0,0,1,.957-.6,3.293,3.293,0,0,1,1.314-.243,2.483,2.483,0,0,1,1.677.491,2.047,2.047,0,0,1,.559,1.609v2.493c0,.115,0,.22.006.314s.01.186.019.276c.172.016.331.029.479.037s.275.013.38.013v.861c-.18.015-.452.032-.816.048s-.764.025-1.2.025a1.929,1.929,0,0,1-.062-.326,3.741,3.741,0,0,1-.024-.447h-.024a2.3,2.3,0,0,1-.681.59,1.976,1.976,0,0,1-1.027.257m.332-.984a1.553,1.553,0,0,0,.78-.184,1.7,1.7,0,0,0,.534-.466v-1.241h-.221a3.147,3.147,0,0,0-1.358.251.907.907,0,0,0-.522.892.64.64,0,0,0,.259.577.947.947,0,0,0,.528.171" transform="translate(-68.929 -16.413)" fill="#fff"/>
    <path id="Trazado_4605" data-name="Trazado 4605" d="M261.846,420.287a3.5,3.5,0,0,1,.405-.072,3.706,3.706,0,0,1,.516-.038v-4.066c-.189-.016-.364-.028-.528-.036s-.294-.014-.394-.014v-.847c.189-.025.488-.046.9-.067s.861-.031,1.352-.031l-.049.934h.025a2.861,2.861,0,0,1,.785-.726,2.328,2.328,0,0,1,1.923-.135,1.42,1.42,0,0,1,.546.407,1.652,1.652,0,0,1,.307.6,2.7,2.7,0,0,1,.1.737v3.243a3.257,3.257,0,0,1,.51.043c.176.029.305.051.387.067v.849h-3.07v-.849c.082-.016.2-.036.368-.061s.332-.041.5-.049v-3.021a1.251,1.251,0,0,0-.209-.774.849.849,0,0,0-.713-.271,1.286,1.286,0,0,0-.823.283,3.307,3.307,0,0,0-.6.614v3.169c.165.008.33.025.5.049s.291.045.374.061v.849h-3.108Z" transform="translate(-83.267 -16.413)" fill="#fff"/>
    <path id="Trazado_4606" data-name="Trazado 4606" d="M288.866,416.787c-.008-.1-.016-.215-.023-.327s-.013-.214-.013-.312a1.88,1.88,0,0,0-.725-.123,1.428,1.428,0,0,0-1.222.62,2.1,2.1,0,0,0-.306.675,3.189,3.189,0,0,0-.105.841,3.013,3.013,0,0,0,.111.829,2.01,2.01,0,0,0,.326.67,1.585,1.585,0,0,0,.528.448,1.538,1.538,0,0,0,.732.166,2.356,2.356,0,0,0,.9-.171,2.676,2.676,0,0,0,.307-.148c.086-.049.153-.09.2-.123l.429.885a2.194,2.194,0,0,1-.27.165,3.134,3.134,0,0,1-.423.185,3.6,3.6,0,0,1-.577.154,3.959,3.959,0,0,1-.731.061,3.172,3.172,0,0,1-1.242-.228,2.56,2.56,0,0,1-.914-.633,2.8,2.8,0,0,1-.57-.959,3.545,3.545,0,0,1-.2-1.2,3.805,3.805,0,0,1,.229-1.363,2.835,2.835,0,0,1,.639-1.013,2.739,2.739,0,0,1,.956-.627,3.245,3.245,0,0,1,1.2-.215,3.551,3.551,0,0,1,1.094.148,2.32,2.32,0,0,1,.663.306v1.291Z" transform="translate(-99.501 -16.413)" fill="#fff"/>
    <path id="Trazado_4607" data-name="Trazado 4607" d="M305.656,421.282a2.967,2.967,0,0,1-1.305-.264,2.523,2.523,0,0,1-.889-.694,2.791,2.791,0,0,1-.5-.983,4.056,4.056,0,0,1-.159-1.13,3.947,3.947,0,0,1,.165-1.116,3.13,3.13,0,0,1,.509-1.019,2.663,2.663,0,0,1,.882-.744,2.719,2.719,0,0,1,1.3-.288,3.018,3.018,0,0,1,1.311.263,2.635,2.635,0,0,1,.906.7,2.829,2.829,0,0,1,.527.984,3.711,3.711,0,0,1,0,2.234,3.177,3.177,0,0,1-.527,1.027,2.716,2.716,0,0,1-.906.748,2.786,2.786,0,0,1-1.311.289m.024-.984a1.312,1.312,0,0,0,.685-.165,1.384,1.384,0,0,0,.465-.448,2.015,2.015,0,0,0,.269-.676,3.917,3.917,0,0,0,.086-.834,3.62,3.62,0,0,0-.093-.836,2.193,2.193,0,0,0-.274-.682,1.413,1.413,0,0,0-.471-.46,1.331,1.331,0,0,0-.692-.171,1.309,1.309,0,0,0-.673.165,1.35,1.35,0,0,0-.458.449,2.007,2.007,0,0,0-.257.67,4.132,4.132,0,0,0-.079.829,3.89,3.89,0,0,0,.086.836,2.276,2.276,0,0,0,.262.687,1.348,1.348,0,0,0,.459.467,1.3,1.3,0,0,0,.685.171" transform="translate(-111.88 -16.413)" fill="#fff"/>
    <path id="Trazado_4608" data-name="Trazado 4608" d="M332.271,415.444a3.52,3.52,0,0,1,.424-.072,4.107,4.107,0,0,1,.547-.038V409.07a4.433,4.433,0,0,1-.547-.037,3.179,3.179,0,0,1-.424-.074v-.848h2.273l3.476,4.877c.2.27.375.529.54.774a4.534,4.534,0,0,1,.307.5h.025c-.009-.082-.017-.228-.025-.437s-.011-.468-.011-.78V409.07a4.281,4.281,0,0,1-.542-.037,3.094,3.094,0,0,1-.417-.074v-.848h3.094v.848a3.134,3.134,0,0,1-.416.074,4.221,4.221,0,0,1-.529.037v7.223h-1.2l-3.673-5.148c-.09-.122-.178-.248-.264-.373s-.161-.247-.227-.357-.122-.207-.172-.289-.081-.139-.1-.171h-.025a2.8,2.8,0,0,1,.038.423c.008.209.012.412.012.608v4.348c.163.008.341.023.534.043a3.153,3.153,0,0,1,.424.068v.849h-3.12Z" transform="translate(-132.47 -11.57)" fill="#fff"/>
    <path id="Trazado_4609" data-name="Trazado 4609" d="M363.548,421.282a2.094,2.094,0,0,1-.7-.111,1.53,1.53,0,0,1-.553-.325,1.557,1.557,0,0,1-.369-.516,1.84,1.84,0,0,1,.141-1.665,2.044,2.044,0,0,1,.724-.632,3.478,3.478,0,0,1,1.02-.345,6.511,6.511,0,0,1,1.16-.1h.221v-.5a1.042,1.042,0,0,0-.246-.774,1.164,1.164,0,0,0-.823-.236,2.034,2.034,0,0,0-.841.171,2.936,2.936,0,0,0-.718.454l-.577-.813a3.346,3.346,0,0,1,.958-.6,3.287,3.287,0,0,1,1.315-.243,2.478,2.478,0,0,1,1.676.491,2.048,2.048,0,0,1,.558,1.609v2.494c0,.114,0,.218.006.312s.012.187.02.277c.172.016.331.028.479.037s.274.013.38.013v.861c-.18.015-.453.032-.816.048s-.764.024-1.2.024a2.042,2.042,0,0,1-.062-.326,3.809,3.809,0,0,1-.024-.447h-.025a2.271,2.271,0,0,1-.681.589,1.972,1.972,0,0,1-1.025.258m.331-.984a1.564,1.564,0,0,0,.78-.183,1.7,1.7,0,0,0,.534-.467v-1.241h-.221a3.147,3.147,0,0,0-1.357.251.907.907,0,0,0-.523.891.644.644,0,0,0,.259.578.942.942,0,0,0,.528.171" transform="translate(-153.094 -16.413)" fill="#fff"/>
    <path id="Trazado_4610" data-name="Trazado 4610" d="M384.909,416.779c-.008-.1-.016-.21-.024-.32s-.011-.215-.011-.313a1.907,1.907,0,0,0-.726-.123,1.431,1.431,0,0,0-1.221.62,2.135,2.135,0,0,0-.307.676,3.2,3.2,0,0,0-.1.841,2.991,2.991,0,0,0,.111.829,2.019,2.019,0,0,0,.325.67,1.594,1.594,0,0,0,.529.448,1.544,1.544,0,0,0,.731.166,2.34,2.34,0,0,0,.5-.049,2.424,2.424,0,0,0,.406-.122,2.9,2.9,0,0,0,.307-.148c.085-.049.153-.091.2-.122l.43.884a2.28,2.28,0,0,1-.271.165,3.1,3.1,0,0,1-.423.184,3.531,3.531,0,0,1-.577.153,3.915,3.915,0,0,1-.732.062,3.181,3.181,0,0,1-1.241-.228,2.574,2.574,0,0,1-.914-.633,2.817,2.817,0,0,1-.57-.958,3.557,3.557,0,0,1-.2-1.2,3.813,3.813,0,0,1,.23-1.363,2.855,2.855,0,0,1,.638-1.014,2.763,2.763,0,0,1,.956-.626,3.263,3.263,0,0,1,1.2-.216,3.594,3.594,0,0,1,1.094.148,2.319,2.319,0,0,1,.663.307v1.285Z" transform="translate(-166.603 -16.41)" fill="#fff"/>
    <path id="Trazado_4611" data-name="Trazado 4611" d="M399.708,415.275a3.276,3.276,0,0,1,.4-.073,3.542,3.542,0,0,1,.51-.038V411.1c-.185-.016-.36-.028-.521-.036s-.291-.013-.388-.013V410.2c.187-.024.489-.048.9-.067s.876-.03,1.381-.03l-.05.97v4.09a3.09,3.09,0,0,1,.5.042l.393.068v.849h-3.132Zm1.566-5.9a.739.739,0,0,1-.542-.221.749.749,0,0,1,0-1.062.738.738,0,0,1,.542-.221.752.752,0,1,1,0,1.5" transform="translate(-179.586 -11.401)" fill="#fff"/>
    <path id="Trazado_4612" data-name="Trazado 4612" d="M414.379,416.373a2.974,2.974,0,0,1-1.305-.264,2.532,2.532,0,0,1-.889-.694,2.815,2.815,0,0,1-.5-.983,4.079,4.079,0,0,1-.16-1.13,3.942,3.942,0,0,1,.167-1.117,3.151,3.151,0,0,1,.508-1.019,2.669,2.669,0,0,1,.883-.744,2.713,2.713,0,0,1,1.3-.288,3.022,3.022,0,0,1,1.312.263,2.637,2.637,0,0,1,.906.7,2.845,2.845,0,0,1,.528.983,3.719,3.719,0,0,1,0,2.234,3.188,3.188,0,0,1-.528,1.028,2.729,2.729,0,0,1-.906.748,2.8,2.8,0,0,1-1.312.289m.025-.984a1.316,1.316,0,0,0,.685-.165,1.4,1.4,0,0,0,.465-.449,2.013,2.013,0,0,0,.269-.676,3.821,3.821,0,0,0,.086-.834,3.659,3.659,0,0,0-.092-.835,2.2,2.2,0,0,0-.275-.683,1.419,1.419,0,0,0-.47-.46,1.332,1.332,0,0,0-.692-.172,1.3,1.3,0,0,0-.672.166,1.332,1.332,0,0,0-.458.449,2,2,0,0,0-.258.668,4.217,4.217,0,0,0-.079.83,3.946,3.946,0,0,0,.086.836,2.236,2.236,0,0,0,.264.688,1.342,1.342,0,0,0,.458.467,1.292,1.292,0,0,0,.685.171m.412-7.373h1.768l-1.561,1.389h-1.142Z" transform="translate(-187.84 -11.503)" fill="#fff"/>
    <path id="Trazado_4613" data-name="Trazado 4613" d="M432.113,420.285a3.4,3.4,0,0,1,.4-.072,3.613,3.613,0,0,1,.515-.038V416.11q-.282-.023-.528-.036c-.164-.008-.294-.013-.392-.013v-.848c.187-.025.487-.047.9-.066s.859-.031,1.352-.031l-.049.933h.024a2.882,2.882,0,0,1,.784-.725,2.322,2.322,0,0,1,1.923-.135,1.42,1.42,0,0,1,.547.407,1.686,1.686,0,0,1,.308.6,2.71,2.71,0,0,1,.1.737v3.243a3.22,3.22,0,0,1,.51.043c.176.029.3.052.386.067v.849h-3.07v-.849c.081-.015.2-.036.369-.061s.331-.041.5-.049v-3.022a1.25,1.25,0,0,0-.207-.773.852.852,0,0,0-.713-.271,1.289,1.289,0,0,0-.824.283,3.308,3.308,0,0,0-.6.615v3.168c.164.008.33.025.5.049s.294.046.375.061v.849h-3.107Z" transform="translate(-202.226 -16.412)" fill="#fff"/>
  </g>
</svg>
