<svg xmlns="http://www.w3.org/2000/svg" width="93.63" height="18.331" viewBox="0 0 93.63 18.331">
  <g id="Grupo_1764" data-name="Grupo 1764" transform="translate(0 0)">
    <path id="Trazado_4614" data-name="Trazado 4614" d="M120.939,122.694a11.365,11.365,0,0,1-1.8-.13c-.394-.077-.542-.218-.542-.708v-6.617c0-.489.138-.642.522-.707a13.848,13.848,0,0,1,1.766-.119c1.864,0,3.116.544,3.116,2.275v.2a1.759,1.759,0,0,1-.828,1.6,1.764,1.764,0,0,1,.877,1.611v.163C124.046,122.171,122.645,122.694,120.939,122.694Zm1.43-5.888c0-.6-.345-.871-1.361-.871-.157,0-.612,0-.749.011v1.882h1.1c.779,0,1.006-.391,1.006-.859Zm.039,3.287c0-.523-.256-.969-1.045-.969h-1.1v2.036c.157,0,.67.011.809.011,1.016,0,1.341-.348,1.341-.957Z" transform="translate(-96.658 -109.44)" fill="#fff"/>
    <path id="Trazado_4615" data-name="Trazado 4615" d="M142.493,126.505h-1.1a.209.209,0,0,1-.2-.217v-.174a2.042,2.042,0,0,1-1.371.49c-.858,0-1.686-.457-1.686-1.871v-.1c0-1.274.74-1.839,2.426-1.839h.533V122.4c0-.621-.276-.751-.74-.751-.631,0-1.331.044-1.637.076h-.049c-.1,0-.177-.055-.177-.2v-.881a.237.237,0,0,1,.187-.239,7.205,7.205,0,0,1,1.706-.228c1.42,0,2.308.631,2.308,2.22v3.885A.209.209,0,0,1,142.493,126.505Zm-1.371-2.666h-.563c-.69,0-.867.261-.867.794v.1c0,.456.206.543.621.543a1.708,1.708,0,0,0,.809-.239Z" transform="translate(-109.897 -113.349)" fill="#fff"/>
    <path id="Trazado_4616" data-name="Trazado 4616" d="M159.806,126.505h-1.193a.22.22,0,0,1-.2-.228v-3.624c0-.762-.129-1.012-.73-1.012a1.969,1.969,0,0,0-.927.348v4.288a.219.219,0,0,1-.2.228h-1.193a.227.227,0,0,1-.207-.228v-5.791a.209.209,0,0,1,.2-.216h1.1a.209.209,0,0,1,.2.216v.262a2.33,2.33,0,0,1,1.608-.565c1.43,0,1.746,1.1,1.746,2.47v3.624A.228.228,0,0,1,159.806,126.505Z" transform="translate(-121.432 -113.349)" fill="#fff"/>
    <path id="Trazado_4617" data-name="Trazado 4617" d="M177.2,126.44a4.959,4.959,0,0,1-1.311.164c-1.391,0-2.3-.98-2.3-2.753v-.914c0-1.775.906-2.753,2.3-2.753a5,5,0,0,1,1.311.162c.148.044.207.087.207.251v.968a.184.184,0,0,1-.187.185h-.02a8.672,8.672,0,0,0-1.2-.075c-.443,0-.809.293-.809,1.262v.914c0,.969.365,1.263.809,1.263a8.6,8.6,0,0,0,1.2-.076h.02a.185.185,0,0,1,.187.185v.968C177.407,126.353,177.349,126.4,177.2,126.44Z" transform="translate(-133.918 -113.349)" fill="#fff"/>
    <path id="Trazado_4618" data-name="Trazado 4618" d="M190.122,126.6c-1.6,0-2.476-1.1-2.476-2.829v-.762c0-1.731.879-2.829,2.476-2.829s2.467,1.1,2.467,2.829v.762C192.588,125.5,191.719,126.6,190.122,126.6Zm.878-3.591c0-.882-.305-1.329-.878-1.329s-.887.447-.887,1.329v.762c0,.882.316,1.339.887,1.339s.878-.457.878-1.339Z" transform="translate(-143.439 -113.349)" fill="#fff"/>
    <path id="Trazado_4619" data-name="Trazado 4619" d="M217.12,120.406c-.228,0-.532-.021-.77-.032V122.9a.2.2,0,0,1-.19.208h-1.226a.19.19,0,0,1-.19-.2v-6.989c0-.353.133-.447.427-.5a12.724,12.724,0,0,1,1.929-.136c1.435,0,2.851.551,2.851,2.506v.094C219.952,119.833,218.536,120.406,217.12,120.406Zm1.217-2.611c0-.738-.418-1.03-1.217-1.03-.133,0-.656.021-.77.032v2.122c.1.011.665.021.77.021.846,0,1.217-.343,1.217-1.051Z" transform="translate(-161.797 -110.034)" fill="#fff"/>
    <path id="Trazado_4620" data-name="Trazado 4620" d="M236.476,122.2H236.4a2.4,2.4,0,0,0-1.226.364v4.067a.209.209,0,0,1-.19.218h-1.15a.217.217,0,0,1-.2-.218v-5.533a.2.2,0,0,1,.19-.208h1.131a.2.2,0,0,1,.19.208v.208a1.931,1.931,0,0,1,1.282-.5.2.2,0,0,1,.19.208V122C236.618,122.091,236.56,122.2,236.476,122.2Z" transform="translate(-174.594 -113.769)" fill="#fff"/>
    <path id="Trazado_4621" data-name="Trazado 4621" d="M246.659,126.938c-1.539,0-2.386-1.05-2.386-2.7v-.727c0-1.653.846-2.7,2.386-2.7s2.376,1.051,2.376,2.7v.727C249.035,125.889,248.2,126.938,246.659,126.938Zm.845-3.432c0-.842-.294-1.268-.845-1.268s-.855.427-.855,1.268v.727c0,.843.3,1.28.855,1.28s.845-.437.845-1.28Z" transform="translate(-181.801 -113.769)" fill="#fff"/>
    <path id="Trazado_4622" data-name="Trazado 4622" d="M265.537,121.3l-1.2,4.723a1.41,1.41,0,0,1-2.747,0l-1.187-4.723a.139.139,0,0,1-.009-.062.161.161,0,0,1,.152-.176H261.8c.1,0,.173.094.2.219l.818,4.076c.028.157.075.218.142.218s.124-.061.153-.218l.818-4.076c.029-.125.1-.219.2-.219h1.255a.167.167,0,0,1,.161.176A.144.144,0,0,1,265.537,121.3Z" transform="translate(-192.724 -113.943)" fill="#fff"/>
    <path id="Trazado_4623" data-name="Trazado 4623" d="M280.181,116.059h-1.236a.2.2,0,0,1-.189-.207v-.968a.2.2,0,0,1,.189-.208h1.236a.2.2,0,0,1,.19.208v.968A.2.2,0,0,1,280.181,116.059Zm-.038,6.635h-1.159a.2.2,0,0,1-.19-.208v-5.542a.2.2,0,0,1,.19-.208h1.159a.2.2,0,0,1,.19.208v5.542A.2.2,0,0,1,280.143,122.693Z" transform="translate(-205.162 -109.618)" fill="#fff"/>
    <path id="Trazado_4624" data-name="Trazado 4624" d="M291.779,126.845h-1.15a.21.21,0,0,1-.19-.218v-3.463c0-.729-.123-.967-.7-.967a1.922,1.922,0,0,0-.894.333v4.1a.209.209,0,0,1-.19.218H287.5a.216.216,0,0,1-.2-.218v-5.533a.2.2,0,0,1,.188-.208h1.066a.2.2,0,0,1,.19.208v.249a2.256,2.256,0,0,1,1.549-.54c1.378,0,1.682,1.051,1.682,2.361v3.463A.217.217,0,0,1,291.779,126.845Z" transform="translate(-210.953 -113.769)" fill="#fff"/>
    <path id="Trazado_4625" data-name="Trazado 4625" d="M308.372,126.782a4.767,4.767,0,0,1-1.264.157c-1.34,0-2.214-.935-2.214-2.631v-.873c0-1.7.874-2.631,2.214-2.631a4.8,4.8,0,0,1,1.264.156c.144.041.2.083.2.239v.925a.177.177,0,0,1-.18.177h-.019a8.327,8.327,0,0,0-1.159-.074c-.427,0-.779.281-.779,1.207v.873c0,.926.352,1.207.779,1.207a8.472,8.472,0,0,0,1.159-.072h.019a.176.176,0,0,1,.18.176v.925C308.571,126.7,308.516,126.742,308.372,126.782Z" transform="translate(-222.869 -113.769)" fill="#fff"/>
    <path id="Trazado_4626" data-name="Trazado 4626" d="M320.732,116.059H319.5a.2.2,0,0,1-.19-.207v-.968a.2.2,0,0,1,.19-.208h1.235a.2.2,0,0,1,.191.208v.968A.2.2,0,0,1,320.732,116.059Zm-.037,6.635h-1.16a.2.2,0,0,1-.191-.208v-5.542a.2.2,0,0,1,.191-.208h1.16a.2.2,0,0,1,.191.208v5.542A.2.2,0,0,1,320.695,122.693Z" transform="translate(-232.633 -109.618)" fill="#fff"/>
    <path id="Trazado_4627" data-name="Trazado 4627" d="M331.464,126.845H330.4a.2.2,0,0,1-.191-.208v-.165a1.98,1.98,0,0,1-1.321.467c-.826,0-1.625-.437-1.625-1.788v-.094c0-1.217.712-1.758,2.338-1.758h.514v-.375c0-.592-.266-.717-.713-.717-.609,0-1.283.042-1.578.072h-.048c-.094,0-.171-.053-.171-.188v-.842a.228.228,0,0,1,.18-.229,7.071,7.071,0,0,1,1.645-.218c1.368,0,2.223.6,2.223,2.121v3.712A.2.2,0,0,1,331.464,126.845Zm-1.321-2.548H329.6c-.665,0-.837.25-.837.76v.094c0,.437.2.52.6.52a1.646,1.646,0,0,0,.779-.228Z" transform="translate(-238.024 -113.769)" fill="#fff"/>
    <g id="Grupo_1763" data-name="Grupo 1763" transform="translate(0 0)">
      <path id="Trazado_4628" data-name="Trazado 4628" d="M59.224,99H51.571a.86.86,0,0,0-.982.941v10.924s.041,6.126,5.975,6.461h8.39a1.193,1.193,0,0,0,1.228-1.22V106.08s-1.473,3.683-5.116,3.683l-1.828.027-.027,3.6H58.2s-3.138-.191-3.138-2.674l-.027-9.74H57.3A10.112,10.112,0,0,0,59.224,99Z" transform="translate(-50.589 -98.996)" fill="#fff"/>
      <path id="Trazado_4629" data-name="Trazado 4629" d="M77.489,110.218v3.739h1.842s1.289-.029,1.289-1.717a2.043,2.043,0,0,0-1.566-2.022Z" transform="translate(-68.813 -106.598)" fill="#fff"/>
    </g>
  </g>
</svg>
