<svg xmlns="http://www.w3.org/2000/svg" width="76.002" height="13.3" viewBox="0 0 76.002 13.3">
  <path id="Trazado_4108" data-name="Trazado 4108" d="M163.855,311.114a4.141,4.141,0,0,1-.113,1.229,3.452,3.452,0,0,0-1.116-.112c-.336,0-.671.112-1.007.112v5.588h-1.452v-6.482a8.036,8.036,0,0,1,2.459-.447A4.2,4.2,0,0,1,163.855,311.114Zm-9.724,2.794h3.353a1.585,1.585,0,0,0-1.679-1.676Q154.3,312.232,154.131,313.908Zm4.693,1.229h-4.579c.109,1.23.781,1.788,2.124,1.788a6.018,6.018,0,0,0,2.346-.559,5.527,5.527,0,0,0-.223,1.341,4.854,4.854,0,0,1-2.123.447c-2.459,0-3.689-1.341-3.689-3.576,0-2.012,1-3.576,3.24-3.576a2.759,2.759,0,0,1,3.018,3.017C158.936,314.467,158.823,314.8,158.823,315.137Zm-8.717,1.341v-4.135c-.336,0-.781-.112-1.117-.112-1.452,0-2.124.894-2.124,2.458,0,1.341.558,2.235,1.788,2.235A3.165,3.165,0,0,0,150.106,316.479Zm1.452-7.712v9.164h-1.339l-.113-.782a2.037,2.037,0,0,1-1.9,1.006c-1.679,0-2.795-1.341-2.795-3.465,0-2.347,1.23-3.688,3.576-3.688.449,0,.781.112,1.117.112v-2.123A3.3,3.3,0,0,1,151.558,308.767Zm-7.374,4.806v4.359h-1.452V313.8c0-1.006-.336-1.564-1.788-1.564-.336,0-.671.112-1.12.112v5.588h-1.452v-6.482a12.248,12.248,0,0,1,2.682-.447C143.4,311,144.184,312.008,144.184,313.573Zm-8.83,2.906v-4.135c-.336,0-.671-.112-1-.112-1.565,0-2.237,1.005-2.237,2.458,0,1.341.558,2.235,1.788,2.235A2.061,2.061,0,0,0,135.353,316.479Zm1.452-5.03v6.482h-1.339l-.113-.782a1.978,1.978,0,0,1-1.788,1.006c-1.788,0-2.9-1.341-2.9-3.465,0-2.347,1.23-3.688,3.689-3.688A6,6,0,0,1,136.806,311.449Zm-7.823,5.477a4.008,4.008,0,0,0,1.23-.223c-.109.335-.109.782-.222,1.229a4.009,4.009,0,0,1-1.23.224,2.006,2.006,0,0,1-2.237-2.235v-6.929a5.638,5.638,0,0,1,1.343-.224v2.459h2.346c0,.447-.109.894-.109,1.229h-2.237V315.7C127.865,316.59,128.314,316.926,128.982,316.926Zm-3.911-3.353v4.359h-1.453V313.8c0-1.006-.335-1.564-1.788-1.564-.336,0-.782.112-1.23.112v5.588h-1.453v-6.482A14.813,14.813,0,0,1,121.83,311C124.289,311,125.071,312.008,125.071,313.573Zm-8.941,2.906v-4.135c-.224,0-.559-.112-1.006-.112a2.177,2.177,0,0,0-2.235,2.458c0,1.341.559,2.235,1.9,2.235A1.782,1.782,0,0,0,116.13,316.479Zm1.453-5.03v6.482h-1.341v-.782a2.319,2.319,0,0,1-1.9,1.006c-1.676,0-2.906-1.341-2.906-3.465,0-2.347,1.23-3.688,3.688-3.688A5.384,5.384,0,0,1,117.583,311.449Zm-13.077,6.259a4.8,4.8,0,0,1,.224-1.341,6.371,6.371,0,0,0,2.459.447c1.229,0,1.9-.335,1.9-1.118s-.559-1.118-1.789-1.677l-.67-.223c-1.23-.559-2.012-1.23-2.012-2.682s1.006-2.459,3.13-2.459a7.424,7.424,0,0,1,2.347.335,4.169,4.169,0,0,1-.224,1.341,7.587,7.587,0,0,0-2.123-.336c-1.118,0-1.677.447-1.677,1.118s.447,1.118,1.453,1.453l.671.335c1.676.671,2.347,1.453,2.347,2.682,0,1.565-1.118,2.571-3.353,2.571A6.108,6.108,0,0,1,104.506,317.708Zm-6.594-6.482a5.513,5.513,0,0,0-.447-1.453l-2.235-3.8a7.741,7.741,0,0,1-.335-.894v.223a2.924,2.924,0,0,0,0,3.018l1.677,3.017a2.926,2.926,0,0,1,0,3.017l-.112.224a1.8,1.8,0,0,0-.335-1.006l-1.564-2.794L93.553,309.1a1.8,1.8,0,0,1-.335-1.005l-.112.223a2.923,2.923,0,0,0,0,3.017h0l1.788,3.017a3.56,3.56,0,0,1,0,3.018l-.112.223a7.579,7.579,0,0,0-.335-.894l-2.235-3.8a3.153,3.153,0,0,1-.447-1.676c-2.347.558-3.912,1.9-3.912,3.353,0,2.123,3.13,3.8,7.041,3.8,3.8,0,6.93-1.676,6.93-3.8C101.824,313.126,100.259,311.784,97.912,311.226Z" transform="translate(-87.853 -305.079)" fill="#fff"/>
</svg>
