<svg xmlns="http://www.w3.org/2000/svg" width="55.419" height="17.146" viewBox="0 0 55.419 17.146">
  <g id="Grupo_1626" data-name="Grupo 1626" transform="translate(-237.221 -402.357)">
    <path id="Trazado_4103" data-name="Trazado 4103" d="M272.851,419.479l4.951-16.324h4.417l-4.951,16.324Z" transform="translate(-19.633 -0.44)" fill="#fff" fill-rule="evenodd"/>
    <path id="Trazado_4104" data-name="Trazado 4104" d="M251.244,403.165l-3.974,6.92a16.753,16.753,0,0,0-1.887,3.873h-.061c.07-1.452-.132-3.234-.151-4.242l-.439-6.551H237.3l-.076.44a3.082,3.082,0,0,1,3.354,2.922l1.449,12.957H246.6l9.253-16.319Z" transform="translate(0 -0.445)" fill="#fff" fill-rule="evenodd"/>
    <path id="Trazado_4105" data-name="Trazado 4105" d="M330.772,419.517l-.122-2.428-5.515,0-1.128,2.432h-4.8l8.7-16.292h5.887l1.472,16.292Zm-.507-9.629a37.356,37.356,0,0,1-.008-3.835h-.065c-.269.811-1.424,3.244-1.931,4.441l-1.644,3.578h3.873l-.225-4.184Z" transform="translate(-45.177 -0.478)" fill="#fff" fill-rule="evenodd"/>
    <path id="Trazado_4106" data-name="Trazado 4106" d="M295.863,419.5a12.35,12.35,0,0,1-6.665-1.871l2.1-3.213a8.159,8.159,0,0,0,4.765,1.6,2.05,2.05,0,0,0,1.934-.93c.614-1.062-.142-1.633-1.867-2.61l-.852-.554c-2.558-1.748-3.665-3.408-2.46-6.306.77-1.853,2.8-3.259,6.156-3.259a9.891,9.891,0,0,1,5.743,1.977l-2.419,2.837a5.373,5.373,0,0,0-3.424-1.5,2.059,2.059,0,0,0-1.885.844c-.46.912.149,1.533,1.493,2.367l1.013.645c3.106,1.959,3.846,4.012,3.067,5.933-1.339,3.305-3.96,4.043-6.7,4.043Z" transform="translate(-28.64)" fill="#fff" fill-rule="evenodd"/>
    <path id="Trazado_4107" data-name="Trazado 4107" d="M356.88,406.053h-.191v-1.165h.442c.281,0,.425.1.425.334a.3.3,0,0,1-.3.318l.326.512h-.216l-.3-.5h-.18v.5Zm.214-.661c.144,0,.27-.014.27-.183,0-.141-.137-.158-.253-.158h-.231v.34Zm-.006,1.111a1.052,1.052,0,1,1,1.03-1.052,1.013,1.013,0,0,1-1.03,1.052Zm0-1.921a.872.872,0,1,0,.8.869.817.817,0,0,0-.8-.869Z" transform="translate(-65.477 -1.125)" fill="#fff" fill-rule="evenodd"/>
  </g>
</svg>
