<svg xmlns="http://www.w3.org/2000/svg" width="21.786" height="15.957" viewBox="0 0 21.786 15.957">
  <g id="Grupo_1747" data-name="Grupo 1747" transform="translate(0 0)">
    <g id="Grupo_1690" data-name="Grupo 1690" transform="translate(0 0)">
      <path id="Trazado_4533" data-name="Trazado 4533" d="M236.006,155.479a3.749,3.749,0,1,1,5.474,0,6.63,6.63,0,0,1,2.942,2.633l-.038.038c-.211.179-.411.368-.6.565a5.767,5.767,0,0,0-.856.365,4.831,4.831,0,0,0-9.013,2.42.064.064,0,0,0,.063.063h7.056a2.2,2.2,0,0,0,.339,1.781h-7.4a1.846,1.846,0,0,1-1.844-1.844A6.608,6.608,0,0,1,236.006,155.479Zm4.707-2.561a1.97,1.97,0,0,0-3.941,0A1.973,1.973,0,0,0,240.713,152.918Z" transform="translate(-232.131 -149.167)" fill="#414141"/>
      <path id="Trazado_4534" data-name="Trazado 4534" d="M76.039,185.476a3.749,3.749,0,1,1,5.474,0,6.609,6.609,0,0,1,3.874,6.021,1.845,1.845,0,0,1-1.844,1.844H74.008a1.846,1.846,0,0,1-1.844-1.844,6.608,6.608,0,0,1,3.875-6.021Zm2.737-4.531a1.97,1.97,0,1,0,1.97,1.97A1.973,1.973,0,0,0,78.776,180.944ZM74.008,191.56h9.535a.064.064,0,0,0,.063-.063,4.831,4.831,0,1,0-9.662,0,.064.064,0,0,0,.063.063Z" transform="translate(-63.601 -177.383)" fill="#414141"/>
    </g>
  </g>
</svg>
