<svg xmlns="http://www.w3.org/2000/svg" width="19.004" height="19.004" viewBox="0 0 19.004 19.004">
  <g id="_13-transfer" data-name="13-transfer" transform="translate(-30.127 -8.001)">
    <g id="linear_color" data-name="linear color" transform="translate(30.127 8.001)">
      <path id="Trazado_4685" data-name="Trazado 4685" d="M278.9,25.212a.9.9,0,0,0,0,1.793h17.212a.9.9,0,0,0,0-1.793h-.538V16.875h.538a.9.9,0,0,0,.9-.9V14.634a.9.9,0,0,0-.4-.746L288,8.151a.9.9,0,0,0-.995,0L278.4,13.888a.9.9,0,0,0-.4.746v1.345a.9.9,0,0,0,.9.9h.538v8.337Zm5.2-8.247h6.813v8.247H284.1Zm8.606,8.247V16.965h1.076v8.247ZM287.5,9.974l7.662,5.108H279.84Zm-6.275,6.99H282.3v8.247h-1.076Z" transform="translate(-278 -8.001)" fill="#414141"/>
    </g>
  </g>
</svg>
