<svg xmlns="http://www.w3.org/2000/svg" width="95.815" height="95.815" viewBox="0 0 95.815 95.815">
  <g id="Grupo_1684" data-name="Grupo 1684" transform="translate(-139.592 -172.197)">
    <g id="chat" transform="translate(139.417 172.223)">
      <g id="Grupo_1681" data-name="Grupo 1681" transform="translate(44.097 23.623)">
        <g id="Grupo_1680" data-name="Grupo 1680">
          <path id="Trazado_4531" data-name="Trazado 4531" d="M238.762,125.909a4,4,0,0,0-4,4V153.92a4,4,0,1,0,8,0V129.911A4,4,0,0,0,238.762,125.909Z" transform="translate(-234.761 -125.909)" fill="#ff7773"/>
        </g>
      </g>
      <g id="Grupo_1683" data-name="Grupo 1683" transform="translate(44.098 64.031)">
        <g id="Grupo_1682" data-name="Grupo 1682">
          <path id="Trazado_4532" data-name="Trazado 4532" d="M242.441,343.768a3.731,3.731,0,0,0-.84-1.32,3.817,3.817,0,0,0-.64-.48,4.333,4.333,0,0,0-1.441-.6,4,4,0,0,0-3.6,1.08,3.736,3.736,0,0,0-.84,1.32,3.772,3.772,0,0,0,0,3.041,3.608,3.608,0,0,0,2.161,2.161,3.763,3.763,0,0,0,3.037,0,4.674,4.674,0,0,0,1.32-.84,4.624,4.624,0,0,0,.84-1.32,3.772,3.772,0,0,0,0-3.041Z" transform="translate(-234.762 -341.284)" fill="#ff7773"/>
        </g>
      </g>
    </g>
    <path id="check-mark" d="M95.815,47.908A47.908,47.908,0,1,1,47.908,0,47.882,47.882,0,0,1,95.815,47.908Zm-7.486,0A40.422,40.422,0,1,0,47.908,88.33,40.4,40.4,0,0,0,88.33,47.908Zm0,0" transform="translate(139.592 172.197)" fill="#ff7773"/>
  </g>
</svg>
