<svg xmlns="http://www.w3.org/2000/svg" width="21.353" height="14.68" viewBox="0 0 21.353 14.68">
  <g id="credit-card" transform="translate(0 -80)">
    <path id="Trazado_4681" data-name="Trazado 4681" d="M19.017,80H2.335A2.338,2.338,0,0,0,0,82.335V92.345A2.338,2.338,0,0,0,2.335,94.68H19.017a2.338,2.338,0,0,0,2.335-2.335V82.335A2.338,2.338,0,0,0,19.017,80ZM2.335,81.335H19.017a1,1,0,0,1,1,1V83.67H1.335V82.335A1,1,0,0,1,2.335,81.335ZM19.017,93.345H2.335a1,1,0,0,1-1-1V85H20.018v7.34A1,1,0,0,1,19.017,93.345Z" fill="#414141"/>
    <path id="Trazado_4682" data-name="Trazado 4682" d="M81.335,306h-.667a.667.667,0,0,1-.667-.667v-.667a.667.667,0,0,1,.667-.667h.667a.667.667,0,0,1,.667.667v.667A.667.667,0,0,1,81.335,306Z" transform="translate(-76.664 -214.658)" fill="#414141"/>
  </g>
</svg>
