<svg xmlns="http://www.w3.org/2000/svg" width="45" height="45" viewBox="0 0 45 45">
  <g id="Grupo_1776" data-name="Grupo 1776" transform="translate(-194 -103)">
    <rect id="Rectángulo_346" data-name="Rectángulo 346" width="45" height="45" rx="8" transform="translate(194 103)" fill="#f7f7f7"/>
    <g id="Grupo_1691" data-name="Grupo 1691" transform="translate(-8.201 -67.264)">
      <g id="Grupo_1690" data-name="Grupo 1690" transform="translate(212 179.773)">
        <path id="Trazado_4533" data-name="Trazado 4533" d="M241.944,156.526a4.371,4.371,0,1,0-6.382,0,7.731,7.731,0,0,0-3.431,3.071l.044.044c.246.208.48.429.7.659a6.724,6.724,0,0,1,1,.426,5.633,5.633,0,0,1,10.509,2.821.074.074,0,0,1-.074.074h-8.227a2.564,2.564,0,0,1-.4,2.076h8.622a2.153,2.153,0,0,0,2.15-2.15A7.7,7.7,0,0,0,241.944,156.526Zm-5.488-2.986a2.3,2.3,0,0,1,4.595,0A2.3,2.3,0,0,1,236.455,153.54Z" transform="translate(-221.06 -149.167)" fill="#09b59a"/>
        <path id="Trazado_4534" data-name="Trazado 4534" d="M83.064,186.523a4.372,4.372,0,1,0-6.382,0,7.706,7.706,0,0,0-4.517,7.02,2.151,2.151,0,0,0,2.15,2.15H85.432a2.153,2.153,0,0,0,2.15-2.15,7.7,7.7,0,0,0-4.518-7.02Zm-3.191-5.283a2.3,2.3,0,1,1-2.3,2.3A2.3,2.3,0,0,1,79.873,181.24Zm5.559,12.377H74.314a.074.074,0,0,1-.074-.074,5.633,5.633,0,1,1,11.266,0,.074.074,0,0,1-.074.074Z" transform="translate(-72.164 -177.088)" fill="#09b59a"/>
      </g>
    </g>
    <path id="Trazado_4545" data-name="Trazado 4545" d="M3.04,81.217h7.38a.888.888,0,0,0,.888-.888h0a.888.888,0,0,0-.888-.888H3.04a0,0,0,0,1,0-.006l2.919-2.919A.888.888,0,0,0,4.7,75.26L.26,79.7a.888.888,0,0,0,0,1.256L4.7,85.4A.888.888,0,0,0,6,85.354a.906.906,0,0,0-.06-1.231l-2.9-2.9A0,0,0,0,1,3.04,81.217Z" transform="translate(229.2 216.329) rotate(180)" fill="#09b59a"/>
  </g>
</svg>
