<svg xmlns="http://www.w3.org/2000/svg" width="224.604" height="253.5" viewBox="0 0 224.604 253.5">
  <g id="Grupo_1750" data-name="Grupo 1750" transform="translate(-68.43 -82.5)">
    <path id="Trazado_3235" data-name="Trazado 3235" d="M172.718,2.909c-16.571-6.247-36.587-2.2-49.384,10.021-14.813,14.126-20.578,37.747-39.13,46.4-13.814,6.452-30.225,2.24-45.1,5.586C17.642,69.739,2.07,90.862.214,112.778c-1.428,16.83,4.292,33.571,13.743,47.349,8.834,12.868,24.692,19.989,39.264,24.2,21.6,6.247,45.9,8.174,68.329,8.156,16.634,0,33.357-1.276,49.625-4.854,13.475-2.963,27.6-6.514,38.658-15.17,5.176-4.069,11.039-10.111,13.154-16.518,2.677-8.031,1.678-18.133-.473-26.111-3.569-13.18-10.94-24.986-16.437-37.48-3.489-7.933-3.471-15.617-4.533-24.049-1.16-9.209-1.731-18.5-3.382-27.664-1.472-8.174-3.918-16.321-8.138-23.523C185.613,9.549,180.758,5.952,172.718,2.909Z" transform="translate(68.434 101.506)" fill="#81fff1"/>
    <g id="Grupo_1629" data-name="Grupo 1629" transform="translate(-224.359 26.678)">
      <g id="fondo" transform="translate(370.618 57.64)">
        <path id="Trazado_4296" data-name="Trazado 4296" d="M463.752,288.414l-8.224,30.6-2.1,31.287,2.889,12.789,41.23-5.676,3.374-9.136V312.213s-5.224-21.142-6.671-21.185S463.752,288.414,463.752,288.414Z" transform="translate(-453.424 -234.233)" fill="#fff"/>
        <path id="Trazado_4297" data-name="Trazado 4297" d="M833.825,298.2l-1.247-4.875v-8.577l-1.1-7.584.731-4.393h2.186l1.61,2.145v-2.145l2.166-.458.524,1.69,1.269-2.167h.813l1.17,1.354,1.629-.878.993,1.149v3.16l2.618,21.578Z" transform="translate(-740.456 -221.644)" fill="#fff"/>
        <path id="Trazado_4298" data-name="Trazado 4298" d="M526.155,721.991c.765-2.731,14.829-17.877,14.829-17.877s8.718.609,9.437,1.219,4.975,6.3,4.975,6.3l-2.224,15.033-9.345,10.36-7.1,2.438-11.546-18.45" transform="translate(-507.904 -549.848)" fill="#fff"/>
        <path id="Trazado_4299" data-name="Trazado 4299" d="M668.316,132.761s3.34-4.14,2.937-5.67.03-8.407.034-9.536-5.656-7.378-5.656-7.378l-2.517-8.126L661.53,81.815l7.1-11.4s8.463-7.149,14-7.039,8.667,0,8.667,0l20.585,2.258,9.886,6.244s1.843,10.917,1.6,14.19-3.254,5.886-4.125,6.958a39.093,39.093,0,0,1-10.617,8.08,60.637,60.637,0,0,1-11.648,3.657l-7.711,7.5-6.176,10.655-10.076,7.565-4.7,2.284" transform="translate(-611.426 -63.374)" fill="#fff"/>
      </g>
      <g id="Layer_1" data-name="Layer 1" transform="translate(344.359 55.822)">
        <g id="Grupo_1628" data-name="Grupo 1628" transform="translate(0 0)">
          <path id="Trazado_4300" data-name="Trazado 4300" d="M468.518,317.684c-.978-1.5-2.44-3.017-2.742-4.744-.523-2.774.948-5.359,1.414-8.043a9.887,9.887,0,0,0-3.6-9.28c-6.584-5.1-6.8-5.076-8.423-13.426-1.433-7.034-7.854-11.747-14.434-13.67-2.057-.747-4.093-.763-6.136-1.465l.02.011c-1.943-.7-3.943-.566-5.994-.661-13.692,0-22.839,8.258-24.27,21.848-.651,5.076.331,10.3.672,15.32.179,3.416.33,7.08-1.565,10.1-2.136,3.895-4.578,7.73-4.948,12.275-.225,1.63-.044,3.676-.608,5.335-.677,3.546-3,6.567-3.154,10.215-.533-.2-1.072-.389-1.61-.578-.437.348-.825,1.232.491,3.44a16.068,16.068,0,0,0,3.931,4.053,2.7,2.7,0,0,0,.289-2.063c5.36-4.5,10.8-9.052,15.953-13.851,2.5-3.264,3.158-7.516,3.72-11.575a57.033,57.033,0,0,0-.379-11.237,36.427,36.427,0,0,1-.582-4.464c-.625-1.212-3.442-.6-3.572-2.483-.32-3.77,4.079-2.988,3.894-5.622-.969-8.113-.271-17.083,5.354-23.449,3.833.009,7.71-.311,11.566-.107,3.985.241,8.2.231,11.866,1.99,1.847,4.148,2.751,8.684,3.994,13.039-.455-.176-.59-.8-1.15-.745-1.605.186-4.4,1.879-3.547,3.777,1.428,1.28,4.354-.482,4.924-2.008a48.675,48.675,0,0,0,1.29,7.6c.526,2.243,1.115,4.609.568,6.9-.621,5.526-6.084,8.173-9.2,12.185-1.782,2.319-2.06,5.161-2.138,7.965h0c.1.582-.13,1.439.328,1.871-.149.781.727.813,1.269.912.869.167,1.751.261,2.62.43A35.4,35.4,0,0,1,450.5,329.3c1.751.491,3.548.724,5.307,1.177a113.513,113.513,0,0,0,12.143,1.909c1.132-.035,2.863.855,3.344-.623C471.574,326.9,471.263,321.807,468.518,317.684Z" transform="translate(-381.081 -215.706)" fill="#ff7280"/>
          <path id="Trazado_4301" data-name="Trazado 4301" d="M540.918,381.633c-2.134.273-5.716,2.015-5.039,4.6,2.157,2.357,11.744-4.523,5.039-4.6Zm-3.693,2.931.081.079a.4.4,0,0,1-.081-.079Zm.073.617-.029.063c.009-.021.019-.043.029-.063Z" transform="translate(-489.705 -303.19)" fill="#ff7280"/>
          <path id="Trazado_4302" data-name="Trazado 4302" d="M594.438,296.089c-.406,3.623,1.641,7.134,2.444,10.626,1.881,8.035,5.993,17.654.753,25.2a23.642,23.642,0,0,1-6.272,5.127c-.886.789-.778,2.209-1.256,3.26l.072-.25c-.478.688-3.064,13.191-.393,8.953a38.871,38.871,0,0,1,1.394-8.553l-.034.119c.334-.769.319-1.931.952-2.449a24.251,24.251,0,0,0,4.438-3.116c5.364-4.626,5.606-12.437,4.322-18.916l.015.078a93.244,93.244,0,0,0-4.883-17.541c-.211-.734-.411-1.475-.564-2.223.347-.927-.694-1.2-.988-.315Zm5.737,28.25-.006.093.006-.093Zm-8.784,15.369-.021.072.021-.072Z" transform="translate(-529.792 -237.834)" fill="#161616"/>
          <path id="Trazado_4303" data-name="Trazado 4303" d="M574.843,340.537c-1.52,1.655,2.991,7.663,4.718,8.5.856.76,2.069,1.072,2.846,1.865.6,1.92-3.587,1.206-4.35.312-.153-.088-.358.052-.457.156-.975,1.39,1.666,2.182,2.7,2.071,2.085.107,4.149-2.087,2.609-3.979-1.26-1.069-2.89-1.71-3.98-2.988a14.746,14.746,0,0,1-3.135-4.742c-.239-.416-.236-1.6-.954-1.2Z" transform="translate(-519.117 -271.925)" fill="#161616"/>
          <path id="Trazado_4304" data-name="Trazado 4304" d="M543.374,390.079c-.014.144-.023.288-.031.432,0-.044.005-.088.008-.132-.046.5-.337,3.705.593,2.014-.027-.466.369-4.088-.57-2.314Z" transform="translate(-495.381 -309.234)" fill="#161616"/>
          <path id="Trazado_4305" data-name="Trazado 4305" d="M551.108,387.7c.056.557-.435,2.446.263,2.51.724-.56.149-1.761.366-2.56.108-.608-.621-.42-.629.05Z" transform="translate(-501.243 -307.465)" fill="#161616"/>
          <path id="Trazado_4306" data-name="Trazado 4306" d="M560.793,384.206c-.579.4-.161,1.331-.3,1.936v-.007c0,.035,0,.069-.006.1,0-.043.005-.086.007-.129-.211.868.577,1.01.645.142-.146-.467.208-2.015-.347-2.046Z" transform="translate(-508.43 -305.143)" fill="#161616"/>
          <path id="Trazado_4307" data-name="Trazado 4307" d="M612.289,363.535c-.517.094-.318,1.938-.2,2.344.786.577.8-2.546.2-2.344Zm-.281,1.286,0,.034,0-.034Z" transform="translate(-547.524 -289.442)" fill="#161616"/>
          <path id="Trazado_4308" data-name="Trazado 4308" d="M620.455,360.192c-.48.55-.278,1.6-.35,2.324.073.508.618.068.55-.265-.161-.465.3-2-.2-2.059Z" transform="translate(-553.716 -286.911)" fill="#161616"/>
          <path id="Trazado_4309" data-name="Trazado 4309" d="M626.755,356.429c.1.677-.672,2.518-.1,2.832.524-.1.417-.818.48-1.219v.006c.016-.381.423-3.024-.379-1.619Zm.387,1.5c0,.015,0,.029,0,.044l0-.044Z" transform="translate(-558.526 -283.745)" fill="#161616"/>
          <path id="Trazado_4310" data-name="Trazado 4310" d="M591.864,401.743c-1.262,1.239-3.453,1.277-4.573,2.607a8.779,8.779,0,0,0,2.126,6.023c1.943,1.6,4.2-.577,4.011-2.712l0,.062c.006-.1.011-.207.017-.31v.012a9.279,9.279,0,0,0-.267-2.583l0,.019c-.212-.527-.566-3.611-1.312-3.118Zm-.753,1.366c.176-.116.347-.241.529-.349,3.575,6.974-1.709,10.72-3.651,1.96,1.036-.543,2.13-.981,3.123-1.61Zm2.311,4.639,0,.03,0-.03Zm-4.067.714.064.112-.064-.112Zm3.08.693-.018.023.018-.023Zm1-1.742,0-.061,0,.061Z" transform="translate(-528.797 -318.418)" fill="#161616"/>
          <path id="Trazado_4311" data-name="Trazado 4311" d="M595.831,323.262c-2.1.56-3.082,2.868-2.849,4.9.73,2.272,4.892-.413,5.675-1.731l-.048.061c.331-.487,1.068-1.588.454-2.035-.574-1.086-2.109-1.355-3.233-1.19Zm1.126,1.1c.164.036.327.071.492.1l-.094-.018a1.576,1.576,0,0,1,1.221.683,4.423,4.423,0,0,1-4.633,2.587c-.3-1.845,1-3.749,3.015-3.353Zm.035.006.033.006-.033-.006Z" transform="translate(-533.098 -258.838)" fill="#161616"/>
          <path id="Trazado_4312" data-name="Trazado 4312" d="M600.137,330.705c-1.257-.114-1.675,2.246-.4,2.453,1.431.241,1.862-2.328.4-2.453Zm-.286,1.19c-.008.02-.014.041-.021.062a.316.316,0,0,1,.021-.062Z" transform="translate(-537.664 -264.521)" fill="#161616"/>
          <path id="Trazado_4313" data-name="Trazado 4313" d="M526.633,346.457c-2.267.045-6.451,2.2-5.9,4.849,2.087,3.258,8.226,1.058,9.441-2.069,1.811-1.483-2.28-3.034-3.538-2.78Zm.254,1.283c.994.1,2.3.215,2.893,1.116a2.941,2.941,0,0,1-.771,1.028l.084-.072c-1.6,1.693-6.173,2.855-7.612.577a6.608,6.608,0,0,1,5.406-2.649Zm2.068,2.192-.031.026.031-.026Z" transform="translate(-478.229 -276.462)" fill="#161616"/>
          <path id="Trazado_4314" data-name="Trazado 4314" d="M531.456,355.843c-.875.845-.49,3.173,1.036,2.476,1.689-.759.651-3.631-1.036-2.476Zm.608,1.1-.024.031.024-.031Zm.026,0a.361.361,0,0,1-.032.028l.032-.028Zm.019.008-.031.016.031-.016Zm-.081.018-.006.011h0l.006-.011Zm.073.165-.01.008.01-.008Zm-.108.141.008.015-.008-.015Z" transform="translate(-486.06 -283.404)" fill="#161616"/>
          <path id="Trazado_4315" data-name="Trazado 4315" d="M523.132,342.005c-2.353.531-5.574,2.157-6.044,4.632a9,9,0,0,1,4.119-3.5c.747-.436,1.829-.353,2.466-.829.163-.4-.275-.386-.542-.3Z" transform="translate(-475.501 -273.067)" fill="#161616"/>
          <path id="Trazado_4316" data-name="Trazado 4316" d="M507.733,360.341c-1.226,1.088,2.864,1.545,3.187,1.092.132-.567-.908-.28-1.251-.5-.689-.011-1.3-.66-1.937-.588Z" transform="translate(-468.225 -287.02)" fill="#161616"/>
          <path id="Trazado_4317" data-name="Trazado 4317" d="M512.286,354.782c-.7,1.02,2.068,1.4,2.694,1.286.185-.044.252-.483.008-.424a.894.894,0,0,1-.323.04c-.635-.033-2.087-1.2-2.379-.9Z" transform="translate(-471.77 -282.767)" fill="#161616"/>
          <path id="Trazado_4318" data-name="Trazado 4318" d="M517.123,349.1c-.622.759.712,1.083,1.21,1.365.374.013.615.691.941.413.489-.738-.835-1.034-1.246-1.415-.283-.14-.585-.712-.9-.364Z" transform="translate(-475.405 -278.408)" fill="#161616"/>
          <path id="Trazado_4319" data-name="Trazado 4319" d="M594.71,317.83a4.845,4.845,0,0,0-3.756,3.252l.01-.035c-.211.609.141.318.183-.081a4.064,4.064,0,0,1,2.053-2.055c.661-.518,1.828-.3,2.322-.749.2-.516-.516-.388-.812-.331Zm-3.117,2.354-.013.017.013-.017Z" transform="translate(-531.54 -254.706)" fill="#161616"/>
          <path id="Trazado_4320" data-name="Trazado 4320" d="M611.174,314.128c-.2.963-1.371,1.756-1.285,2.7.462.243,1.393-1.792,1.73-2.189.347-.486-.027-1.276-.445-.514Z" transform="translate(-545.956 -251.697)" fill="#161616"/>
          <path id="Trazado_4321" data-name="Trazado 4321" d="M616.09,314.218a19.974,19.974,0,0,1-1.405,2.223c-.247.266-.815.708-.377,1.057.606.28,3.339-4.326,1.782-3.279Z" transform="translate(-549.192 -251.888)" fill="#161616"/>
          <path id="Trazado_4322" data-name="Trazado 4322" d="M619.875,318.936c-.136.777-2.641,2.785-1.689,3.01.6.034,3.3-3.914,1.689-3.01Z" transform="translate(-552.095 -255.486)" fill="#161616"/>
          <path id="Trazado_4323" data-name="Trazado 4323" d="M516.607,320.342c-.409.05-.811.131-1.214.207l.051-.009-.142.026.027-.005-.209.038.141-.026c-2.722.249-10.8,4.187-11.01,6.994.166.182.394,0,.5-.149,2.691-3.112,6.872-4.826,10.869-5.49l-.142.026a9.084,9.084,0,0,1,1.836-.158c1.2-.494.883-1.907-.7-1.454Zm-7.6,3.785-.09.046.09-.046Zm6.326-3.566.064-.012-.064.012Z" transform="translate(-465.755 -256.589)" fill="#161616"/>
          <path id="Trazado_4324" data-name="Trazado 4324" d="M592.748,301.419c-1.12.117-6.97,2.283-5.777,3.729,1.705-.817,3.441-2.048,5.441-2.325.848.175,1.412-1.579.336-1.4Z" transform="translate(-528.438 -242.279)" fill="#161616"/>
          <path id="Trazado_4325" data-name="Trazado 4325" d="M847.529,290.294c-2.486.329-4.675,6.854-3.7,8.7.338-.059.364-.484.408-.758a14.813,14.813,0,0,1,1.239-4.141c1.517-3.152,3.1-2.467,1.28.686l.094-.2c-1.429,2.377,1.69,2.221,3.313,6.278.229.557.88.112.979-.307-.017-2.065-1.606-4.153-3.251-5.351.67-1.35,1.857-4.5-.366-4.91Zm.368,4.9,0,.006h0l0-.006Zm-1.043-.614.01-.022-.01.022Z" transform="translate(-723.396 -233.842)" fill="#161616"/>
          <path id="Trazado_4326" data-name="Trazado 4326" d="M470.6,267.794c-1.131.088-1.409,1.163-1.769,2.009-.875-2.173-2.729-1.344-3.428.4-.926-2.695-3.932-.523-4.054,1.5-.59,3.867.872,7.683,1.037,11.547.735,6.246.133,12.429-.009,18.681l.005-.136-.014.5.01-.3a115.535,115.535,0,0,1-1.727,18.128c-1.018,5.461-1.628,10.9-2.827,16.4-3.04-.953-6.166-1.137-9.306-1.768-2.973-.449-6.14-1.372-9.066-1.8-6.374-.71-12.763-1.317-19.107-2.354-11-1.489-7.125-3.88-9.094,5.594-7.095,1.883-14.211,3.576-21.3,5.5a57.59,57.59,0,0,1-7.672.943,14.539,14.539,0,0,1-2.315.073c-.986.047-1.425-.057-1.761-1.046-.9-2.171-1.806-4.369-2.648-6.571-.745-1.031-2.587.8-3.305,1.317-6.7,5.749-13.452,11.757-18.729,18.9-4.2,7.069-6.2,15.509-7.292,23.563-.749,5.544-1.1,11.121-1.379,16.7-.409,5.619-.938,11.247.2,16.827.72,4.281,1.286,10.718,6.22,12a17.088,17.088,0,0,0,7.688.675c-2.126,4.927-3.353,4.259,2.319,5.865,9.815,2.494,20.141,3.217,30.2,3.915h-.012a77.06,77.06,0,0,0,14.384-.777c5.423-.892,10.773-2.032,16.164-3a11.322,11.322,0,0,0,4.766-1.5c.568-.26,1.3-.652,1.24-1.375-1.059-2.786-2.471-5.5-3.488-8.292-4.484-10.172-4.534-15.208-3.664-25.8a67.224,67.224,0,0,1,1.734-12.677c.685-2.965.606-2.767,3.327-4.158l-.008,0c6.644-3.952,5.7-12.492,6.106-19.151,5.383.326,10.777.353,16.217.771a73.357,73.357,0,0,0,11.2.265c4.311-.4,9.839.343,12.8-3.445,2.6-4.389,2.532-9.659,3.677-14.492a148.933,148.933,0,0,0,2.011-25.917c.38-12.359.464-24.7-1.7-36.9-.227-2.023-.681-4-.735-6.048.287-2.29-.968-6.335-3.6-3.315-.124-.555-.6-1.324-1.3-1.267Zm-1.978,4.874c.954-.017.634-3.909,1.948-3.378.838.465-.1,4.146,1.415,2.554.351-.848.244-2.813,1.7-2.22,1.063,1.82-.1,4.31.505,6.374.641,5.522,1.92,10.9,2.2,16.419h0c-4.248.343-8.63-.135-12.826.444a108.238,108.238,0,0,0-.467-14.3c.1-2.37-1.729-6.27.084-8.107,2.168-1.141,1.1,3.953,2.486,3.136,1.063-.89-.2-3.72,1.57-3.919,1.165.663.262,2.528,1.386,3ZM400.586,401.182c-1.692-4.668-3.892-9.216-5.984-13.71,4.258-2.984,9-5.37,13.049-8.648.313-.194.578-.62.988-.512.787.645-1.206,1.991.15,2.349.984-.188,1.983-2.271,3.024-1.174a3.68,3.68,0,0,1-.552,2.21c-.358.877.506,1.181,1.066.56.475-.6,2.125-1.44,1.635.026.041.647-2.23,3-.758,2.828,3.823-2.512,3.013,1.1.953,2.871-4.556,4.4-8.96,8.838-13.572,13.2Z" transform="translate(-344.359 -216.757)" fill="#161616"/>
          <path id="Trazado_4327" data-name="Trazado 4327" d="M678.5,927.281c-.858,1.38.023,1.51.857,2.311,2.757,4.839,4.162,10.3,5.9,15.56a222.161,222.161,0,0,1,5.889,23.823c.358,3.151,2.385,1.274,1.521-.865-.391-3.685-9.281-45.856-14.168-40.829Z" transform="translate(-597.785 -717.15)" fill="#161616"/>
          <path id="Trazado_4328" data-name="Trazado 4328" d="M684.147,55.824c-3.6.1-7.03,1.514-10.443,2.536a24.494,24.494,0,0,0-11.3,11.241l.148-.306c-3.122,5.942-2.638,12.853-2.11,19.329.662,4.243.6,8.693,1.91,12.792,2.2,4.717,6.7,8.367,7.335,13.755.495,4.455-.2,9.23-3.176,12.746-.315.555-1.133,1.055-.86,1.753.186.29.595.125.764-.094a8.687,8.687,0,0,1,2.885-1.985,44.939,44.939,0,0,0,5.232-4.271c5.277-3.77,10.327-8.026,13.024-14.095,7.114-13.091,17.987-10.119,28.118-17.018,9.216-6.879,11.032-23.149,1.016-30.1-5.6-3.333-11.893-4.336-18.3-4.67-4.745-.572-9.449-1.655-14.251-1.614Zm3.838,2.06c5.9.871,11.82,1.562,17.75,2.2,11.284,2.576,17.211,8.093,15.587,20.251l.01-.044c-.014.062-.028.124-.043.186l0-.015c-.984,3.42-2.557,6.816-5.321,9.153l.233-.213c-5.328,4.994-13.2,5.049-19.35,8.566a26.576,26.576,0,0,0-9.819,9.291,42.693,42.693,0,0,1-4.531,7.274c-3.178,4.108-8.134,6.332-11.443,10.336l.021-.02a14.681,14.681,0,0,1-2.731,2.181.077.077,0,0,1,.015-.01l-.013.008A18.747,18.747,0,0,0,669.6,109.36c-1.765-3.695-5.076-6.616-6.194-10.61-.889-8.791-3.169-18.019-.494-26.686,2.008-5.276,6.195-10.112,11.515-12.181l-.145.046.018-.006-.043.013.2-.065h0l.486-.154-.032.01c4.241-1.434,8.566-2.614,13.073-1.847ZM677.422,58.97l-.131.042.131-.042Zm-2.331.7.025-.007-.106.033.081-.026ZM675,59.7l-.169.053L675,59.7Zm46.415,20.222-.033.143.033-.143Zm-.184.79-.012.051.011-.045-.061.261.019-.081h0l.043-.186Zm-.043.184h0l.031-.134-.031.134Zm.1-.438c.01-.042.02-.085.03-.127l-.03.127ZM674.445,59.877l-.145.046.157-.05-.012,0Z" transform="translate(-584.049 -55.822)" fill="#161616"/>
          <path id="Trazado_4329" data-name="Trazado 4329" d="M485.03,415.124a1.408,1.408,0,0,0-.758,1.4c.751,1.772,2.715-1.92.758-1.4Z" transform="translate(-450.575 -328.579)" fill="#ff7280"/>
          <path id="Trazado_4330" data-name="Trazado 4330" d="M461.7,763.492c-4.88,2.545-9.737,5.149-14.644,7.642-1.646,1.04-10.031,4.3-9.914,5.711-.076.958,3.467-1.8,4.143-1.863,4.93-2.4,9.753-4.981,14.542-7.648.565-.392,7.76-3.461,5.873-3.843Z" transform="translate(-414.803 -593.111)" fill="#fefefe"/>
          <path id="Trazado_4331" data-name="Trazado 4331" d="M448.2,694.9c-.865.613-.778,4.448-1.137,5.707-.719,5.148-1.107,10.34-2.043,15.457a74.31,74.31,0,0,0-.913,7.794c1.17.6,1.02-2,1.219-2.68.758-6.2,1.777-12.36,2.208-18.6.28-2.468.5-4.949.915-7.4a.228.228,0,0,0-.249-.284Z" transform="translate(-420.089 -541.031)" fill="#fefefe"/>
          <path id="Trazado_4332" data-name="Trazado 4332" d="M453.857,830.986c-.794.8-1.666,1.508-2.513,2.25l.035-.033a110.548,110.548,0,0,1-11.931,7.978,65.654,65.654,0,0,1-11.736,6.2,26.09,26.09,0,0,1-6.588,2.917c-1.349.558-3.446.439-4.377,1.574-.226,1.219,1.564.047,2.159.032a26.631,26.631,0,0,0,7.057-2.516,52.1,52.1,0,0,1,6.589-3.054c3.411-1.9,6.73-3.96,10.056-6.005l-.119.073c.743-.32,14.756-9.677,11.367-9.412Z" transform="translate(-399.304 -644.351)" fill="#fefefe"/>
          <path id="Trazado_4333" data-name="Trazado 4333" d="M699.287,607.046c-.716.781.007,2.217-.124,3.225.187.582-.164,3.065.623,2.9a.66.66,0,0,0,.356-.657c-.339-.808-.164-5.735-.855-5.471Z" transform="translate(-613.59 -474.324)" fill="#fefefe"/>
          <path id="Trazado_4334" data-name="Trazado 4334" d="M825.016,557.313c-.822.5-3.568-.174-3.27,1.163.43.371,4.781-.264,3.27-1.163Z" transform="translate(-706.792 -436.573)" fill="#fefefe"/>
          <path id="Trazado_4335" data-name="Trazado 4335" d="M826.274,570.282c-.115.188-.2.611.112.667.653.008,1.628.582,2.09-.062.132-.195.188-.6-.112-.663-.661.04-1.635-.595-2.089.058Z" transform="translate(-710.167 -446.194)" fill="#fefefe"/>
          <path id="Trazado_4336" data-name="Trazado 4336" d="M476.541,742.177c-1,.816,4.206,2.955,4.924,3.049a.549.549,0,0,0,.493-.625c-.221-.379-.855-.343-1.233-.545l.018.007c-1.131-.111-3.562-2.38-4.2-1.885Zm4.223,1.893.038.014-.038-.014Z" transform="translate(-444.62 -576.875)" fill="#fefefe"/>
          <path id="Trazado_4337" data-name="Trazado 4337" d="M490.83,740.445c-.483.668,1.092.841,1.424,1.29.376.477,4.025,2.25,3.3.707a8.626,8.626,0,0,1-3.569-1.653c-.354-.112-.818-.657-1.16-.345Z" transform="translate(-455.496 -575.541)" fill="#fefefe"/>
          <path id="Trazado_4338" data-name="Trazado 4338" d="M620.653,899.458c-.613.757-2.717,2.786-2.05,3.692.719-.211.855-1.308,1.383-1.822.325-.66,1.446-1.147,1.243-1.948-.151-.232-.435-.072-.576.077Z" transform="translate(-552.477 -696.195)" fill="#fefefe"/>
          <path id="Trazado_4339" data-name="Trazado 4339" d="M630.1,900.341c-.3.361-.622.713-.89,1.1l.024-.032c-.252.369-2.031,3.067-.744,2.628.54-.746.726-1.732,1.352-2.449.24-.41.936-.782.745-1.314-.125-.19-.373-.067-.486.065Z" transform="translate(-559.73 -696.889)" fill="#fefefe"/>
          <path id="Trazado_4340" data-name="Trazado 4340" d="M469.57,311.585c-2.384,2.889-2.722,6.867-3.934,10.313a21.894,21.894,0,0,1-2.029,5.016c-.3.53-1.186.957-.893,1.657,2.68.229,4.223-9.546,5.012-11.836a13.6,13.6,0,0,1,1.507-4.024c.2-.384.8-.71.687-1.173-.089-.135-.272-.051-.35.046Z" transform="translate(-434.174 -249.918)" fill="#fefefe"/>
          <path id="Trazado_4341" data-name="Trazado 4341" d="M467.3,368.287a15.04,15.04,0,0,1-2.755,5.274c-.312.682-1.495,1.1-1.24,1.929,1.034,1.422,6.319-9.576,3.995-7.2Z" transform="translate(-434.643 -292.802)" fill="#fefefe"/>
          <path id="Trazado_4342" data-name="Trazado 4342" d="M440.659,437.272c-3.12,14.214-14.562,10.4-13.49,27.122.217,1.924,1.466.468,1.005-1.05-.4-4.827.946-9.8,4.808-12.946,2.767-2.646,5.806-5.283,7-9.056.145-.795,1.225-3.7.681-4.07Z" transform="translate(-407.178 -345.433)" fill="#fefefe"/>
          <path id="Trazado_4343" data-name="Trazado 4343" d="M455.725,480.608a20.684,20.684,0,0,0-4.9,7.151c-.369.891-3.576,10.168-.844,8.355.534-.625,0-1.5.189-2.255a27.592,27.592,0,0,1,2.614-8.652,21.885,21.885,0,0,1,3.264-4.157c.318-.269.044-.853-.321-.442Z" transform="translate(-423.719 -378.228)" fill="#fefefe"/>
          <path id="Trazado_4344" data-name="Trazado 4344" d="M468.3,501.378c-1.628,1.12-2.75,4.684-2.873,6.59.788.575,1.03-.85,1.108-1.388a14.322,14.322,0,0,1,1.357-3.9c.268-.3,1.226-1.135.408-1.3Z" transform="translate(-436.275 -394.105)" fill="#fefefe"/>
          <path id="Trazado_4345" data-name="Trazado 4345" d="M628.492,310.149a.421.421,0,0,0-.154.5c1.64,1.731,2.2,4.106,2.962,6.3,1.164,3.484.848,7.491,3.319,10.467a19.251,19.251,0,0,0,3.87,3.612c.6.727,1.27,1.83,1.9.4.326-1.763-4.689-3.818-5.678-6.186-1.863-2.723-1.69-6.162-2.949-9.13-.869-1.88-1.391-5.071-3.269-5.956Zm10.057,20.932.044.043-.044-.043Z" transform="translate(-559.939 -248.917)" fill="#fefefe"/>
          <path id="Trazado_4346" data-name="Trazado 4346" d="M659.281,395.621a.573.573,0,0,0-.21.671c2.783,4.919,4.045,6.025,2.8,11.826,1.915.912,1.66-5.442,1.2-6.464-.329-1.471-1.4-2.591-2.145-3.859-.448-.412-1.025-2.594-1.643-2.173Z" transform="translate(-583.266 -313.77)" fill="#fefefe"/>
          <path id="Trazado_4347" data-name="Trazado 4347" d="M679.231,430.749a.347.347,0,0,0-.25.307c-.033,2.035.169,4.127-.587,6.067-.759,2.6-1.5,5.431-.511,8.065.175.708,1.067,2.213,1.864,1.433.224-.243.4-.745.079-.98-3.571-3.58.3-8.968-.435-13.284,0,.024,0,.047,0,.072-.129-.489.232-1.393-.163-1.68Zm-.624,15.7-.03-.03.03.03Zm-.03-.03-.077-.078.077.078Z" transform="translate(-597.22 -340.481)" fill="#fefefe"/>
          <path id="Trazado_4348" data-name="Trazado 4348" d="M638.373,447.023c-.68.467-.175,1.968-.39,2.75a16.8,16.8,0,0,1-1.039,5.011c-.093,1.254-2.73,3.884-2.09,4.485.785.136.979-1.133,1.435-1.6a16.45,16.45,0,0,0,2.084-10.649Z" transform="translate(-564.838 -352.836)" fill="#fefefe"/>
          <path id="Trazado_4349" data-name="Trazado 4349" d="M624.731,463.8a.462.462,0,0,0-.322.4,18.317,18.317,0,0,1-1.059,3.976c-.366,1.011-1.24,1.859-1.451,2.894.11.443.636.131.724-.167l-.016.034a18.9,18.9,0,0,0,2.332-6.9.19.19,0,0,0-.207-.237Z" transform="translate(-555.078 -365.573)" fill="#fefefe"/>
          <path id="Trazado_4350" data-name="Trazado 4350" d="M657.429,483.45c-.742,1-2.353,8.4.153,7.3.718-.789-.653-1.365-.467-2.267a18.4,18.4,0,0,1,.248-3.308c0-.6,1.026-1.679.51-2.087-.215-.037-.371.2-.444.363Z" transform="translate(-581.144 -380.214)" fill="#fefefe"/>
          <path id="Trazado_4351" data-name="Trazado 4351" d="M698.213,512.317c-.755.194-.429,2.953.444,2.319a.78.78,0,0,0,.17-1.075c-.22-.373.1-1.481-.614-1.245Z" transform="translate(-612.698 -402.385)" fill="#fefefe"/>
          <path id="Trazado_4352" data-name="Trazado 4352" d="M424.806,288.567c-1.3.133-6.566,10.894-3.815,9.579.8-.943.7-2.413,1.262-3.522.381-.993.853-1.951,1.294-2.918a8.027,8.027,0,0,1,1.859-2.324c.387-.465-.011-1.316-.6-.815Zm.015,1.411-.07.065.07-.065Z" transform="translate(-401.945 -232.414)" fill="#161616"/>
          <path id="Trazado_4353" data-name="Trazado 4353" d="M407.541,299.386c-.942,1.31-3.846,9.627-2.523,10.608,1.13-.1.717-1.6.947-2.374.289-1.511.632-3.019,1.054-4.5-.044-.676,2.267-4.555.522-3.735Z" transform="translate(-390.155 -240.659)" fill="#161616"/>
          <path id="Trazado_4354" data-name="Trazado 4354" d="M798.557,374.685c-1.027.458-.68,2.842-1.092,3.87-.519,2.618-1.593,5.125-1.7,7.822a22.6,22.6,0,0,0,.072,2.659c1.157.457.554-1.813.7-2.422-.226-2.454,3.45-10.611,2.019-11.929Z" transform="translate(-687.079 -297.915)" fill="#161616"/>
          <path id="Trazado_4355" data-name="Trazado 4355" d="M789.318,351.58c-.709.271-.356,1.238-.393,1.818a24.315,24.315,0,0,1-.685,5.354c-.1,2.033-.6,4.457-.143,6.329.225-.3-.03-.823.013-1.2v.021a34.143,34.143,0,0,1,.854-6.385c.369-1.25,1.164-5.083.352-5.939Z" transform="translate(-681.119 -280.373)" fill="#161616"/>
          <path id="Trazado_4356" data-name="Trazado 4356" d="M912.44,306.246c-1.024.562-.233,1.859-.3,2.759a33.631,33.631,0,0,1-.4,4.725c-.022,1.121,1.316.36,1.281-.383.138-1.045.889-7.36-.583-7.1Z" transform="translate(-775.137 -245.947)" fill="#161616"/>
          <path id="Trazado_4357" data-name="Trazado 4357" d="M926.1,309.23c-.876.551-.169,1.793-.249,2.631a17.844,17.844,0,0,1-1.284,6.99c-1.1,3.095,1.182,2.208,1.3-.188a20.225,20.225,0,0,0,.94-6.747c-.169-.575.153-2.941-.708-2.686Z" transform="translate(-784.649 -248.204)" fill="#161616"/>
          <path id="Trazado_4358" data-name="Trazado 4358" d="M690.2,847.9c-1.9.177.7,14.421,1.68,9.228a20.306,20.306,0,0,1-1.468-7.9c-.049-.394.42-1.3-.211-1.325Z" transform="translate(-606.423 -657.197)" fill="#161616"/>
          <path id="Trazado_4359" data-name="Trazado 4359" d="M704.095,869.13c-.889.6-.141,1.933-.206,2.821.431,3.012,1.944,5.8,2.911,8.629,2.5.036-1.309-5.8-1.413-7.14-.623-.729-.515-4.82-1.292-4.31Zm1.877,9.161.017.044-.017-.044Z" transform="translate(-617.151 -673.283)" fill="#161616"/>
        </g>
      </g>
    </g>
  </g>
</svg>
