<svg xmlns="http://www.w3.org/2000/svg" width="32.756" height="27.46" viewBox="0 0 32.756 27.46">
  <g id="Grupo_1749" data-name="Grupo 1749" transform="translate(-49.791 -252.094)">
    <path id="Trazado_4502" data-name="Trazado 4502" d="M3.04,81.217h7.38a.888.888,0,0,0,.888-.888h0a.888.888,0,0,0-.888-.888H3.04a0,0,0,0,1,0-.006l2.919-2.919A.888.888,0,0,0,4.7,75.26L.26,79.7a.888.888,0,0,0,0,1.256L4.7,85.4A.888.888,0,0,0,6,85.354a.906.906,0,0,0-.06-1.231l-2.9-2.9A0,0,0,0,1,3.04,81.217Z" transform="translate(49.792 193.896)" fill="#ff7773"/>
    <g id="Grupo_1747" data-name="Grupo 1747" transform="translate(57.146 252.094)">
      <g id="Grupo_1690" data-name="Grupo 1690" transform="translate(0 0)">
        <path id="Trazado_4533" data-name="Trazado 4533" d="M236.649,156.526a4.371,4.371,0,1,1,6.382,0,7.731,7.731,0,0,1,3.431,3.071l-.044.044c-.246.208-.48.429-.7.659a6.724,6.724,0,0,0-1,.426,5.633,5.633,0,0,0-10.508,2.821.074.074,0,0,0,.074.074h8.227a2.564,2.564,0,0,0,.4,2.076h-8.622a2.153,2.153,0,0,1-2.15-2.15A7.7,7.7,0,0,1,236.649,156.526Zm5.488-2.986a2.3,2.3,0,0,0-4.595,0A2.3,2.3,0,0,0,242.137,153.54Z" transform="translate(-232.131 -149.167)" fill="#414141"/>
        <path id="Trazado_4534" data-name="Trazado 4534" d="M76.682,186.523a4.372,4.372,0,1,1,6.382,0,7.706,7.706,0,0,1,4.517,7.02,2.151,2.151,0,0,1-2.15,2.15H74.314a2.153,2.153,0,0,1-2.15-2.15,7.7,7.7,0,0,1,4.518-7.02Zm3.191-5.283a2.3,2.3,0,1,0,2.3,2.3A2.3,2.3,0,0,0,79.873,181.24Zm-5.559,12.377H85.432a.074.074,0,0,0,.074-.074,5.633,5.633,0,1,0-11.266,0,.074.074,0,0,0,.074.074Z" transform="translate(-62.18 -177.088)" fill="#414141"/>
      </g>
    </g>
  </g>
</svg>
