<svg xmlns="http://www.w3.org/2000/svg" width="11.654" height="11.654" viewBox="0 0 11.654 11.654">
  <g id="question" transform="translate(0.412 0.625)">
    <path id="Trazado_4586" data-name="Trazado 4586" d="M235.57,363.119a.451.451,0,1,1-.451-.451A.451.451,0,0,1,235.57,363.119Zm0,0" transform="translate(-229.705 -354.997)" fill="#09b59a" stroke="#09b59a" stroke-width="0.4"/>
    <path id="Trazado_4587" data-name="Trazado 4587" d="M5.627,11.254a5.627,5.627,0,1,1,5.627-5.627A5.633,5.633,0,0,1,5.627,11.254ZM5.627.7a4.924,4.924,0,1,0,4.924,4.924A4.929,4.929,0,0,0,5.627.7Zm0,0" transform="translate(-0.212 -0.425)" fill="#09b59a" stroke="#09b59a" stroke-width="0.4"/>
    <path id="Trazado_4588" data-name="Trazado 4588" d="M167.25,90.183a.339.339,0,0,1-.338-.338v-.456a1.017,1.017,0,0,1,.678-.957,1.4,1.4,0,0,0,.9-1.181,1.241,1.241,0,1,0-2.482,0,.338.338,0,0,1-.677,0,1.918,1.918,0,1,1,3.835,0,2.076,2.076,0,0,1-1.353,1.82.339.339,0,0,0-.226.319v.455A.339.339,0,0,1,167.25,90.183Zm0,0" transform="translate(-161.835 -83.527)" fill="#09b59a" stroke="#09b59a" stroke-width="0.4"/>
  </g>
</svg>
