<svg xmlns="http://www.w3.org/2000/svg" width="17.958" height="12.977" viewBox="0 0 17.958 12.977">
  <path id="friends" d="M17.938,9.656a4.856,4.856,0,0,0-2.866-3.632,2.979,2.979,0,0,0,1.063-2.287,2.912,2.912,0,1,0-5.822,0,2.979,2.979,0,0,0,1.064,2.288,4.751,4.751,0,0,0-.7.37,4.851,4.851,0,0,0-1.419,1.4,5.983,5.983,0,0,0-1.214-.621,3.693,3.693,0,0,0,1.524-3A3.645,3.645,0,0,0,5.96.5,3.645,3.645,0,0,0,2.352,4.174a3.693,3.693,0,0,0,1.524,3A6.114,6.114,0,0,0,.021,11.848a1.389,1.389,0,0,0,.3,1.137,1.368,1.368,0,0,0,1.05.493h9.17a1.368,1.368,0,0,0,1.05-.493,1.388,1.388,0,0,0,.3-1.137,6.284,6.284,0,0,0-.194-.791h5.069a1.178,1.178,0,0,0,.9-.424A1.193,1.193,0,0,0,17.938,9.656ZM11.365,3.736a1.86,1.86,0,1,1,3.718,0,1.86,1.86,0,1,1-3.718,0ZM3.4,4.174A2.592,2.592,0,0,1,5.96,1.552,2.592,2.592,0,0,1,8.515,4.174,2.592,2.592,0,0,1,5.96,6.8,2.592,2.592,0,0,1,3.4,4.174Zm7.384,8.135a.316.316,0,0,1-.244.116H1.375a.316.316,0,0,1-.244-.116.335.335,0,0,1-.074-.277,5.012,5.012,0,0,1,4.9-4.184,5.011,5.011,0,0,1,4.9,4.184A.334.334,0,0,1,10.789,12.309Zm6.082-2.352a.128.128,0,0,1-.1.048H11.262a6.124,6.124,0,0,0-1.18-1.553A3.7,3.7,0,0,1,13.224,6.7,3.761,3.761,0,0,1,16.9,9.84.141.141,0,0,1,16.871,9.957Zm0,0" transform="translate(0.001 -0.5)" fill="#09b59a"/>
</svg>
