<svg xmlns="http://www.w3.org/2000/svg" width="16.323" height="7.907" viewBox="0 0 16.323 7.907">
  <g id="Grupo_1755" data-name="Grupo 1755" transform="translate(-25.292 -161.5)">
    <g id="right-arrow" transform="translate(25.292 29.5)">
      <g id="Grupo_1754" data-name="Grupo 1754" transform="translate(0 132)">
        <path id="Trazado_4589" data-name="Trazado 4589" d="M16.136,135.5h0L12.8,132.186a.638.638,0,0,0-.9.9l2.237,2.226H.638a.638.638,0,1,0,0,1.275h13.5L11.9,138.817a.638.638,0,0,0,.9.9l3.332-3.316h0A.638.638,0,0,0,16.136,135.5Z" transform="translate(0 -132)" fill="#09b59a"/>
      </g>
    </g>
    <g id="right-arrow-2" data-name="right-arrow" transform="translate(41.615 301.406) rotate(180)">
      <g id="Grupo_1754-2" data-name="Grupo 1754" transform="translate(0 132)">
        <path id="Trazado_4589-2" data-name="Trazado 4589" d="M16.136,135.5h0L12.8,132.186a.638.638,0,0,0-.9.9l2.237,2.226H.638a.638.638,0,1,0,0,1.275h13.5L11.9,138.817a.638.638,0,0,0,.9.9l3.332-3.316h0A.638.638,0,0,0,16.136,135.5Z" transform="translate(0 -132)" fill="#09b59a"/>
      </g>
    </g>
  </g>
</svg>
