<svg xmlns="http://www.w3.org/2000/svg" width="11.67" height="11.67" viewBox="0 0 11.67 11.67">
  <g id="Grupo_1753" data-name="Grupo 1753" transform="translate(-21 -412)">
    <g id="Grupo_1692" data-name="Grupo 1692" transform="translate(21 412)">
      <path id="Trazado_4535" data-name="Trazado 4535" d="M67.951,69.349H65.4a1.4,1.4,0,0,1-1.4-1.4V65.4A1.4,1.4,0,0,1,65.4,64h2.553a1.4,1.4,0,0,1,1.4,1.4v2.553A1.4,1.4,0,0,1,67.951,69.349ZM65.4,64.973a.426.426,0,0,0-.425.425v2.553a.426.426,0,0,0,.425.425h2.553a.426.426,0,0,0,.425-.425V65.4a.426.426,0,0,0-.425-.425Z" transform="translate(-64 -64)" fill="#09b59a"/>
      <path id="Trazado_4536" data-name="Trazado 4536" d="M67.951,277.349H65.4a1.4,1.4,0,0,1-1.4-1.4V273.4a1.4,1.4,0,0,1,1.4-1.4h2.553a1.4,1.4,0,0,1,1.4,1.4v2.553A1.4,1.4,0,0,1,67.951,277.349ZM65.4,272.973a.426.426,0,0,0-.425.425v2.553a.426.426,0,0,0,.425.426h2.553a.426.426,0,0,0,.425-.426V273.4a.426.426,0,0,0-.425-.425Z" transform="translate(-64 -265.679)" fill="#09b59a"/>
      <path id="Trazado_4537" data-name="Trazado 4537" d="M275.951,69.349H273.4a1.4,1.4,0,0,1-1.4-1.4V65.4a1.4,1.4,0,0,1,1.4-1.4h2.553a1.4,1.4,0,0,1,1.4,1.4v2.553A1.4,1.4,0,0,1,275.951,69.349ZM273.4,64.973a.426.426,0,0,0-.425.425v2.553a.426.426,0,0,0,.425.425h2.553a.426.426,0,0,0,.426-.425V65.4a.426.426,0,0,0-.426-.425Z" transform="translate(-265.679 -64)" fill="#09b59a"/>
      <path id="Trazado_4538" data-name="Trazado 4538" d="M276.559,274.431H275.4V272.79a.791.791,0,0,0-.79-.79H272.79a.791.791,0,0,0-.79.79v1.824a.791.791,0,0,0,.79.79h1.641v1.155a.791.791,0,0,0,.79.79h1.337a.791.791,0,0,0,.79-.79v-1.337A.791.791,0,0,0,276.559,274.431Zm-3.586-1.459h1.459v1.459h-1.459Zm3.4,3.4H275.4V275.4h.973Z" transform="translate(-265.679 -265.679)" fill="#09b59a"/>
      <path id="Trazado_4539" data-name="Trazado 4539" d="M128.973,129.459h-.486a.486.486,0,0,1-.486-.486v-.486a.486.486,0,0,1,.486-.486h.486a.486.486,0,0,1,.486.486v.486A.486.486,0,0,1,128.973,129.459Z" transform="translate(-126.055 -126.055)" fill="#09b59a"/>
      <path id="Trazado_4540" data-name="Trazado 4540" d="M336.973,129.459h-.486a.486.486,0,0,1-.486-.486v-.486a.486.486,0,0,1,.486-.486h.486a.486.486,0,0,1,.486.486v.486A.486.486,0,0,1,336.973,129.459Z" transform="translate(-327.733 -126.055)" fill="#09b59a"/>
      <path id="Trazado_4541" data-name="Trazado 4541" d="M128.973,337.459h-.486a.486.486,0,0,1-.486-.486v-.486a.486.486,0,0,1,.486-.486h.486a.486.486,0,0,1,.486.486v.486A.486.486,0,0,1,128.973,337.459Z" transform="translate(-126.055 -327.733)" fill="#09b59a"/>
    </g>
  </g>
</svg>
