<svg xmlns="http://www.w3.org/2000/svg" width="17.417" height="8.096" viewBox="0 0 17.417 8.096">
  <g id="Grupo_1750" data-name="Grupo 1750" transform="translate(0 461.914)">
    <g id="Grupo_1711" data-name="Grupo 1711" transform="translate(0 -461.914)">
      <g id="Grupo_1710" data-name="Grupo 1710" transform="translate(0 0)">
        <path id="Trazado_4552" data-name="Trazado 4552" d="M12.659-456.378v1.678H.883v-6.33H12.659v1.715c.294,0,.589-.007.883-.012v-1.85a.737.737,0,0,0-.736-.736H.736a.737.737,0,0,0-.736.736v6.624a.737.737,0,0,0,.736.736h12.07a.737.737,0,0,0,.736-.736v-1.815C13.248-456.36,12.953-456.359,12.659-456.378Z" transform="translate(0 461.913)" fill="#09b59a"/>
      </g>
    </g>
    <g id="Grupo_1713" data-name="Grupo 1713" transform="translate(0 -461.914)">
      <g id="Grupo_1712" data-name="Grupo 1712" transform="translate(0 0)">
        <path id="Trazado_4553" data-name="Trazado 4553" d="M2.061-461.913a.442.442,0,0,0-.442.442v.442a.583.583,0,0,1-.589.589H.442A.442.442,0,0,0,0-460a.442.442,0,0,0,.442.442H1.03A1.474,1.474,0,0,0,2.5-461.03v-.442A.442.442,0,0,0,2.061-461.913Z" transform="translate(0 461.913)" fill="#09b59a"/>
      </g>
    </g>
    <g id="Grupo_1715" data-name="Grupo 1715" transform="translate(11.187 -461.914)">
      <g id="Grupo_1714" data-name="Grupo 1714" transform="translate(0 0)">
        <path id="Trazado_4554" data-name="Trazado 4554" d="M424.869-460.442h-.442a.583.583,0,0,1-.589-.589v-.442a.442.442,0,0,0-.442-.442.442.442,0,0,0-.442.442v.442a1.474,1.474,0,0,0,1.472,1.472h.442a.442.442,0,0,0,.442-.442A.441.441,0,0,0,424.869-460.442Z" transform="translate(-422.955 461.914)" fill="#09b59a"/>
      </g>
    </g>
    <g id="Grupo_1717" data-name="Grupo 1717" transform="translate(0 -456.173)">
      <g id="Grupo_1716" data-name="Grupo 1716" transform="translate(0 0)">
        <path id="Trazado_4555" data-name="Trazado 4555" d="M1.03-244.87H.442a.442.442,0,0,0-.442.442.442.442,0,0,0,.442.442H1.03a.583.583,0,0,1,.589.589v.442a.442.442,0,0,0,.442.442.442.442,0,0,0,.442-.442v-.442A1.474,1.474,0,0,0,1.03-244.87Z" transform="translate(0 244.87)" fill="#09b59a"/>
      </g>
    </g>
    <g id="Grupo_1719" data-name="Grupo 1719" transform="translate(11.04 -456.173)">
      <g id="Grupo_1718" data-name="Grupo 1718" transform="translate(0 0)">
        <path id="Trazado_4556" data-name="Trazado 4556" d="M419.452-244.87h-.589a1.474,1.474,0,0,0-1.472,1.472v.442a.442.442,0,0,0,.442.442.442.442,0,0,0,.442-.442v-.442a.583.583,0,0,1,.589-.589h.589a.442.442,0,0,0,.442-.442A.442.442,0,0,0,419.452-244.87Z" transform="translate(-417.391 244.87)" fill="#09b59a"/>
      </g>
    </g>
    <g id="Grupo_1721" data-name="Grupo 1721" transform="translate(4.342 -460.309)">
      <g id="Grupo_1720" data-name="Grupo 1720" transform="translate(0 0)">
        <path id="Trazado_4557" data-name="Trazado 4557" d="M166.6-401.252a2.431,2.431,0,0,0-2.429,2.429,2.432,2.432,0,0,0,2.429,2.429,2.432,2.432,0,0,0,2.429-2.429A2.432,2.432,0,0,0,166.6-401.252Zm0,3.974a1.547,1.547,0,0,1-1.546-1.546,1.547,1.547,0,0,1,1.546-1.546,1.547,1.547,0,0,1,1.546,1.546A1.547,1.547,0,0,1,166.6-397.278Z" transform="translate(-164.174 401.252)" fill="#09b59a"/>
      </g>
    </g>
    <path id="Trazado_4558" data-name="Trazado 4558" d="M471.171-396.885h-3.3a.4.4,0,0,0-.4.4h0a.4.4,0,0,0,.4.4h3.3a0,0,0,0,1,0,0l-1.3,1.3a.4.4,0,0,0,0,.561.4.4,0,0,0,.561,0l1.984-1.984a.4.4,0,0,0,0-.561l-1.984-1.984a.4.4,0,0,0-.281-.116.4.4,0,0,0-.3.136.4.4,0,0,0,.027.55l1.3,1.3A0,0,0,0,1,471.171-396.885Z" transform="translate(-455.112 -61.377)" fill="#09b59a"/>
  </g>
</svg>
