<svg id="edit" xmlns="http://www.w3.org/2000/svg" width="10.04" height="10.04" viewBox="0 0 10.04 10.04">
  <path id="Trazado_4574" data-name="Trazado 4574" d="M182.362,73.394a.328.328,0,0,0-.089.165l-.459,2.294a.324.324,0,0,0,.319.388.308.308,0,0,0,.064-.006l2.293-.459a.323.323,0,0,0,.166-.089l5.132-5.132-2.293-2.293Zm0,0" transform="translate(-181.808 -66.201)" fill="#414141"/>
  <path id="Trazado_4575" data-name="Trazado 4575" d="M394.636.975a1.623,1.623,0,0,0-2.293,0l-.9.9,2.293,2.293.9-.9a1.622,1.622,0,0,0,0-2.293Zm0,0" transform="translate(-385.071 -0.501)" fill="#414141"/>
</svg>
