<svg xmlns="http://www.w3.org/2000/svg" width="21.986" height="13.143" viewBox="0 0 21.986 13.143">
  <g id="Grupo_1784" data-name="Grupo 1784" transform="translate(1382.8 626.466)">
    <g id="Grupo_1736" data-name="Grupo 1736" transform="translate(-1364.877 -617.146)">
      <g id="Grupo_1735" data-name="Grupo 1735" transform="translate(0 0)">
        <path id="Trazado_4566" data-name="Trazado 4566" d="M-964.691-405.6a.717.717,0,0,0,.717-.717v-.717a.946.946,0,0,1,.956-.956h.956a.717.717,0,0,0,.717-.717.717.717,0,0,0-.717-.717h-.956a2.392,2.392,0,0,0-2.39,2.39v.717A.717.717,0,0,0-964.691-405.6Z" transform="translate(965.408 409.422)" fill="#414141"/>
      </g>
    </g>
    <g id="Grupo_1738" data-name="Grupo 1738" transform="translate(-1382.8 -617.146)">
      <g id="Grupo_1737" data-name="Grupo 1737" transform="translate(0 0)">
        <path id="Trazado_4567" data-name="Trazado 4567" d="M-1382.081-407.987h.717a.946.946,0,0,1,.956.956v.717a.717.717,0,0,0,.717.717.717.717,0,0,0,.717-.717v-.717a2.392,2.392,0,0,0-2.39-2.39h-.717a.717.717,0,0,0-.717.717A.717.717,0,0,0-1382.081-407.987Z" transform="translate(1382.798 409.421)" fill="#414141"/>
      </g>
    </g>
    <g id="Grupo_1740" data-name="Grupo 1740" transform="translate(-1364.877 -626.466)">
      <g id="Grupo_1739" data-name="Grupo 1739" transform="translate(0 0)">
        <path id="Trazado_4568" data-name="Trazado 4568" d="M-963.019-622.642h.956a.717.717,0,0,0,.717-.717.717.717,0,0,0-.717-.717h-.956a.946.946,0,0,1-.956-.956v-.717a.717.717,0,0,0-.717-.717.717.717,0,0,0-.717.717v.717A2.392,2.392,0,0,0-963.019-622.642Z" transform="translate(965.409 626.466)" fill="#414141"/>
      </g>
    </g>
    <g id="Grupo_1742" data-name="Grupo 1742" transform="translate(-1382.8 -626.466)">
      <g id="Grupo_1741" data-name="Grupo 1741" transform="translate(0 0)">
        <path id="Trazado_4569" data-name="Trazado 4569" d="M-1382.083-622.641h.956a2.393,2.393,0,0,0,2.39-2.39v-.717a.717.717,0,0,0-.717-.717.717.717,0,0,0-.717.717v.717a.946.946,0,0,1-.956.956h-.956a.717.717,0,0,0-.717.717A.717.717,0,0,0-1382.083-622.641Z" transform="translate(1382.8 626.465)" fill="#414141"/>
      </g>
    </g>
    <g id="Grupo_1744" data-name="Grupo 1744" transform="translate(-1375.75 -623.813)">
      <g id="Grupo_1743" data-name="Grupo 1743" transform="translate(0 0)">
        <path id="Trazado_4570" data-name="Trazado 4570" d="M-1214.682-556.8a3.947,3.947,0,0,0,3.943-3.943,3.947,3.947,0,0,0-3.943-3.943,3.948,3.948,0,0,0-3.943,3.943A3.948,3.948,0,0,0-1214.682-556.8Zm0-6.452a2.512,2.512,0,0,1,2.509,2.509,2.512,2.512,0,0,1-2.509,2.509,2.512,2.512,0,0,1-2.509-2.509A2.512,2.512,0,0,1-1214.682-563.257Z" transform="translate(1218.625 564.691)" fill="#414141"/>
      </g>
    </g>
    <g id="Grupo_1785" data-name="Grupo 1785">
      <path id="Trazado_4572" data-name="Trazado 4572" d="M-1381.6-613.322h6.348v-.006a.718.718,0,0,0,.631-.713.718.718,0,0,0-.631-.713v0h-.027c-.02,0-.04,0-.061,0s-.041,0-.06,0h-5.961v-10.276h19.118v10.276h-5.763c-.02,0-.04,0-.061,0a.719.719,0,0,0-.719.719.719.719,0,0,0,.719.718h6.063a1.2,1.2,0,0,0,1.195-1.195V-625.27a1.2,1.2,0,0,0-1.195-1.195h-19.6a1.2,1.2,0,0,0-1.195,1.195v10.754A1.2,1.2,0,0,0-1381.6-613.322Z" transform="translate(-0.001 -0.001)" fill="#414141"/>
      <path id="Trazado_4686" data-name="Trazado 4686" d="M-1381.6-613.322h6.348v-.006a.718.718,0,0,0,.631-.713.718.718,0,0,0-.631-.713v0h-.027c-.02,0-.04,0-.061,0s-.041,0-.06,0h-5.961v-10.276h19.118v10.276h-5.763c-.02,0-.04,0-.061,0a.719.719,0,0,0-.719.719.719.719,0,0,0,.719.718h6.063a1.2,1.2,0,0,0,1.195-1.195V-625.27a1.2,1.2,0,0,0-1.195-1.195h-19.6a1.2,1.2,0,0,0-1.195,1.195v10.754A1.2,1.2,0,0,0-1381.6-613.322Z" transform="translate(-2743.614 -1239.787) rotate(180)" fill="#414141"/>
    </g>
  </g>
</svg>
